<svg width="180" height="130" viewBox="0 0 180 130" fill="none" xmlns="http://www.w3.org/2000/svg">
<rect width="180" height="130" fill="white"/>
<path d="M61.8597 48.7491C57.5508 56.2141 56.3832 65.0854 58.6136 73.4115C60.844 81.7375 66.2899 88.8364 73.753 93.1462C81.2162 97.4561 90.0854 98.6241 98.4095 96.3931C106.734 94.1621 113.831 88.715 118.14 81.2501C122.626 73.4776 119.964 63.539 112.193 59.0515C104.422 54.5641 94.4861 57.2271 89.9997 64.9996C85.5133 72.7721 75.577 75.4351 67.8064 70.9477C60.0357 66.4603 57.3733 56.5216 61.8597 48.7491Z" fill="#003E87"/>
<path d="M89.999 64.9998C85.5126 72.7723 75.5763 75.4353 67.8057 70.9479C60.0351 66.4604 57.3727 56.5218 61.859 48.7493C66.1679 41.2844 73.265 35.8373 81.5891 33.6063C89.9132 31.3753 98.7824 32.5433 106.246 36.8532C113.709 41.1631 119.155 48.2619 121.385 56.5879C123.614 64.9098 122.449 73.7764 118.145 81.239C122.623 73.4682 119.959 63.537 112.192 59.0517C104.422 54.5643 94.4854 57.2273 89.999 64.9998Z" fill="#CE1127"/>
<rect width="14.7713" height="4.43139" transform="matrix(0.566311 -0.824192 0.824061 0.566501 144.393 100.599)" fill="black"/>
<rect width="14.7713" height="4.43138" transform="matrix(0.56631 -0.824192 0.82406 0.566502 134.354 115.208)" fill="black"/>
<rect width="14.7713" height="4.43138" transform="matrix(0.56631 -0.824192 0.82406 0.566502 138.307 96.4152)" fill="black"/>
<rect width="14.7713" height="4.43138" transform="matrix(0.56631 -0.824192 0.82406 0.566502 128.268 111.025)" fill="black"/>
<rect width="14.7713" height="4.43138" transform="matrix(0.56631 -0.824192 0.82406 0.566502 132.221 92.2314)" fill="black"/>
<rect width="14.7713" height="4.43138" transform="matrix(0.56631 -0.824192 0.82406 0.566502 122.182 106.841)" fill="black"/>
<rect width="32.4972" height="4.43143" transform="matrix(0.566312 0.824191 -0.824062 0.5665 27.2432 88.4246)" fill="black"/>
<rect width="14.7713" height="4.43138" transform="matrix(0.56631 0.824192 -0.82406 0.566502 43.3677 98.8503)" fill="black"/>
<rect width="14.7713" height="4.43138" transform="matrix(0.566311 0.824192 -0.82406 0.566502 33.3291 84.2408)" fill="black"/>
<rect width="32.4972" height="4.43143" transform="matrix(0.566313 0.82419 -0.824062 0.5665 39.415 80.0571)" fill="black"/>
<rect width="14.7713" height="4.43139" transform="matrix(0.566311 0.824192 -0.824061 0.566501 135.873 35.2584)" fill="black"/>
<rect width="14.7713" height="4.43139" transform="matrix(0.566311 0.824192 -0.824061 0.566501 125.834 20.6488)" fill="black"/>
<rect width="32.4972" height="4.43143" transform="matrix(0.566312 0.824191 -0.824062 0.5665 131.92 16.4652)" fill="black"/>
<rect width="14.7713" height="4.43139" transform="matrix(0.566311 0.824192 -0.824061 0.566501 148.044 26.891)" fill="black"/>
<rect width="14.7713" height="4.43139" transform="matrix(0.566311 0.824192 -0.824061 0.566501 138.006 12.2815)" fill="black"/>
<rect width="32.4972" height="4.43143" transform="matrix(0.566312 -0.824191 0.824062 0.5665 35.7637 47.4327)" fill="black"/>
<rect width="32.4972" height="4.43143" transform="matrix(0.566313 -0.82419 0.824062 0.5665 29.6777 43.249)" fill="black"/>
<rect width="32.4972" height="4.43143" transform="matrix(0.566313 -0.824191 0.824062 0.5665 23.5918 39.0653)" fill="black"/>
</svg>
