<svg width="130" height="130" viewBox="0 0 130 130" fill="none" xmlns="http://www.w3.org/2000/svg">
<rect width="130" height="130" fill="white"/>
<path d="M44.4133 53.1113C41.2611 58.5725 40.4068 65.0625 42.0386 71.1537C43.6703 77.2448 47.6543 82.4381 53.1142 85.5911C58.5741 88.7442 65.0626 89.5986 71.1523 87.9665C77.242 86.3343 82.4341 82.3494 85.5863 76.8882C88.8684 71.2021 86.9207 63.9312 81.2359 60.6483C75.5511 57.3654 68.2819 59.3136 64.9998 64.9998C61.7177 70.6859 54.4486 72.6341 48.7638 69.3512C43.079 66.0683 41.1312 58.7975 44.4133 53.1113Z" fill="#003E87"/>
<path d="M64.9992 64.9998C61.7171 70.686 54.448 72.6342 48.7632 69.3513C43.0784 66.0684 41.1306 58.7976 44.4127 53.1114C47.565 47.6502 52.7571 43.6653 58.8468 42.0331C64.9365 40.401 71.425 41.2554 76.8848 44.4085C82.3447 47.5615 86.3287 52.7548 87.9605 58.8459C89.5914 64.934 88.7388 71.4206 85.5905 76.8801C88.866 71.1951 86.9173 63.9297 81.2353 60.6484C75.5505 57.3655 68.2813 59.3137 64.9992 64.9998Z" fill="#CE1127"/>
<rect width="10.9787" height="3.68635" transform="matrix(0.537843 -0.794976 0.783017 0.546684 104.792 90.8644)" fill="black"/>
<rect width="10.9786" height="3.68635" transform="matrix(0.537843 -0.794976 0.783016 0.546685 97.4482 101.552)" fill="black"/>
<rect width="10.9787" height="3.68635" transform="matrix(0.537843 -0.794977 0.783016 0.546685 100.34 87.804)" fill="black"/>
<rect width="10.9787" height="3.68635" transform="matrix(0.537843 -0.794977 0.783016 0.546685 92.9961 98.4918)" fill="black"/>
<rect width="10.9787" height="3.68635" transform="matrix(0.537843 -0.794977 0.783016 0.546685 95.8877 84.7432)" fill="black"/>
<rect width="10.9787" height="3.68635" transform="matrix(0.537843 -0.794977 0.783016 0.546685 88.5439 95.431)" fill="black"/>
<rect width="24.4646" height="3.74201" transform="matrix(0.539627 0.792792 -0.783909 0.544001 19.3506 82.1367)" fill="black"/>
<rect width="10.9786" height="3.68634" transform="matrix(0.537843 0.794976 -0.783017 0.546685 31.0991 89.764)" fill="black"/>
<rect width="10.9787" height="3.68635" transform="matrix(0.537843 0.794976 -0.783017 0.546685 23.7554 79.076)" fill="black"/>
<rect width="24.4646" height="3.74201" transform="matrix(0.539627 0.792792 -0.783909 0.544001 28.2549 76.0154)" fill="black"/>
<rect width="10.9787" height="3.68635" transform="matrix(0.537843 0.794976 -0.783017 0.546684 98.7749 43.2417)" fill="black"/>
<rect width="10.9787" height="3.68635" transform="matrix(0.537844 0.794976 -0.783017 0.546684 91.4302 32.5537)" fill="black"/>
<rect width="24.4646" height="3.74201" transform="matrix(0.539627 0.792792 -0.783909 0.544001 95.9297 29.4932)" fill="black"/>
<rect width="10.9787" height="3.68635" transform="matrix(0.537844 0.794976 -0.783017 0.546684 107.678 37.1204)" fill="black"/>
<rect width="10.9787" height="3.68635" transform="matrix(0.537844 0.794976 -0.783017 0.546684 100.335 26.4324)" fill="black"/>
<rect width="24.4646" height="3.74201" transform="matrix(0.539627 -0.792792 0.783909 0.544001 25.3218 51.949)" fill="black"/>
<rect width="24.4646" height="3.74201" transform="matrix(0.539627 -0.792792 0.783909 0.544001 20.8696 48.8884)" fill="black"/>
<rect width="24.4646" height="3.74201" transform="matrix(0.539627 -0.792792 0.783909 0.544001 16.4175 45.8276)" fill="black"/>
</svg>
