<svg width="150" height="150" viewBox="0 0 150 150" fill="none" xmlns="http://www.w3.org/2000/svg">
<rect width="150" height="150" fill="white"/>
<path d="M51.2459 61.2822C47.6087 67.5836 46.6231 75.0721 48.5058 82.1003C50.3886 89.1286 54.9856 95.1208 61.2854 98.7589C67.5853 102.397 75.072 103.383 82.0986 101.5C89.1252 99.6165 95.116 95.0184 98.7533 88.7171C102.54 82.1561 100.293 73.7667 93.7335 69.9787C87.1741 66.1908 78.7867 68.4387 74.9996 74.9997C71.2125 81.5606 62.8251 83.8085 56.2657 80.0206C49.7063 76.2326 47.4589 67.8432 51.2459 61.2822Z" fill="#003E87"/>
<path d="M74.9989 74.9999C71.2119 81.5608 62.8244 83.8088 56.265 80.0208C49.7056 76.2328 47.4582 67.8434 51.2453 61.2824C54.8825 54.9811 60.8734 50.383 67.9 48.4998C74.9265 46.6166 82.4133 47.6025 88.7131 51.2406C95.013 54.8787 99.6099 60.871 101.493 67.8992C103.375 74.9239 102.391 82.4084 98.7581 88.7078C102.537 82.1483 100.289 73.7651 93.7328 69.9789C87.1735 66.191 78.786 68.4389 74.9989 74.9999Z" fill="#CE1127"/>
<rect width="12.6677" height="4.25348" transform="matrix(0.537843 -0.794976 0.783016 0.546685 120.914 104.844)" fill="black"/>
<rect width="12.6677" height="4.25348" transform="matrix(0.537843 -0.794976 0.783017 0.546684 112.44 117.176)" fill="black"/>
<rect width="12.6677" height="4.25348" transform="matrix(0.537843 -0.794976 0.783016 0.546685 115.777 101.312)" fill="black"/>
<rect width="12.6677" height="4.25347" transform="matrix(0.537843 -0.794977 0.783016 0.546685 107.303 113.645)" fill="black"/>
<rect width="12.6677" height="4.25348" transform="matrix(0.537843 -0.794977 0.783016 0.546685 110.639 97.7808)" fill="black"/>
<rect width="12.6677" height="4.25348" transform="matrix(0.537843 -0.794977 0.783016 0.546685 102.166 110.113)" fill="black"/>
<rect width="28.2284" height="4.31771" transform="matrix(0.539627 0.792792 -0.783909 0.544001 22.3275 94.7732)" fill="black"/>
<rect width="12.6677" height="4.25347" transform="matrix(0.537843 0.794976 -0.783017 0.546685 35.8839 103.574)" fill="black"/>
<rect width="12.6677" height="4.25348" transform="matrix(0.537843 0.794976 -0.783017 0.546685 27.4104 91.2415)" fill="black"/>
<rect width="28.2284" height="4.31771" transform="matrix(0.539627 0.792792 -0.783909 0.544001 32.6021 87.71)" fill="black"/>
<rect width="12.6677" height="4.25348" transform="matrix(0.537844 0.794976 -0.783017 0.546684 113.971 49.894)" fill="black"/>
<rect width="12.6677" height="4.25348" transform="matrix(0.537844 0.794976 -0.783017 0.546684 105.496 37.562)" fill="black"/>
<rect width="28.2284" height="4.31771" transform="matrix(0.539627 0.792792 -0.783909 0.544001 110.688 34.0305)" fill="black"/>
<rect width="12.6677" height="4.25348" transform="matrix(0.537843 0.794976 -0.783017 0.546684 124.244 42.8311)" fill="black"/>
<rect width="12.6677" height="4.25348" transform="matrix(0.537844 0.794976 -0.783017 0.546684 115.771 30.4988)" fill="black"/>
<rect width="28.2284" height="4.31771" transform="matrix(0.539627 -0.792792 0.783909 0.544001 29.2177 59.9412)" fill="black"/>
<rect width="28.2284" height="4.31771" transform="matrix(0.539627 -0.792792 0.783909 0.544001 24.0807 56.4097)" fill="black"/>
<rect width="28.2284" height="4.31771" transform="matrix(0.539627 -0.792792 0.783909 0.544001 18.9435 52.8779)" fill="black"/>
</svg>
