<svg width="180" height="132" viewBox="0 0 180 132" fill="none" xmlns="http://www.w3.org/2000/svg">
<rect width="180" height="132" fill="white"/>
<path d="M61.8596 49.7493C57.5507 57.2142 56.3831 66.0855 58.6135 74.4116C60.8439 82.7377 66.2897 89.8365 73.7529 94.1464C81.2161 98.4563 90.0853 99.6242 98.4094 97.3932C106.734 95.1623 113.831 89.7152 118.14 82.2502C122.626 74.4777 119.963 64.5391 112.193 60.0517C104.422 55.5642 94.4859 58.2273 89.9995 65.9997C85.5132 73.7722 75.5769 76.4353 67.8063 71.9478C60.0356 67.4604 57.3732 57.5217 61.8596 49.7493Z" fill="#003E87"/>
<path d="M89.9991 65.9998C85.5127 73.7723 75.5765 76.4353 67.8058 71.9479C60.0352 67.4604 57.3728 57.5218 61.8592 49.7493C66.168 42.2844 73.2652 36.8373 81.5893 34.6063C89.9134 32.3753 98.7826 33.5433 106.246 37.8532C113.709 42.1631 119.155 49.2619 121.385 57.5879C123.614 65.9098 122.449 74.7764 118.146 82.239C122.623 74.4682 119.959 64.537 112.192 60.0517C104.422 55.5643 94.4855 58.2273 89.9991 65.9998Z" fill="#CE1127"/>
<rect width="14.7556" height="4.45011" transform="matrix(0.565906 -0.824353 0.823939 0.566497 144.392 101.588)" fill="black"/>
<rect width="14.7556" height="4.4501" transform="matrix(0.565906 -0.824353 0.823939 0.566498 134.354 116.198)" fill="black"/>
<rect width="14.7556" height="4.4501" transform="matrix(0.565905 -0.824353 0.823939 0.566498 138.307 97.4045)" fill="black"/>
<rect width="14.7556" height="4.4501" transform="matrix(0.565905 -0.824353 0.823939 0.566498 128.268 112.014)" fill="black"/>
<rect width="14.7556" height="4.4501" transform="matrix(0.565905 -0.824353 0.823939 0.566498 132.221 93.2207)" fill="black"/>
<rect width="14.7556" height="4.4501" transform="matrix(0.565905 -0.824353 0.823939 0.566498 122.182 107.83)" fill="black"/>
<rect width="32.4807" height="4.45324" transform="matrix(0.56605 0.824251 -0.824041 0.566345 27.2611 89.4243)" fill="black"/>
<rect width="14.7556" height="4.4501" transform="matrix(0.565906 0.824353 -0.823939 0.566498 43.3824 99.8503)" fill="black"/>
<rect width="14.7556" height="4.4501" transform="matrix(0.565905 0.824353 -0.823939 0.566498 33.344 85.2407)" fill="black"/>
<rect width="32.4807" height="4.45324" transform="matrix(0.56605 0.824251 -0.824041 0.566344 39.4329 81.0571)" fill="black"/>
<rect width="14.7556" height="4.45011" transform="matrix(0.565906 0.824353 -0.823939 0.566497 135.888 36.2585)" fill="black"/>
<rect width="14.7556" height="4.45011" transform="matrix(0.565906 0.824353 -0.823939 0.566498 125.849 21.6489)" fill="black"/>
<rect width="32.4807" height="4.45324" transform="matrix(0.566049 0.824251 -0.824041 0.566345 131.938 17.4653)" fill="black"/>
<rect width="14.7556" height="4.45011" transform="matrix(0.565906 0.824353 -0.823939 0.566497 148.059 27.8911)" fill="black"/>
<rect width="14.7556" height="4.45011" transform="matrix(0.565906 0.824353 -0.823939 0.566497 138.021 13.2815)" fill="black"/>
<rect width="32.4807" height="4.45324" transform="matrix(0.56605 -0.824251 0.824041 0.566344 35.7634 48.4211)" fill="black"/>
<rect width="32.4807" height="4.45324" transform="matrix(0.56605 -0.824251 0.824041 0.566344 29.6776 44.2373)" fill="black"/>
<rect width="32.4807" height="4.45324" transform="matrix(0.56605 -0.824251 0.824041 0.566344 23.5918 40.0537)" fill="black"/>
</svg>
