<svg width="150" height="150" viewBox="0 0 150 150" fill="none" xmlns="http://www.w3.org/2000/svg">
<g clip-path="url(#clip0)">
<rect width="150" height="150" fill="white"/>
<rect width="150" height="13.6364" fill="#B22234"/>
<rect y="27.2727" width="150" height="13.6364" fill="#B22234"/>
<rect y="54.5454" width="150" height="13.6364" fill="#B22234"/>
<rect y="81.8181" width="150" height="13.6364" fill="#B22234"/>
<rect y="109.091" width="150" height="13.6364" fill="#B22234"/>
<rect y="136.364" width="150" height="13.6364" fill="#B22234"/>
<rect width="76.1539" height="68.0769" fill="#3C3B6E"/>
<path d="M9.17304 47.5916L10.2554 50.8052L13.7578 50.8052L10.9243 52.7914L12.0066 56.0051L9.17304 54.0189L6.33948 56.0051L7.4218 52.7914L4.58824 50.8052L8.09072 50.8052L9.17304 47.5916Z" fill="white"/>
<path d="M28.456 47.5916L29.5383 50.8052L33.0408 50.8052L30.2072 52.7914L31.2896 56.0051L28.456 54.0189L25.6224 56.0051L26.7048 52.7914L23.8712 50.8052L27.3737 50.8052L28.456 47.5916Z" fill="white"/>
<path d="M47.739 47.5916L48.8213 50.8052L52.3238 50.8052L49.4902 52.7914L50.5725 56.0051L47.739 54.0189L44.9054 56.0051L45.9877 52.7914L43.1542 50.8052L46.6566 50.8052L47.739 47.5916Z" fill="white"/>
<path d="M67.0219 47.5916L68.1042 50.8052L71.6067 50.8052L68.7732 52.7914L69.8555 56.0051L67.0219 54.0189L64.1884 56.0051L65.2707 52.7914L62.4371 50.8052L65.9396 50.8052L67.0219 47.5916Z" fill="white"/>
<path d="M18.8139 38.2898L19.8962 41.5035L23.3987 41.5035L20.5652 43.4896L21.6475 46.7033L18.8139 44.7172L15.9803 46.7033L17.0627 43.4896L14.2291 41.5035L17.7316 41.5035L18.8139 38.2898Z" fill="white"/>
<path d="M38.0974 38.2898L39.1797 41.5035L42.6822 41.5035L39.8486 43.4896L40.9309 46.7033L38.0974 44.7172L35.2638 46.7033L36.3461 43.4896L33.5126 41.5035L37.015 41.5035L38.0974 38.2898Z" fill="white"/>
<path d="M57.3798 38.2898L58.4622 41.5035L61.9646 41.5035L59.1311 43.4896L60.2134 46.7033L57.3798 44.7172L54.5463 46.7033L55.6286 43.4896L52.795 41.5035L56.2975 41.5035L57.3798 38.2898Z" fill="white"/>
<path d="M9.17304 28.988L10.2554 32.2017H13.7578L10.9243 34.1879L12.0066 37.4016L9.17304 35.4154L6.33948 37.4016L7.4218 34.1879L4.58824 32.2017H8.09072L9.17304 28.988Z" fill="white"/>
<path d="M28.456 28.988L29.5383 32.2017H33.0408L30.2072 34.1879L31.2896 37.4016L28.456 35.4154L25.6224 37.4016L26.7048 34.1879L23.8712 32.2017H27.3737L28.456 28.988Z" fill="white"/>
<path d="M47.739 28.988L48.8213 32.2017H52.3238L49.4902 34.1879L50.5725 37.4016L47.739 35.4154L44.9054 37.4016L45.9877 34.1879L43.1542 32.2017H46.6566L47.739 28.988Z" fill="white"/>
<path d="M67.0219 28.988L68.1042 32.2017H71.6067L68.7732 34.1879L69.8555 37.4016L67.0219 35.4154L64.1884 37.4016L65.2707 34.1879L62.4371 32.2017H65.9396L67.0219 28.988Z" fill="white"/>
<path d="M18.8139 19.6863L19.8962 22.9H23.3987L20.5652 24.8861L21.6475 28.0998L18.8139 26.1136L15.9803 28.0998L17.0627 24.8861L14.2291 22.9H17.7316L18.8139 19.6863Z" fill="white"/>
<path d="M38.0974 19.6863L39.1797 22.9H42.6822L39.8486 24.8861L40.9309 28.0998L38.0974 26.1136L35.2638 28.0998L36.3461 24.8861L33.5126 22.9H37.015L38.0974 19.6863Z" fill="white"/>
<path d="M57.3798 19.6863L58.4622 22.9H61.9646L59.1311 24.8861L60.2134 28.0998L57.3798 26.1136L54.5463 28.0998L55.6286 24.8861L52.795 22.9H56.2975L57.3798 19.6863Z" fill="white"/>
<path d="M9.17304 10.3845L10.2554 13.5982H13.7578L10.9243 15.5844L12.0066 18.7981L9.17304 16.8119L6.33948 18.7981L7.4218 15.5844L4.58824 13.5982H8.09072L9.17304 10.3845Z" fill="white"/>
<path d="M28.456 10.3845L29.5383 13.5982H33.0408L30.2072 15.5844L31.2896 18.7981L28.456 16.8119L25.6224 18.7981L26.7048 15.5844L23.8712 13.5982H27.3737L28.456 10.3845Z" fill="white"/>
<path d="M47.739 10.3845L48.8213 13.5982H52.3238L49.4902 15.5844L50.5725 18.7981L47.739 16.8119L44.9054 18.7981L45.9877 15.5844L43.1542 13.5982H46.6566L47.739 10.3845Z" fill="white"/>
<path d="M67.0219 10.3845L68.1042 13.5982H71.6067L68.7732 15.5844L69.8555 18.7981L67.0219 16.8119L64.1884 18.7981L65.2707 15.5844L62.4371 13.5982H65.9396L67.0219 10.3845Z" fill="white"/>
</g>
<defs>
<clipPath id="clip0">
<rect width="150" height="150" fill="white"/>
</clipPath>
</defs>
</svg>
