<svg width="130" height="130" viewBox="0 0 130 130" fill="none" xmlns="http://www.w3.org/2000/svg">
<rect width="130" height="130" fill="black"/>
<rect width="130" height="130" fill="white"/>
<rect width="130" height="11.8182" fill="#B22234"/>
<rect y="23.6364" width="130" height="11.8182" fill="#B22234"/>
<rect y="47.2727" width="130" height="11.8182" fill="#B22234"/>
<rect y="70.9091" width="130" height="11.8182" fill="#B22234"/>
<rect y="94.5455" width="130" height="11.8182" fill="#B22234"/>
<rect y="118.182" width="130" height="11.8182" fill="#B22234"/>
<rect width="66" height="59" fill="#3C3B6E"/>
<path d="M7.94995 41.2462L8.88797 44.0314L11.9235 44.0314L9.46769 45.7528L10.4057 48.5379L7.94995 46.8166L5.4942 48.5379L6.43221 45.7528L3.97646 44.0314L7.01194 44.0314L7.94995 41.2462Z" fill="white"/>
<path d="M24.6619 41.2462L25.5999 44.0314L28.6354 44.0314L26.1796 45.7528L27.1176 48.5379L24.6619 46.8166L22.2061 48.5379L23.1441 45.7528L20.6884 44.0314L23.7239 44.0314L24.6619 41.2462Z" fill="white"/>
<path d="M41.3738 41.2462L42.3118 44.0314L45.3473 44.0314L42.8915 45.7528L43.8295 48.5379L41.3738 46.8166L38.918 48.5379L39.856 45.7528L37.4003 44.0314L40.4358 44.0314L41.3738 41.2462Z" fill="white"/>
<path d="M58.0857 41.2462L59.0237 44.0314L62.0592 44.0314L59.6034 45.7528L60.5415 48.5379L58.0857 46.8166L55.6299 48.5379L56.568 45.7528L54.1122 44.0314L57.1477 44.0314L58.0857 41.2462Z" fill="white"/>
<path d="M16.3054 33.1846L17.2434 35.9698H20.2789L17.8232 37.6911L18.7612 40.4763L16.3054 38.755L13.8497 40.4763L14.7877 37.6911L12.3319 35.9698H15.3674L16.3054 33.1846Z" fill="white"/>
<path d="M33.0178 33.1846L33.9558 35.9698H36.9913L34.5356 37.6911L35.4736 40.4763L33.0178 38.755L30.5621 40.4763L31.5001 37.6911L29.0443 35.9698H32.0798L33.0178 33.1846Z" fill="white"/>
<path d="M49.7293 33.1846L50.6673 35.9698H53.7027L51.247 37.6911L52.185 40.4763L49.7293 38.755L47.2735 40.4763L48.2115 37.6911L45.7558 35.9698H48.7912L49.7293 33.1846Z" fill="white"/>
<path d="M7.94995 25.123L8.88797 27.9082H11.9235L9.46769 29.6296L10.4057 32.4148L7.94995 30.6934L5.4942 32.4148L6.43221 29.6296L3.97646 27.9082H7.01194L7.94995 25.123Z" fill="white"/>
<path d="M24.6619 25.123L25.5999 27.9082H28.6354L26.1796 29.6296L27.1176 32.4148L24.6619 30.6934L22.2061 32.4148L23.1441 29.6296L20.6884 27.9082H23.7239L24.6619 25.123Z" fill="white"/>
<path d="M41.3738 25.123L42.3118 27.9082H45.3473L42.8915 29.6296L43.8295 32.4148L41.3738 30.6934L38.918 32.4148L39.856 29.6296L37.4003 27.9082H40.4358L41.3738 25.123Z" fill="white"/>
<path d="M58.0857 25.123L59.0237 27.9082H62.0592L59.6034 29.6296L60.5415 32.4148L58.0857 30.6934L55.6299 32.4148L56.568 29.6296L54.1122 27.9082H57.1477L58.0857 25.123Z" fill="white"/>
<path d="M16.3054 17.0615L17.2434 19.8467H20.2789L17.8232 21.5681L18.7612 24.3533L16.3054 22.6319L13.8497 24.3533L14.7877 21.5681L12.3319 19.8467H15.3674L16.3054 17.0615Z" fill="white"/>
<path d="M33.0178 17.0615L33.9558 19.8467H36.9913L34.5356 21.5681L35.4736 24.3533L33.0178 22.6319L30.5621 24.3533L31.5001 21.5681L29.0443 19.8467H32.0798L33.0178 17.0615Z" fill="white"/>
<path d="M49.7293 17.0615L50.6673 19.8467H53.7027L51.247 21.5681L52.185 24.3533L49.7293 22.6319L47.2735 24.3533L48.2115 21.5681L45.7558 19.8467H48.7912L49.7293 17.0615Z" fill="white"/>
<path d="M7.94995 9L8.88797 11.7852H11.9235L9.46769 13.5065L10.4057 16.2917L7.94995 14.5704L5.4942 16.2917L6.43221 13.5065L3.97646 11.7852H7.01194L7.94995 9Z" fill="white"/>
<path d="M24.6619 9L25.5999 11.7852H28.6354L26.1796 13.5065L27.1176 16.2917L24.6619 14.5704L22.2061 16.2917L23.1441 13.5065L20.6884 11.7852H23.7239L24.6619 9Z" fill="white"/>
<path d="M41.3738 9L42.3118 11.7852H45.3473L42.8915 13.5065L43.8295 16.2917L41.3738 14.5704L38.918 16.2917L39.856 13.5065L37.4003 11.7852H40.4358L41.3738 9Z" fill="white"/>
<path d="M58.0857 9L59.0237 11.7852H62.0592L59.6034 13.5065L60.5415 16.2917L58.0857 14.5704L55.6299 16.2917L56.568 13.5065L54.1122 11.7852H57.1477L58.0857 9Z" fill="white"/>
</svg>
