<svg width="180" height="130" viewBox="0 0 180 130" fill="none" xmlns="http://www.w3.org/2000/svg">
<rect width="180" height="130" fill="white"/>
<rect width="180" height="11.8182" fill="#B22234"/>
<rect y="23.6364" width="180" height="11.8182" fill="#B22234"/>
<rect y="47.2727" width="180" height="11.8182" fill="#B22234"/>
<rect y="70.9092" width="180" height="11.8182" fill="#B22234"/>
<rect y="94.5454" width="180" height="11.8182" fill="#B22234"/>
<rect y="118.182" width="180" height="11.8182" fill="#B22234"/>
<rect width="76.8" height="59.0769" fill="#3C3B6E"/>
<path d="M11.8155 42.8308L12.8103 45.8924H16.0294L13.4251 47.7846L14.4199 50.8462L11.8155 48.954L9.21119 50.8462L10.206 47.7846L7.60162 45.8924H10.8208L11.8155 42.8308Z" fill="white"/>
<path d="M29.5387 42.8308L30.5334 45.8924H33.7526L31.1483 47.7846L32.143 50.8462L29.5387 48.954L26.9343 50.8462L27.9291 47.7846L25.3248 45.8924H28.5439L29.5387 42.8308Z" fill="white"/>
<path d="M47.2618 42.8308L48.2566 45.8924H51.4757L48.8714 47.7846L49.8662 50.8462L47.2618 48.954L44.6575 50.8462L45.6523 47.7846L43.0479 45.8924H46.2671L47.2618 42.8308Z" fill="white"/>
<path d="M64.985 42.8308L65.9797 45.8924H69.1989L66.5945 47.7846L67.5893 50.8462L64.985 48.954L62.3806 50.8462L63.3754 47.7846L60.7711 45.8924H63.9902L64.985 42.8308Z" fill="white"/>
<path d="M20.6769 33.9692L21.6716 37.0308H24.8908L22.2864 38.923L23.2812 41.9846L20.6769 40.0924L18.0725 41.9846L19.0673 38.923L16.463 37.0308H19.6821L20.6769 33.9692Z" fill="white"/>
<path d="M38.4 33.9692L39.3948 37.0308H42.6139L40.0096 38.923L41.0043 41.9846L38.4 40.0924L35.7957 41.9846L36.7904 38.923L34.1861 37.0308H37.4052L38.4 33.9692Z" fill="white"/>
<path d="M56.1232 33.9692L57.1179 37.0308H60.3371L57.7327 38.923L58.7275 41.9846L56.1232 40.0924L53.5188 41.9846L54.5136 38.923L51.9092 37.0308H55.1284L56.1232 33.9692Z" fill="white"/>
<path d="M11.8155 25.1077L12.8103 28.1693H16.0294L13.4251 30.0614L14.4199 33.123L11.8155 31.2308L9.21119 33.123L10.206 30.0614L7.60162 28.1693H10.8208L11.8155 25.1077Z" fill="white"/>
<path d="M29.5387 25.1077L30.5334 28.1693H33.7526L31.1483 30.0614L32.143 33.123L29.5387 31.2308L26.9343 33.123L27.9291 30.0614L25.3248 28.1693H28.5439L29.5387 25.1077Z" fill="white"/>
<path d="M47.2618 25.1077L48.2566 28.1693H51.4757L48.8714 30.0614L49.8662 33.123L47.2618 31.2308L44.6575 33.123L45.6523 30.0614L43.0479 28.1693H46.2671L47.2618 25.1077Z" fill="white"/>
<path d="M64.985 25.1077L65.9797 28.1693H69.1989L66.5945 30.0614L67.5893 33.123L64.985 31.2308L62.3806 33.123L63.3754 30.0614L60.7711 28.1693H63.9902L64.985 25.1077Z" fill="white"/>
<path d="M20.6769 16.2462L21.6716 19.3078H24.8908L22.2864 21.2L23.2812 24.2616L20.6769 22.3694L18.0725 24.2616L19.0673 21.2L16.463 19.3078H19.6821L20.6769 16.2462Z" fill="white"/>
<path d="M38.4 16.2462L39.3948 19.3078H42.6139L40.0096 21.2L41.0043 24.2616L38.4 22.3694L35.7957 24.2616L36.7904 21.2L34.1861 19.3078H37.4052L38.4 16.2462Z" fill="white"/>
<path d="M56.1232 16.2462L57.1179 19.3078H60.3371L57.7327 21.2L58.7275 24.2616L56.1232 22.3694L53.5188 24.2616L54.5136 21.2L51.9092 19.3078H55.1284L56.1232 16.2462Z" fill="white"/>
<path d="M11.8155 7.38464L12.8103 10.4462H16.0294L13.4251 12.3384L14.4199 15.4L11.8155 13.5078L9.21119 15.4L10.206 12.3384L7.60162 10.4462H10.8208L11.8155 7.38464Z" fill="white"/>
<path d="M29.5387 7.38464L30.5334 10.4462H33.7526L31.1483 12.3384L32.143 15.4L29.5387 13.5078L26.9343 15.4L27.9291 12.3384L25.3248 10.4462H28.5439L29.5387 7.38464Z" fill="white"/>
<path d="M47.2618 7.38464L48.2566 10.4462H51.4757L48.8714 12.3384L49.8662 15.4L47.2618 13.5078L44.6575 15.4L45.6523 12.3384L43.0479 10.4462H46.2671L47.2618 7.38464Z" fill="white"/>
<path d="M64.985 7.38464L65.9797 10.4462H69.1989L66.5945 12.3384L67.5893 15.4L64.985 13.5078L62.3806 15.4L63.3754 12.3384L60.7711 10.4462H63.9902L64.985 7.38464Z" fill="white"/>
</svg>
