<svg width="180" height="132" viewBox="0 0 180 132" fill="none" xmlns="http://www.w3.org/2000/svg">
<rect width="180" height="132" fill="white"/>
<rect width="180" height="12" fill="#B22234"/>
<rect y="24" width="180" height="12" fill="#B22234"/>
<rect y="48" width="180" height="12" fill="#B22234"/>
<rect y="72" width="180" height="12" fill="#B22234"/>
<rect y="96" width="180" height="12" fill="#B22234"/>
<rect y="120" width="180" height="12" fill="#B22234"/>
<rect width="78.0971" height="59.9858" fill="#3C3B6E"/>
<path d="M12.0149 43.4897L13.0264 46.5984H16.3L13.6516 48.5197L14.6632 51.6284L12.0149 49.7071L9.36655 51.6284L10.3781 48.5197L7.7298 46.5984H11.0033L12.0149 43.4897Z" fill="white"/>
<path d="M30.0373 43.4897L31.0489 46.5984H34.3224L31.6741 48.5197L32.6857 51.6284L30.0373 49.7071L27.389 51.6284L28.4006 48.5197L25.7523 46.5984H29.0258L30.0373 43.4897Z" fill="white"/>
<path d="M48.0598 43.4897L49.0714 46.5984H52.3449L49.6966 48.5197L50.7081 51.6284L48.0598 49.7071L45.4115 51.6284L46.423 48.5197L43.7747 46.5984H47.0482L48.0598 43.4897Z" fill="white"/>
<path d="M66.082 43.4897L67.0936 46.5984H70.3671L67.7188 48.5197L68.7303 51.6284L66.082 49.7071L63.4337 51.6284L64.4453 48.5197L61.7969 46.5984H65.0704L66.082 43.4897Z" fill="white"/>
<path d="M21.0261 34.4919L22.0377 37.6006L25.3112 37.6006L22.6629 39.5219L23.6744 42.6306L21.0261 40.7093L18.3778 42.6306L19.3894 39.5219L16.741 37.6006L20.0145 37.6006L21.0261 34.4919Z" fill="white"/>
<path d="M39.0486 34.4919L40.0601 37.6006L43.3337 37.6006L40.6853 39.5219L41.6969 42.6306L39.0486 40.7093L36.4002 42.6306L37.4118 39.5219L34.7635 37.6006L38.037 37.6006L39.0486 34.4919Z" fill="white"/>
<path d="M57.071 34.4919L58.0826 37.6006L61.3561 37.6006L58.7078 39.5219L59.7194 42.6306L57.071 40.7093L54.4227 42.6306L55.4343 39.5219L52.7859 37.6006L56.0595 37.6006L57.071 34.4919Z" fill="white"/>
<path d="M12.0149 25.4941L13.0264 28.6028H16.3L13.6516 30.5241L14.6632 33.6328L12.0149 31.7115L9.36655 33.6328L10.3781 30.5241L7.7298 28.6028H11.0033L12.0149 25.4941Z" fill="white"/>
<path d="M30.0373 25.4941L31.0489 28.6028H34.3224L31.6741 30.5241L32.6857 33.6328L30.0373 31.7115L27.389 33.6328L28.4006 30.5241L25.7523 28.6028H29.0258L30.0373 25.4941Z" fill="white"/>
<path d="M48.0598 25.4941L49.0714 28.6028H52.3449L49.6966 30.5241L50.7081 33.6328L48.0598 31.7115L45.4115 33.6328L46.423 30.5241L43.7747 28.6028H47.0482L48.0598 25.4941Z" fill="white"/>
<path d="M66.082 25.4941L67.0936 28.6028H70.3671L67.7188 30.5241L68.7303 33.6328L66.082 31.7115L63.4337 33.6328L64.4453 30.5241L61.7969 28.6028H65.0704L66.082 25.4941Z" fill="white"/>
<path d="M21.0261 16.4961L22.0377 19.6048H25.3112L22.6629 21.5261L23.6744 24.6347L21.0261 22.7135L18.3778 24.6347L19.3894 21.5261L16.741 19.6048H20.0145L21.0261 16.4961Z" fill="white"/>
<path d="M39.0486 16.4961L40.0601 19.6048H43.3337L40.6853 21.5261L41.6969 24.6347L39.0486 22.7135L36.4002 24.6347L37.4118 21.5261L34.7635 19.6048H38.037L39.0486 16.4961Z" fill="white"/>
<path d="M57.071 16.4961L58.0826 19.6048H61.3561L58.7078 21.5261L59.7194 24.6347L57.071 22.7135L54.4227 24.6347L55.4343 21.5261L52.7859 19.6048H56.0595L57.071 16.4961Z" fill="white"/>
<path d="M12.0149 7.49829L13.0264 10.607H16.3L13.6516 12.5283L14.6632 15.6369L12.0149 13.7157L9.36655 15.6369L10.3781 12.5283L7.7298 10.607H11.0033L12.0149 7.49829Z" fill="white"/>
<path d="M30.0373 7.49829L31.0489 10.607H34.3224L31.6741 12.5283L32.6857 15.6369L30.0373 13.7157L27.389 15.6369L28.4006 12.5283L25.7523 10.607H29.0258L30.0373 7.49829Z" fill="white"/>
<path d="M48.0598 7.49829L49.0714 10.607H52.3449L49.6966 12.5283L50.7081 15.6369L48.0598 13.7157L45.4115 15.6369L46.423 12.5283L43.7747 10.607H47.0482L48.0598 7.49829Z" fill="white"/>
<path d="M66.082 7.49829L67.0936 10.607H70.3671L67.7188 12.5283L68.7303 15.6369L66.082 13.7157L63.4337 15.6369L64.4453 12.5283L61.7969 10.607H65.0704L66.082 7.49829Z" fill="white"/>
</svg>
