<svg width="156" height="146" viewBox="0 0 156 146" fill="none" xmlns="http://www.w3.org/2000/svg">
<path d="M63 19C62.4477 19 62 19.4477 62 20C62 20.5523 62.4477 21 63 21V19ZM13 42C13 41.4477 12.5523 41 12 41C11.4477 41 11 41.4477 11 42H13ZM142 119H22V121H142V119ZM151 30V102.5H153V30H151ZM151 102.5V110H153V102.5H151ZM13 110V102.5H11V110H13ZM152 101.5H12V103.5H152V101.5ZM22 119C17.0294 119 13 114.971 13 110H11C11 116.075 15.9249 121 22 121V119ZM142 121C148.075 121 153 116.075 153 110H151C151 114.971 146.971 119 142 119V121ZM142 21C146.971 21 151 25.0294 151 30H153C153 23.9249 148.075 19 142 19V21ZM63 21H142V19H63V21ZM13 102.5V42H11V102.5H13Z" fill="#FA3E31"/>
<circle cx="82" cy="111" r="3" stroke="#FA3E31" stroke-width="2"/>
<path d="M89 120H75V132H71C69.8954 132 69 132.895 69 134V136C69 137.105 69.8954 138 71 138H93C94.1046 138 95 137.105 95 136V134C95 132.895 94.1046 132 93 132H89V120Z" stroke="#FA3E31" stroke-width="2"/>
<path d="M120.053 102.154V69.1053M120.053 102.154H129.526V69.1053C129.526 63.8731 125.285 59.6316 120.053 59.6316H71.7368C69.1208 59.6316 67 61.7523 67 64.3684V64.3684C67 66.9845 69.1208 69.1053 71.7368 69.1053H93.5263V102.154H120.053Z" stroke="#FA3E31" stroke-width="2"/>
<circle cx="106.789" cy="44.4737" r="9.47368" stroke="#FA3E31" stroke-width="2"/>
<path fill-rule="evenodd" clip-rule="evenodd" d="M16.0074 18V29.8462H21.5276V32H14V18H16.0074Z" fill="#FA3E31"/>
<path fill-rule="evenodd" clip-rule="evenodd" d="M27.5497 18V32H25.5424V18H27.5497Z" fill="#FA3E31"/>
<path d="M36.2601 28.0058L33.649 18H31.5645L35.2179 32H37.3024L40.9558 18H38.8712L36.2601 28.0058Z" fill="#FA3E31"/>
<path fill-rule="evenodd" clip-rule="evenodd" d="M44.9706 18H53V20.1538H46.9779V23.9231H51.9964V26.0769H46.9779V29.8462H53V32H44.9706V18Z" fill="#FA3E31"/>
<rect x="4" y="8" width="59" height="34" rx="5" stroke="#FA3E31" stroke-width="2"/>
</svg>
