<svg width="122" height="48" viewBox="0 0 122 48" fill="none" xmlns="http://www.w3.org/2000/svg">
<rect x="7.44751" y="23.2781" width="98.8322" height="13.3018" fill="#FA3E31"/>
<path d="M97.7192 33.5195C97.7092 33.5604 97.7019 33.6047 97.7019 33.658V35.7138C97.7019 35.7138 97.9176 36.5799 98.4576 36.5799H105.553C106.093 36.5799 106.309 35.7138 106.309 35.7138V33.658C106.309 33.6047 106.301 33.5604 106.291 33.5195H97.7192Z" fill="#FA3E31"/>
<path d="M105.494 26.8037L98.5761 24.4404L98.4576 29.1873C98.4576 29.1873 98.3853 29.8906 98.6814 29.8366C98.6814 29.8366 99.0233 32.5195 98.5826 33.1314H105.428C104.987 32.5195 105.329 29.8366 105.329 29.8366C105.625 29.8906 105.553 29.1873 105.553 29.1873L105.494 26.8037Z" fill="#FA3E31"/>
<path d="M120.757 8.76097H106.56C103.613 8.76097 103.914 8.03762 103.914 8.03762C103.914 5.16736 103.447 4.24004 103.079 3.95509C102.818 3.65048 102.438 3.32544 102.005 3.32544C101.573 3.32544 101.193 3.65048 100.931 3.95509C100.563 4.24004 100.097 5.16736 100.097 8.03762C100.097 8.03762 100.397 8.76097 97.45 8.76097L83.2535 8.76097C83.2535 8.76097 83.1331 9.48471 84.4564 9.42456C84.4564 9.42456 84.336 9.78623 85.3586 9.72608H88.1452C88.1452 9.72608 87.5665 13.2838 97.7511 13.2838C97.7511 13.2838 98.4126 13.4045 98.4126 15.093L98.1964 23.7589L105.879 26.3836L105.598 15.093C105.598 13.4045 106.259 13.2838 106.259 13.2838C116.444 13.2838 115.865 9.72608 115.865 9.72608H118.652C119.674 9.78623 119.554 9.42456 119.554 9.42456C120.877 9.48471 120.757 8.76097 120.757 8.76097Z" fill="#FA3E31"/>
<path d="M75.4537 34.0958V33.1067V32.8345V30.9108C75.4537 29.9324 76.2489 29.1389 77.2304 29.1389C78.211 29.1389 79.0071 29.9324 79.0071 30.9108V32.8345V33.1067V34.0958C79.0071 34.1434 79.0046 34.1906 79.0013 34.2373H87.3902V32.8345H85.8079V31.1375L85.3551 30.3684L84.6059 30.7755H84.1751L83.8567 23.2384H83.5847V19.7526L83.7654 19.0961L83.4715 18.5529C83.4715 18.5529 83.3645 12.4207 82.5783 9.61418V6.98887C82.5783 6.98887 83.0618 6.65667 82.7753 6.1743L82.291 5.63112L81.8075 6.1743C81.5202 6.65708 82.0037 6.98887 82.0037 6.98887V9.61418C81.2175 12.4207 81.1105 18.5529 81.1105 18.5529L80.8912 18.9595V18.5674L81.0873 17.8525L80.7676 17.2609C80.7676 17.2609 80.6511 10.5843 79.7949 7.52915V4.67093C79.7949 4.67093 80.3215 4.30936 80.0089 3.78356L79.4819 3.19239L78.9553 3.78356C78.6426 4.30936 79.1692 4.67093 79.1692 4.67093V7.52915C78.4353 10.147 78.245 15.4233 78.2056 16.8807C78.0679 16.5419 77.7781 15.7654 77.7781 15.2392V15.0687L77.9709 14.9223V14.6282H77.8237L77.6861 14.2695H77.5152H77.2652H77.1943H76.9443H76.7739L76.6383 14.6282H76.4911V14.9223L76.6835 15.0687V15.2392C76.6835 15.7654 76.3937 16.5419 76.256 16.8807C76.2162 15.4233 76.0255 10.147 75.292 7.52915V4.67093C75.292 4.67093 75.819 4.30936 75.5059 3.78355L74.9793 3.19238L74.4523 3.78355C74.1397 4.30936 74.6663 4.67093 74.6663 4.67093V7.52915C73.8101 10.5847 73.6936 17.2609 73.6936 17.2609L73.3739 17.8525L73.57 18.5674V18.9595L73.3502 18.5529C73.3502 18.5529 73.2428 12.4207 72.4567 9.61417V6.98886C72.4567 6.98886 72.9406 6.65667 72.6532 6.1743L72.1694 5.63112L71.6855 6.1743C71.3981 6.65708 71.882 6.98886 71.882 6.98886V9.61417C71.0959 12.4207 70.9885 18.5529 70.9885 18.5529L70.6949 19.0961L70.8749 19.7526V23.2384H70.6029L70.2853 30.7755H69.854L69.1056 30.3684L68.652 31.1375V32.8345H67.0702V34.2373H75.4595C75.4558 34.1901 75.4537 34.1434 75.4537 34.0958H75.4537ZM83.0261 19.7538C83.0261 19.6785 83.0875 19.6181 83.163 19.6181C83.2376 19.6181 83.299 19.6785 83.299 19.7538V22.7415C83.299 22.816 83.2376 22.8772 83.163 22.8772C83.0875 22.8772 83.0261 22.816 83.0261 22.7415V19.7538H83.0261ZM82.7869 14.3299C82.7869 14.2968 82.8143 14.2699 82.8474 14.2699C82.8806 14.2699 82.9076 14.2968 82.9076 14.3299V18.0635C82.9076 18.0966 82.881 18.1235 82.8474 18.1235C82.8139 18.1235 82.7869 18.0966 82.7869 18.0635V14.3299ZM82.2114 13.0876C82.2114 13.0441 82.247 13.0081 82.2906 13.0081C82.3349 13.0081 82.3706 13.0441 82.3706 13.0876V18.0432C82.3706 18.0871 82.3349 18.1231 82.2906 18.1231C82.247 18.1231 82.2114 18.0871 82.2114 18.0432V13.0876ZM82.1546 19.7538C82.1546 19.6785 82.2151 19.6181 82.2906 19.6181C82.366 19.6181 82.4266 19.6785 82.4266 19.7538V22.7415C82.4266 22.816 82.366 22.8772 82.2906 22.8772C82.2151 22.8772 82.1546 22.816 82.1546 22.7415V19.7538ZM81.8768 24.331C81.8768 24.103 82.0621 23.9181 82.2906 23.9181C82.519 23.9181 82.7044 24.103 82.7044 24.331V25.2312H81.8768V24.331H81.8768ZM81.6736 14.3299C81.6736 14.2968 81.7001 14.2699 81.7341 14.2699C81.7665 14.2699 81.7943 14.2968 81.7943 14.3299V18.0635C81.7943 18.0966 81.7669 18.1235 81.7341 18.1235C81.7001 18.1235 81.6736 18.0966 81.6736 18.0635V14.3299ZM81.283 19.7538C81.283 19.6785 81.3436 19.6181 81.419 19.6181C81.4937 19.6181 81.555 19.6785 81.555 19.7538V22.7415C81.555 22.816 81.4937 22.8772 81.419 22.8772C81.3436 22.8772 81.283 22.816 81.283 22.7415V19.7538ZM80.8904 19.3654L80.9965 19.753V22.363H80.8904V19.3654ZM80.2813 18.5686C80.2813 18.4871 80.3484 18.4209 80.4293 18.4209C80.5118 18.4209 80.5781 18.4871 80.5781 18.5686V21.8215C80.5781 21.903 80.5118 21.9692 80.4293 21.9692C80.3484 21.9692 80.2813 21.903 80.2813 21.8215V18.5686ZM80.0213 12.6631C80.0213 12.6271 80.0511 12.5977 80.0868 12.5977C80.1233 12.5977 80.1523 12.6267 80.1523 12.6631V16.7281C80.1523 16.7641 80.1233 16.7934 80.0868 16.7934C80.0511 16.7934 80.0213 16.7645 80.0213 16.7281V12.6631ZM79.3939 11.3107C79.3939 11.2627 79.4329 11.2239 79.4806 11.2239C79.5291 11.2239 79.5681 11.2627 79.5681 11.3107V16.7061C79.5681 16.7541 79.5291 16.793 79.4806 16.793C79.4329 16.793 79.3939 16.7541 79.3939 16.7061V11.3107ZM79.333 18.5686C79.333 18.4871 79.3993 18.4209 79.4802 18.4209C79.5619 18.4209 79.629 18.4871 79.629 18.5686V21.8215C79.629 21.903 79.5619 21.9692 79.4802 21.9692C79.3993 21.9692 79.333 21.903 79.333 21.8215V18.5686ZM79.0303 23.552C79.0303 23.3038 79.2318 23.1027 79.4806 23.1027C79.7302 23.1027 79.9317 23.3038 79.9317 23.552V24.5312H79.0303V23.552ZM78.8093 12.6631C78.8093 12.6271 78.8383 12.5977 78.8748 12.5977C78.9113 12.5977 78.9403 12.6267 78.9403 12.6631V16.7281C78.9403 16.7641 78.9113 16.7934 78.8748 16.7934C78.8383 16.7934 78.8093 16.7645 78.8093 16.7281V12.6631ZM78.3839 18.5686C78.3839 18.4871 78.4494 18.4209 78.5311 18.4209C78.6136 18.4209 78.6799 18.4871 78.6799 18.5686V21.8215C78.6799 21.903 78.6136 21.9692 78.5311 21.9692C78.4494 21.9692 78.3839 21.903 78.3839 21.8215V18.5686ZM75.78 18.5686C75.78 18.4871 75.8463 18.4209 75.9284 18.4209C76.0101 18.4209 76.0765 18.4871 76.0765 18.5686V21.8215C76.0765 21.903 76.0101 21.9692 75.9284 21.9692C75.8463 21.9692 75.78 21.903 75.78 21.8215V18.5686ZM75.52 12.6631C75.52 12.6271 75.549 12.5977 75.5855 12.5977C75.6216 12.5977 75.6515 12.6267 75.6515 12.6631V16.7281C75.6515 16.7641 75.622 16.7934 75.5855 16.7934C75.549 16.7934 75.52 16.7645 75.52 16.7281V12.6631ZM72.0893 13.0876C72.0893 13.0441 72.125 13.0081 72.1694 13.0081C72.2133 13.0081 72.2494 13.0441 72.2494 13.0876V18.0432C72.2494 18.0871 72.2133 18.1231 72.1694 18.1231C72.125 18.1231 72.0893 18.0871 72.0893 18.0432V13.0876ZM72.0334 19.7538C72.0334 19.6785 72.0939 19.6181 72.1694 19.6181C72.2444 19.6181 72.3054 19.6785 72.3054 19.7538V22.7415C72.3054 22.816 72.2448 22.8772 72.1694 22.8772C72.0939 22.8772 72.0334 22.816 72.0334 22.7415V19.7538ZM71.4338 22.742C71.4338 22.8164 71.3729 22.8777 71.2974 22.8777C71.2223 22.8777 71.1614 22.8164 71.1614 22.742V19.7538C71.1614 19.6785 71.2223 19.6181 71.2974 19.6181C71.3729 19.6181 71.4338 19.6785 71.4338 19.7538V22.742ZM71.673 18.0635C71.673 18.0966 71.6461 18.1235 71.6125 18.1235C71.5789 18.1235 71.552 18.0966 71.552 18.0635V14.3299C71.552 14.2968 71.5789 14.2699 71.6125 14.2699C71.6461 14.2699 71.673 14.2968 71.673 14.3299V18.0635ZM72.5836 25.2312H71.7551V24.331C71.7551 24.103 71.9405 23.9181 72.1694 23.9181C72.3978 23.9181 72.5836 24.103 72.5836 24.331V25.2312ZM72.7868 18.0635C72.7868 18.0966 72.7594 18.1235 72.7262 18.1235C72.6926 18.1235 72.6657 18.0966 72.6657 18.0635V14.3299C72.6657 14.2968 72.6926 14.2699 72.7262 14.2699C72.7594 14.2699 72.7868 14.2968 72.7868 14.3299V18.0635ZM73.1773 22.742C73.1773 22.8164 73.1164 22.8777 73.0413 22.8777C72.9659 22.8777 72.9049 22.8164 72.9049 22.742V19.7538C72.9049 19.6785 72.9659 19.6181 73.0413 19.6181C73.1164 19.6181 73.1773 19.6785 73.1773 19.7538V22.742ZM73.57 22.3626H73.4639V19.7526L73.57 19.365V22.3626ZM74.8923 11.3107C74.8923 11.2627 74.9312 11.2239 74.9793 11.2239C75.0274 11.2239 75.0664 11.2627 75.0664 11.3107V16.7061C75.0664 16.7541 75.0274 16.793 74.9793 16.793C74.9312 16.793 74.8923 16.7541 74.8923 16.7061V11.3107ZM74.8313 18.5686C74.8313 18.4871 74.8977 18.4209 74.9793 18.4209C75.061 18.4209 75.1274 18.4871 75.1274 18.5686V21.8215C75.1274 21.903 75.061 21.9692 74.9793 21.9692C74.8977 21.9692 74.8313 21.903 74.8313 21.8215V18.5686ZM74.1783 21.8215C74.1783 21.903 74.1119 21.9692 74.0302 21.9692C73.9486 21.9692 73.8818 21.903 73.8818 21.8215V18.5686C73.8818 18.4871 73.9481 18.4209 74.0302 18.4209C74.1123 18.4209 74.1783 18.4871 74.1783 18.5686V21.8215ZM74.4387 16.7281C74.4387 16.7641 74.4092 16.7934 74.3727 16.7934C74.3362 16.7934 74.3072 16.7645 74.3072 16.7281V12.6631C74.3072 12.6271 74.3367 12.5977 74.3727 12.5977C74.4088 12.5977 74.4387 12.6267 74.4387 12.6631V16.7281ZM75.43 24.5316H74.5282V23.5524C74.5282 23.3042 74.7301 23.1031 74.9789 23.1031C75.2277 23.1031 75.4296 23.3042 75.4296 23.5524V24.5316H75.43Z" fill="#FA3E31"/>
<path d="M65.6016 34.5732H88.8584V35.2463H65.6016V34.5732Z" fill="#FA3E31"/>
<path d="M64.6281 35.7747H89.832V36.4469H64.6281V35.7747Z" fill="#FA3E31"/>
<path d="M52.5062 16.0949C52.7074 16.0088 52.9346 15.8893 52.9621 15.7798C52.9773 15.7185 52.9857 15.6184 52.9902 15.5272V16.1865L52.5062 16.0949ZM53.835 15.7798C53.8621 15.8893 54.0895 16.0088 54.2908 16.0949L53.8068 16.1865V15.5277C53.8114 15.6187 53.8196 15.7185 53.835 15.7798ZM61.4505 16.0949C61.6517 16.0088 61.879 15.8893 61.9063 15.78C61.9217 15.7185 61.9299 15.6186 61.9345 15.5275V16.1865L61.4505 16.0949ZM62.7791 15.78C62.8065 15.8893 63.0339 16.0088 63.2351 16.0949L62.7511 16.1865V15.5273C62.7556 15.6184 62.7639 15.7185 62.7791 15.78ZM66.1793 16.2798H66.1789C65.221 16.3852 63.7343 16.4299 63.12 16.4299C63.0453 16.4299 62.9177 16.4299 62.7511 16.4299V16.2798H63.245V16.0992C63.2995 16.1223 63.352 16.143 63.3974 16.1601L63.448 16.0259C63.1883 15.9277 62.9404 15.7957 62.9182 15.745C62.8943 15.6492 62.889 15.4065 62.889 15.3209H62.7511V15.1929H61.9345V15.3209H61.7966C61.7966 15.4065 61.7913 15.6492 61.7679 15.7433C61.7452 15.7957 61.4973 15.9277 61.2376 16.0259L61.2882 16.1601C61.3336 16.143 61.3861 16.1223 61.4404 16.0992V16.2798H61.9345V16.4299C60.3598 16.4299 57.8706 16.4299 57.8706 16.4299C57.8706 16.4299 55.3814 16.4299 53.8068 16.4299V16.2798H54.3007V16.0992C54.3552 16.1223 54.4076 16.143 54.4531 16.1601L54.5037 16.0259C54.244 15.9277 53.9961 15.7957 53.9739 15.745C53.9499 15.6492 53.9447 15.4065 53.9447 15.3209H53.8068V15.1929H52.9902V15.3209H52.8523C52.8523 15.4063 52.8472 15.649 52.8236 15.7433C52.8009 15.7957 52.553 15.9277 52.2933 16.0259L52.3439 16.1601C52.3893 16.143 52.4417 16.1223 52.4962 16.0992V16.2798H52.9902V16.4299C52.8236 16.4299 52.696 16.4299 52.6213 16.4299C52.0069 16.4299 50.5201 16.3852 49.5624 16.2798H49.562V17.1844H52.9902V28.0666H53.8068V17.1844H61.9345V28.0666H62.7511V17.1844H66.1792V16.2798" fill="#FA3E31"/>
<path d="M62.425 19.3186V19.6685H62.5897V28.0667H63.4065V19.6685H63.5712V19.3186H62.425ZM52.1702 19.6685H52.3349V28.0667H53.1515V19.6685H53.3164V19.3186H52.1702V19.6685ZM67.2418 13.2002C65.9924 13.3987 63.2876 13.7488 59.9019 13.7144L59.7585 13.9535L55.9829 13.9535L55.8396 13.7144C52.4538 13.7488 49.749 13.3987 48.4996 13.2002L48.6987 13.7799L49.3704 13.9535L49.5705 14.6963C49.5705 14.6963 50.2146 14.8189 52.7159 14.8993V15.2316C52.7159 15.2934 53.0215 15.3435 53.3986 15.3435C53.7756 15.3435 54.0812 15.2934 54.0812 15.2316V14.9346C55.1094 14.9551 56.3581 14.9683 57.8707 14.9683C59.3835 14.9683 60.6321 14.9551 61.6602 14.9346V15.2316C61.6602 15.2934 61.9658 15.3435 62.3429 15.3435C62.7199 15.3435 63.0256 15.2934 63.0256 15.2316V14.8993C65.527 14.8189 66.171 14.6963 66.171 14.6963L66.371 13.9535L67.0428 13.7799L67.2418 13.2002ZM66.3362 16.0932V16.2616C65.3921 16.3802 63.7689 16.43 63.12 16.43C62.4712 16.43 57.8707 16.43 57.8707 16.43C57.8707 16.43 53.2703 16.43 52.6214 16.43C51.9724 16.43 50.3494 16.3802 49.4053 16.2616V16.0932C49.4053 16.0932 50.6546 16.2799 52.4963 16.2799C54.338 16.2799 57.8707 16.2799 57.8707 16.2799C57.8707 16.2799 61.4034 16.2799 63.2451 16.2799C65.0868 16.2799 66.3362 16.0932 66.3362 16.0932Z" fill="#FA3E31"/>
<path d="M62.1643 19.1238C62.1831 19.2933 62.425 19.3184 62.425 19.3184H63.5712C63.5712 19.3184 63.8131 19.2933 63.8321 19.1238C63.8321 19.1238 63.7568 19.1867 63.4812 19.1867C63.3647 19.1867 63.1766 19.1776 62.9982 19.1711C62.8197 19.1776 62.6316 19.1867 62.5151 19.1867C62.2395 19.1867 62.1643 19.1238 62.1643 19.1238ZM68.2785 12.3213C67.2257 12.6363 64.3778 13.2302 57.8707 13.2302V13.2304V13.2302C51.3637 13.2302 48.5157 12.6363 47.463 12.3213L47.4567 12.3208L47.7483 13.0684C47.7483 13.0684 51.1376 13.762 55.8396 13.7142L55.9829 13.9534L59.7585 13.9534L59.9019 13.7142C64.6038 13.762 67.9931 13.0684 67.9931 13.0684L68.2848 12.3208L68.2785 12.3213ZM53.5771 19.1238C53.5583 19.2933 53.3164 19.3184 53.3164 19.3184H52.1702C52.1702 19.3184 51.9281 19.2933 51.9093 19.1238C51.9095 19.1238 51.9847 19.1867 52.2602 19.1867C52.3768 19.1867 52.5649 19.1776 52.7432 19.1711C52.9218 19.1776 53.1098 19.1867 53.2264 19.1867C53.5019 19.1867 53.5771 19.1238 53.5771 19.1238Z" fill="#FA3E31"/>
<path d="M62.1644 19.124C62.1644 19.124 62.2395 19.1868 62.5151 19.1868C62.6316 19.1868 62.8197 19.1777 62.9983 19.1712C63.1766 19.1777 63.3647 19.1868 63.4812 19.1868C63.757 19.1868 63.8321 19.124 63.8321 19.124C63.8321 19.124 63.2793 18.9922 62.9983 18.8792C62.7172 18.9922 62.1644 19.124 62.1644 19.124ZM57.8707 12.8055C49.0156 12.8055 46.9368 11.7056 46.9368 11.7056V12.1304C46.9368 12.1304 49.0156 13.2303 57.8707 13.2303C66.7259 13.2303 68.8047 12.1304 68.8047 12.1304V11.7056C68.8047 11.7056 66.7259 12.8055 57.8707 12.8055ZM53.5771 19.124C53.5771 19.124 53.5019 19.1868 53.2264 19.1868C53.1098 19.1868 52.9217 19.1777 52.7432 19.1712C52.5649 19.1777 52.3768 19.1868 52.2602 19.1868C51.9845 19.1868 51.9093 19.124 51.9093 19.124C51.9093 19.124 52.4622 18.9922 52.7432 18.8792C53.0243 18.9922 53.5771 19.124 53.5771 19.124Z" fill="#FA3E31"/>
<path d="M37.5747 30.7092L35.3675 31.7803C35.6345 31.368 36.054 30.7061 36.5702 29.8475L37.5747 30.7092ZM37.8393 27.6624L38.6965 28.7332L36.8037 29.4568C37.1224 28.9202 37.4711 28.3186 37.8393 27.6624ZM38.336 22.7482H38.8438V24.4947H38.336V22.7482ZM40.5631 22.3608L40.7139 22.4979H40.4996C40.5209 22.4524 40.5418 22.4063 40.5631 22.3608ZM41.6381 19.9254C41.6639 19.8631 41.6898 19.8018 41.7152 19.7405L41.7261 19.7566L42.251 20.2629L41.3502 20.6048C41.4472 20.3798 41.5432 20.1534 41.6381 19.9254ZM48.6609 20.5937L47.7897 20.2629L48.3098 19.7614C48.3325 19.8159 48.3551 19.8702 48.3782 19.9254C48.4714 20.1497 48.5656 20.3724 48.6609 20.5937ZM49.3268 22.4979L49.4605 22.3766C49.479 22.417 49.4979 22.4578 49.5167 22.4979H49.3268ZM51.68 24.4947H51.1725V22.7482H51.68V24.4947ZM51.2849 28.7332L52.1623 27.6368C52.5396 28.3098 52.897 28.9259 53.2227 29.474L51.2849 28.7332ZM54.6642 31.8049L52.4067 30.7092L53.4338 29.8276C53.9658 30.7125 54.3965 31.3913 54.6642 31.8049ZM38.9565 31.8945C38.9551 31.9535 38.9548 32.0131 38.9541 32.0727H35.3431L37.7838 30.8884L38.9565 31.8945H38.9565ZM39.1398 30.2302C39.0518 30.6532 38.9953 31.1009 38.9694 31.5701L38.0334 30.7671L39.1398 30.2302ZM39.3255 29.5194C39.2843 29.6481 39.2469 29.7798 39.2127 29.9142L37.8246 30.5879L36.8149 29.7219L38.8616 28.9394L39.3255 29.5194ZM39.7003 28.619C39.5977 28.8147 39.5056 29.0192 39.4249 29.2334L39.1129 28.8434L39.7003 28.619ZM39.5199 26.9769L40.2266 27.82C40.1087 27.9632 40.0001 28.1148 39.8993 28.2734L38.9475 28.6372L38.0871 27.5617L39.5199 26.9769ZM39.3499 26.7741L38.0361 27.3101C38.262 26.9032 38.4937 26.477 38.7297 26.0341L39.3499 26.7741ZM38.9384 25.6393H42.1309L39.5987 26.6724L38.8588 25.7899C38.8853 25.7397 38.9119 25.6898 38.9384 25.6393ZM40.3523 24.4947H39.8581V22.7482H40.3523V24.4947ZM41.1069 22.7482V24.4947H40.612V22.7482H41.1069ZM43.37 21.3428L42.2967 21.6393L41.592 20.7823L42.4513 20.4563L43.37 21.3428ZM44.0391 19.8533C43.8998 20.3293 43.7511 20.7813 43.5934 21.2041L42.7149 20.3562L44.0391 19.8533ZM43.7075 19.7102L42.5149 20.1629L42.0458 19.7102H43.7075ZM42.0014 19.0627C42.0203 19.0186 42.0388 18.9748 42.0573 18.931H47.9112L48.1604 19.4595H41.8332C41.8905 19.3245 41.9463 19.1924 42.0014 19.0627ZM42.6122 18.4025L42.3341 18.6804H42.1634C42.2363 18.5076 42.3075 18.3382 42.3767 18.1704L42.6122 18.4025ZM42.4681 17.9471H43.0688L42.7327 18.2823L42.4461 18.0003C42.4534 17.9825 42.4608 17.9646 42.4681 17.9471ZM43.9728 9.89348L44.2698 10.2751L43.9372 10.5914C43.9501 10.3664 43.9619 10.1336 43.9728 9.89348ZM44.0153 8.76875L44.3193 9.1285L43.992 9.44413C44.0003 9.22518 44.0084 9.00017 44.0153 8.76875ZM44.0555 6.64259L44.3389 7.002L44.0474 7.3119C44.0506 7.09362 44.0534 6.87097 44.0555 6.64259H44.0555ZM44.0614 5.54144L44.3804 5.93488L44.0579 6.3593C44.0597 6.09353 44.0611 5.82102 44.0614 5.54144H44.0614ZM44.4869 5.79508L44.1888 5.42725H44.7664L44.4869 5.79508ZM45.0045 5.42725V5.63677C44.9999 5.82405 44.9947 6.09016 44.9884 6.41421L44.5975 5.93184L44.9811 5.42725H45.0045ZM45.4034 5.93184L45.0272 6.39635C45.0209 6.08107 45.016 5.82102 45.0115 5.63677V5.42725H45.0198L45.4034 5.93184H45.4034ZM45.5144 5.79475L45.2348 5.42725H45.8125L45.5144 5.79475ZM45.6209 5.93488L45.9549 5.52325C45.9552 5.81631 45.9563 6.10128 45.9584 6.37884L45.6209 5.93488H45.6209ZM45.6624 7.002L45.9605 6.62406C45.9626 6.86457 45.9654 7.09868 45.9688 7.32773L45.6624 7.002H45.6624ZM45.6819 9.1285L46.0003 8.75191C46.0076 8.99478 46.016 9.22989 46.0247 9.45895L45.6819 9.1285ZM45.7315 10.2755L46.0425 9.87563C46.054 10.1276 46.0662 10.3711 46.0798 10.6062L45.7315 10.2755ZM47.3569 18.2317L47.0616 17.9471H47.5478C47.5594 17.9747 47.5705 18.0027 47.582 18.0306L47.3569 18.2317ZM47.8232 18.6804L47.4798 18.3496L47.6505 18.1974C47.7161 18.356 47.7834 18.5167 47.8525 18.6804H47.8232ZM47.3524 18.4635L47.5779 18.6804H47.1095L47.3524 18.4635ZM46.6212 18.482L46.8439 18.6804H46.4153L46.6212 18.482ZM45.7887 18.4881L45.9884 18.6804H45.5734L45.7887 18.4881ZM45.0579 18.4571L45.3078 18.6804H44.8261L45.0579 18.4571ZM44.2255 18.5127L44.3993 18.6804H44.0377L44.2255 18.5127ZM43.5159 18.4517L43.7721 18.6804H43.3026L43.5159 18.4517ZM42.8946 18.6804H42.5749L42.7337 18.5221L42.8946 18.6804ZM43.3888 18.3382L43.1019 18.6457L42.8541 18.4018L43.1403 18.1162L43.3888 18.3382ZM43.7532 17.9471L43.5044 18.2139L43.2052 17.9471H43.7532ZM44.5357 17.167L44.5354 17.168H42.8227L43.8719 16.5421L44.5357 17.167L44.5357 17.167ZM44.6862 16.0564L44.69 16.053C44.6516 16.4616 44.6118 16.7564 44.5741 16.9696L44.0241 16.4515L44.6862 16.0564L44.6862 16.0564ZM44.5134 15.9634L43.8963 16.3313L43.2757 15.7472L43.9577 15.2726L44.5134 15.9634ZM44.786 14.6966C44.7602 15.1863 44.7315 15.5905 44.7019 15.925L44.0981 15.1749L44.786 14.6966ZM44.6136 14.6103L43.992 15.0428L43.5619 14.5089L44.1553 14.0865L44.6136 14.6103ZM44.8303 13.6058C44.8184 13.9737 44.8059 14.2967 44.7933 14.5568L44.2949 13.9872L44.8303 13.6058ZM44.6998 13.491L44.1829 13.8592L43.7358 13.3485L44.2202 12.8917L44.6998 13.491ZM44.8684 12.2807C44.8586 12.6741 44.8481 13.048 44.8373 13.3893L44.3448 12.7742L44.8684 12.2807ZM44.7856 12.1251L44.2384 12.6411L43.8297 12.1305L44.3445 11.5747L44.7856 12.1251ZM44.8994 10.9758C44.8917 11.3119 44.8844 11.6441 44.8764 11.9651L44.4617 11.448L44.8994 10.9758ZM44.7472 10.8895L44.3539 11.314L43.9515 10.8121L44.3745 10.4102L44.7472 10.8895ZM44.9225 9.88977C44.9162 10.1966 44.9095 10.5052 44.9029 10.8114L44.4991 10.292L44.9225 9.88977ZM44.8345 9.73819L44.394 10.1569L44.0101 9.66308L44.4293 9.25852L44.8345 9.73819ZM44.9444 8.76168C44.9392 9.03082 44.934 9.30636 44.9284 9.58493L44.5525 9.13995L44.9444 8.76168ZM44.4171 8.20016L44.8024 8.66265L44.4422 9.0096L44.0607 8.55822L44.4171 8.20016ZM44.7944 7.57969L44.4286 7.94719L44.0789 7.52714L44.4453 7.13707L44.7944 7.57969ZM45.5723 7.94719L45.2069 7.57969L45.5559 7.13707L45.9224 7.52714L45.5723 7.94719ZM45.1985 8.66265L45.5839 8.19982L45.9402 8.55822L45.5587 9.0096L45.1985 8.66265ZM45.0875 9.56741C45.0823 9.29962 45.0771 9.03486 45.0718 8.77616L45.4488 9.13995L45.0875 9.56741ZM45.1664 9.73819L45.572 9.25852L45.9915 9.66308L45.6073 10.1569L45.1664 9.73819ZM45.113 10.7922C45.1067 10.4971 45.1005 10.1997 45.0945 9.90426L45.5022 10.292L45.113 10.7922ZM45.2544 10.8895L45.6268 10.4102L46.0498 10.8121L45.6474 11.3136L45.2544 10.8895ZM45.1399 11.9465C45.1322 11.636 45.1249 11.3163 45.1176 10.9929L45.5395 11.448L45.1399 11.9465ZM45.2156 12.1251L45.6568 11.5747L46.1716 12.1305L45.7629 12.6411L45.2156 12.1251ZM45.179 13.3707C45.1685 13.0383 45.1584 12.6762 45.1486 12.2955L45.6565 12.7742L45.179 13.3707ZM45.3015 13.491L45.7811 12.8917L46.2655 13.3485L45.8184 13.8592L45.3015 13.491ZM45.2223 14.5406C45.2104 14.2832 45.1982 13.9703 45.1867 13.6173L45.7064 13.9872L45.2223 14.5406ZM45.3881 14.6103L45.8463 14.0865L46.4393 14.5089L46.0093 15.0428L45.3881 14.6103ZM45.3116 15.9099C45.2834 15.5794 45.2558 15.1836 45.2307 14.707L45.9032 15.1749L45.3116 15.9099ZM45.4879 15.9634L46.0435 15.2726L46.7255 15.7472L46.105 16.3313L45.4879 15.9634ZM45.4355 16.9618C45.3996 16.7483 45.3619 16.4569 45.3252 16.0625L45.9776 16.4515L45.4355 16.9618ZM45.4743 17.168L45.4725 17.1602L46.1291 16.5421L47.1782 17.168H45.4743L45.4743 17.168ZM46.2083 18.1132L46.4941 18.3682L46.202 18.6498L45.9161 18.3746L46.2083 18.1132ZM45.4722 17.9471H46.1399L45.7933 18.2563L45.4722 17.9471ZM45.4073 18.1202L45.6662 18.3699L45.4404 18.5716L45.1804 18.3392L45.4073 18.1202ZM44.7413 17.9471H45.3423L45.0533 18.2253L44.7413 17.9471ZM44.6726 18.1132L44.9305 18.3436L44.6129 18.6498L44.3525 18.3992L44.6726 18.1132ZM44.9483 8.57069L44.5382 8.07856L44.9654 7.64942C44.9602 7.94146 44.9542 8.25068 44.9483 8.57069ZM45.0509 7.66424L45.4631 8.07856L45.0677 8.55317C45.0617 8.24462 45.0561 7.94651 45.0509 7.66424ZM44.1026 18.3948L43.905 18.5716L43.6314 18.3274L43.8213 18.124L44.1026 18.3948ZM43.8834 17.9471H44.6038L44.23 18.2809L43.8834 17.9471ZM46.9967 18.1202L47.2299 18.3453L46.9765 18.5716L46.744 18.3638L46.9967 18.1202ZM46.6166 18.2503L46.2774 17.9471H46.9315L46.6166 18.2503ZM45.9898 8.36622L45.6935 8.06845L45.9758 7.72958C45.9797 7.94719 45.9846 8.15906 45.9898 8.36622ZM45.1759 6.48393L45.5099 6.07163L45.838 6.50313L45.5441 6.87602L45.1759 6.48393ZM45.4376 7.01109L45.0481 7.50558C45.0418 7.16739 45.0359 6.8548 45.0307 6.57791L45.4376 7.01109ZM45.009 5.42725C45.0087 5.44544 45.0083 5.46295 45.0083 5.48114C45.0076 5.46295 45.0073 5.44544 45.0069 5.42725H45.009H45.009ZM44.4572 6.87602L44.1633 6.50313L44.4911 6.07163L44.8254 6.48393L44.4572 6.87602ZM44.9856 6.56208C44.9804 6.84772 44.9745 7.17211 44.9678 7.52411L44.5637 7.01109L44.9856 6.56208ZM44.0401 7.74744L44.3078 8.06879L44.0269 8.35106C44.0317 8.15435 44.0363 7.95325 44.0401 7.74744ZM46.3332 19.7102H47.9953L47.5262 20.1629L46.3332 19.7102ZM46.4296 21.2216C46.268 20.7904 46.1161 20.3293 45.9737 19.8429L47.3259 20.3562L46.4296 21.2216ZM47.7443 21.6393L46.6711 21.3428L47.5897 20.4563L48.4487 20.7823L47.7443 21.6393ZM48.9478 22.4979H47.3698L47.8396 21.9266L49.1715 22.2948L48.9478 22.4979ZM49.404 24.4947H48.9094V22.7482H49.404V24.4947ZM50.1582 24.4947H49.6636V22.7482H50.1582V24.4947ZM51.1516 25.7801L51.1393 25.77L50.3872 26.667L47.8937 25.6393L51.0776 25.6393C51.1023 25.6865 51.1271 25.7333 51.1516 25.7801ZM50.6357 26.7694L51.273 26.0092C51.5166 26.4673 51.7564 26.9075 51.9896 27.3276L50.6357 26.7694ZM49.6776 28.1188C49.6486 28.0841 49.6197 28.0501 49.59 28.0164L50.4657 26.9722L51.8946 27.561L51.0336 28.6372L49.6776 28.1188ZM50.4427 29.3759C50.308 29.0617 50.1495 28.7683 49.9659 28.4984L50.8685 28.8434L50.4427 29.3759ZM50.6189 29.8414C50.5976 29.7764 50.5743 29.7134 50.5512 29.6501L51.1198 28.9397L53.1665 29.7219L52.1568 30.5879L50.6189 29.8414V29.8414ZM50.9418 31.6304C50.9111 31.1073 50.836 30.6196 50.716 30.1692L51.948 30.7671L50.9418 31.6304ZM50.9547 31.9548L52.1976 30.8884L54.6383 32.0727H50.9568C50.9564 32.0333 50.9558 31.9939 50.9547 31.9548H50.9547ZM42.0419 25.1728L42.2761 25.3884H41.8245L42.0419 25.1728ZM41.1676 25.2331L41.3243 25.3884H40.9987L41.1676 25.2331ZM40.3991 25.1462L40.6626 25.3884H40.1547L40.3991 25.1462ZM39.4535 25.1812L39.6584 25.3884H39.1534L39.4535 25.1812ZM39.3328 25.0593L39.1956 25.1539L39.2741 25L39.3328 25.0593ZM39.7879 24.7453L39.4752 24.9609L39.3558 24.8403L39.4043 24.7453H39.7879ZM39.8972 25.3884L39.596 25.0832L40.0162 24.7935L40.2738 25.0306L39.9132 25.3884H39.8972ZM40.5617 24.7453L40.3945 24.911L40.2144 24.7453H40.5617ZM41.0469 25.1132L40.8308 25.3122L40.5198 25.0262L40.7394 24.8083L41.0469 25.1132ZM41.4468 24.7453L41.1722 24.998L40.9174 24.7453H41.4468ZM41.8611 24.4947H41.3666V22.7482H41.8611V24.4947ZM42.6154 24.4947H42.1205V22.7482H42.6154V24.4947ZM43.0422 22.4979H43.0025L42.4716 21.8518L43.4471 21.5823C43.3169 21.9067 43.1815 22.2119 43.0422 22.4979ZM46.974 22.4979C46.8334 22.2095 46.6969 21.902 46.5657 21.5746L47.5695 21.8518L47.0383 22.4979H46.974ZM47.8951 24.4947H47.4009V22.7482H47.8951V24.4947ZM48.6497 24.4947H48.1548V22.7482H48.6497V24.4947ZM48.6934 24.9612L48.4455 24.7453H48.9111L48.6934 24.9612ZM50.5435 25.0225L50.6846 24.8828L50.8755 25.2536L50.5435 25.0225ZM50.4214 25.1438L50.7729 25.3884L50.1746 25.3884L50.4214 25.1438ZM49.9153 25.3884L49.605 25.0805L49.9188 24.7935L50.2797 25.0448L49.9331 25.3884H49.9153ZM49.4794 25.1957L49.6738 25.3884H49.2686L49.4794 25.1957ZM48.8221 25.0731L49.0892 24.8083L49.3586 25.0758L49.0986 25.3136L48.8221 25.0731ZM48.7014 25.193L48.9258 25.3884H48.5042L48.7014 25.193ZM47.8121 25.1987L48.0033 25.3884H47.6047L47.8121 25.1987ZM47.0341 25.19L47.262 25.3884H46.8341L47.0341 25.19ZM46.1486 25.2048L46.3336 25.3884H45.9503L46.1486 25.2048ZM45.3598 25.1947L45.5996 25.3884H45.1643L45.3598 25.1947ZM44.4534 25.1795L44.6638 25.3884H44.2262L44.4534 25.1795ZM43.6848 25.1997L43.8904 25.3884H43.4942L43.6848 25.1997ZM42.4095 24.8083L42.6894 25.0865L42.444 25.3122L42.1627 25.0532L42.4095 24.8083ZM43.0607 24.7453L42.815 24.9713L42.5871 24.7453H43.0607ZM44.1239 24.4947H43.6293V22.7482H44.1239V24.4947ZM44.8781 24.4947H44.3836V22.7482H44.8781V24.4947ZM45.6327 24.4947H45.1378V22.7482H45.6327V24.4947ZM46.3866 24.4947H45.8921V22.7482H46.3866V24.4947ZM47.1412 22.7482V24.4947H46.6467V22.7482H47.1412ZM47.4187 24.8083L47.6916 25.0791L47.4351 25.3136L47.1548 25.07L47.4187 24.8083ZM46.7817 24.7453H47.2407L47.0264 24.9579L46.7817 24.7453ZM45.927 24.7453H46.3943L46.1524 24.969L45.927 24.7453ZM45.749 24.8083L46.0275 25.0849L45.779 25.3156L45.4809 25.0744L45.749 24.8083ZM45.0736 24.7453H45.571L45.3479 24.967L45.0736 24.7453ZM44.2572 24.7453H44.6747L44.4579 24.9444L44.2572 24.7453ZM44.0792 24.8083L44.3326 25.0599L44.0583 25.3122L43.8056 25.0798L44.0792 24.8083ZM43.4419 24.7453H43.9012L43.6803 24.9646L43.4419 24.7453ZM43.2356 25.3884L42.9358 25.0909L43.2513 24.8009L43.5595 25.0842L43.2527 25.3884H43.2356ZM44.9054 25.3884L44.5787 25.0643L44.8687 24.7975L45.2268 25.0869L44.9228 25.3884H44.9054ZM46.5751 25.3884L46.2735 25.0889L46.5859 24.7995L46.9053 25.0778L46.5926 25.3884H46.5751ZM48.0564 24.7453L47.8173 24.9639L47.5967 24.7453H48.0564ZM48.2449 25.3884L47.9377 25.0838L48.2487 24.7992L48.5726 25.0808L48.2627 25.3884H48.2449ZM43.3696 22.7482V24.4947H42.8751V22.7482H43.3696ZM41.828 24.7453H42.2315L42.0374 24.9377L41.828 24.7453ZM41.5655 25.3884L41.2929 25.1179L41.6378 24.8009L41.9166 25.0576L41.583 25.3884H41.5655ZM42.6122 25.3884L42.8105 25.2061L42.9941 25.3884H42.6122ZM50.5819 24.7453L50.4018 24.9238L50.1453 24.7453H50.5819ZM49.7198 24.7453L49.4843 24.9609L49.2672 24.7453H49.7198ZM44.3508 19.7102H45.6652C45.9654 20.7736 46.3078 21.7073 46.6833 22.4979H43.3326C43.7082 21.7073 44.0506 20.7736 44.3508 19.7102ZM40.3973 27.625L39.7687 26.8755L42.7976 25.6393H47.233L50.2176 26.8698L49.4144 27.8278C48.2955 26.6923 46.6121 26.1109 44.5057 26.1109C42.629 26.1109 41.2898 26.6657 40.3973 27.625ZM50.9125 24.4947L50.4179 24.4947V22.7482L50.9125 22.7482V24.4947ZM49.3209 22.0751L48.0145 21.7141L48.7562 20.812C48.9415 21.2391 49.13 21.6605 49.3209 22.0751ZM47.1758 16.9703L46.2568 16.4219L46.8323 15.8802C46.9377 16.2619 47.0526 16.6203 47.1758 16.9703ZM46.7461 15.5555L46.15 15.1405L46.5433 14.6518C46.6062 14.9704 46.6739 15.2702 46.7461 15.5555ZM46.4833 14.3324L45.958 13.9585L46.3521 13.5082C46.3929 13.7979 46.4369 14.0717 46.4833 14.3324ZM46.3046 13.1518L45.8875 12.7587L46.2142 12.3504C46.2421 12.6307 46.2725 12.8968 46.3046 13.1518ZM46.1706 11.8782L45.7647 11.4403L46.1053 11.0155C46.1252 11.3163 46.1468 11.6036 46.1706 11.8782ZM43.9096 11.0327L44.2366 11.4403L43.8471 11.861C43.8698 11.5966 43.8904 11.3207 43.9096 11.0327ZM43.8 12.3669L44.1138 12.7587L43.7134 13.136C43.7441 12.8911 43.7731 12.6351 43.8 12.3669ZM43.6618 13.5226L44.0433 13.9585L43.5347 14.3203C43.5798 14.0677 43.6223 13.8022 43.6618 13.5226ZM43.4698 14.6662L43.8513 15.1405L43.273 15.543C43.3431 15.2658 43.4087 14.9751 43.4698 14.6662ZM43.1805 15.891L43.7445 16.4219L42.844 16.9591C42.9648 16.6162 43.0772 16.2646 43.1805 15.891ZM41.2797 20.8056L42.0266 21.7141L40.6915 22.0829C40.8867 21.6585 41.0797 21.2273 41.2695 20.7897L41.2797 20.8056ZM40.8692 22.2948L42.2014 21.9266L42.6709 22.4979H41.0929L40.8692 22.2948ZM39.1035 22.7482H39.598V24.4947H39.1035V22.7482ZM50.1575 32.3233H55.3168L55.1853 32.1293C55.1703 32.1071 54.5493 31.1865 53.6321 29.6579L53.6541 29.639L53.6108 29.6225C52.8513 28.355 51.8922 26.6758 50.9044 24.7453H51.9397V22.4979L49.8015 22.4979C49.3973 21.6376 48.9991 20.7456 48.6194 19.8321C48.4934 19.5293 48.3719 19.2433 48.255 18.9678C46.9398 15.8698 46.2149 14.1627 46.2142 5.31272H46.5695V4.6488H46.1196V4.38067H45.4813L45.0083 0L44.535 4.38067H43.8963V4.6488H43.4464V5.31272H43.8017C43.801 13.968 43.1079 15.7916 41.8472 18.7653L41.4256 19.7102H41.4479C41.4308 19.7509 41.414 19.791 41.3969 19.8321C41.0168 20.7456 40.619 21.6376 40.2144 22.4979H38.0763V24.7453H39.1115C38.1286 26.6674 37.1737 28.3398 36.4156 29.6053L36.3273 29.639L36.3723 29.6774C35.4614 31.1942 34.8457 32.1071 34.8307 32.1293L34.6991 32.3233H39.8829L39.8717 32.1883C39.8619 32.066 39.857 31.9642 39.857 31.8693C39.857 30.0301 40.4762 26.9453 44.6237 26.9453C47.8976 26.9453 50.1837 28.97 50.1837 31.8693C50.1837 31.9653 50.1792 32.0667 50.169 32.1883L50.1575 32.3233Z" fill="#FA3E31"/>
<path fill-rule="evenodd" clip-rule="evenodd" d="M37.5456 24.1243V35.584H38.0496V36.7129H34.1425H30.2354V35.584H30.7393V24.1243L30.5763 23.6812V22.6353H30.4293V22.1757H30.5554L30.5554 17.0876H30.4436V16.6416H30.6881V16.9063H30.7393L30.8077 15.4428H30.8916V16.4254L31.1016 16.1956V15.4428L30.9683 15.3102V15.1224L31.1433 14.7736V13.136H31.2063L31.2765 14.5852H31.4937L32.3617 12.5923V12.0557H32.5016V9.79025L32.3546 9.65107V9.50478H32.5367V9.22582L34.0026 3.51294V3.32004H33.914V3.14811H33.9699L34.0443 1.59619H34.1425H34.2406L34.315 3.14811H34.3709V3.32004H34.2823V3.51294L35.7482 9.22582V9.50478H35.9303V9.65107L35.7834 9.79025V12.0557H35.9232V12.5923L36.7912 14.5852H37.0084L37.0786 13.136H37.1416V14.7736L37.3166 15.1224V15.3102L37.1833 15.4428V16.1956L37.3933 16.4254V15.4428H37.4772L37.5456 16.9063H37.5968V16.6416H37.8413V17.0876H37.7295V22.1757H37.8556V22.6353H37.7086V23.6812L37.5456 24.1243ZM34.1917 17.213H34.0937V17.6007C33.9599 17.6035 33.8273 17.6179 33.6958 17.6439C33.5483 17.6731 33.4051 17.7164 33.2662 17.7737C33.1891 17.8055 33.114 17.8413 33.0411 17.8811L32.8454 17.5437L32.7605 17.5925L32.9562 17.9299C32.9272 17.9474 32.8986 17.9655 32.8704 17.9843C32.7454 18.0674 32.6297 18.1619 32.5234 18.2678C32.4171 18.3736 32.3222 18.4887 32.2387 18.6132C32.2199 18.6411 32.2018 18.6694 32.1844 18.698L31.8468 18.5039L31.7978 18.5884L32.1354 18.7825C32.0952 18.8552 32.0591 18.9302 32.0271 19.0072C31.9695 19.1455 31.9261 19.288 31.8968 19.4348C31.8706 19.5655 31.8562 19.6973 31.8533 19.8303H31.464V19.9279H31.8533C31.8561 20.0611 31.8706 20.1932 31.8968 20.3242C31.9261 20.4709 31.9695 20.6135 32.0271 20.7517C32.0593 20.8292 32.0956 20.9045 32.136 20.9776L31.7977 21.1719L31.8467 21.2565L32.185 21.062C32.2023 21.0903 32.2201 21.1182 32.2386 21.1458C32.3222 21.2703 32.4171 21.3854 32.5234 21.4912C32.6297 21.597 32.7454 21.6915 32.8704 21.7747C32.8982 21.7932 32.9263 21.811 32.9548 21.8282L32.761 22.1623L32.8459 22.2111L33.0397 21.877C33.113 21.9172 33.1885 21.9533 33.2662 21.9853C33.4051 22.0426 33.5483 22.0858 33.6958 22.115C33.8273 22.1411 33.9599 22.1555 34.0937 22.1583V22.5458H34.1917V22.1583C34.3253 22.1555 34.4578 22.141 34.5892 22.115C34.7366 22.0858 34.8798 22.0426 35.0187 21.9853C35.0963 21.9533 35.1718 21.9172 35.2451 21.8771L35.4397 22.2128L35.5246 22.164L35.33 21.8283C35.3585 21.8111 35.3867 21.7932 35.4146 21.7747C35.5396 21.6915 35.6552 21.597 35.7615 21.4912C35.8679 21.3854 35.9628 21.2703 36.0463 21.1458C36.065 21.1179 36.0831 21.0897 36.1005 21.0612L36.4368 21.2545L36.4859 21.17L36.1495 20.9767C36.1897 20.9038 36.2258 20.8289 36.2579 20.7517C36.3154 20.6135 36.3589 20.4709 36.3882 20.3242C36.4144 20.1932 36.4289 20.0611 36.4317 19.9279H36.8209V19.8303H36.4317C36.4288 19.6973 36.4143 19.5655 36.3882 19.4348C36.3589 19.288 36.3154 19.1455 36.2579 19.0072C36.2259 18.9303 36.1899 18.8556 36.1499 18.783L36.4867 18.5894L36.4377 18.5049L36.1009 18.6984C36.0833 18.6697 36.0651 18.6412 36.0463 18.6132C35.9628 18.4887 35.8679 18.3736 35.7615 18.2678C35.6552 18.1619 35.5396 18.0674 35.4146 17.9843C35.3868 17.9658 35.3586 17.9479 35.3301 17.9307L35.5252 17.5943L35.4404 17.5455L35.2452 17.8819C35.1719 17.8418 35.0964 17.8057 35.0187 17.7737C34.8798 17.7164 34.7366 17.6731 34.5892 17.6439C34.4578 17.6179 34.3253 17.6035 34.1917 17.6007V17.213ZM35.2452 17.8819L34.9571 18.3785L35.042 18.4273L35.3301 17.9307C35.3021 17.9138 35.2738 17.8975 35.2452 17.8819ZM36.1009 18.6984L35.6009 18.9857L35.6499 19.0702L36.1499 18.783C36.1341 18.7545 36.1178 18.7263 36.1009 18.6984ZM36.4317 19.8303H35.8547V19.9279H36.4317C36.432 19.9118 36.4322 19.8956 36.4322 19.8795C36.4322 19.8631 36.432 19.8467 36.4317 19.8303ZM36.1495 20.9767L35.6491 20.6891L35.6001 20.7736L36.1005 21.0612C36.1174 21.0333 36.1338 21.0051 36.1495 20.9767ZM35.33 21.8283L35.0416 21.3309L34.9567 21.3797L35.2451 21.8771C35.2737 21.8615 35.302 21.8452 35.33 21.8283ZM34.1917 22.1583V21.584H34.0937V22.1583C34.1099 22.1586 34.1262 22.1588 34.1425 22.1588C34.1589 22.1588 34.1753 22.1586 34.1917 22.1583ZM33.0397 21.877L33.3291 21.3781L33.2442 21.3293L32.9548 21.8282C32.9827 21.8451 33.011 21.8614 33.0397 21.877ZM32.185 21.062L32.6835 20.7756L32.6345 20.6911L32.136 20.9776C32.1517 21.0061 32.1681 21.0342 32.185 21.062ZM31.8533 19.9279H32.4302V19.8303H31.8533C31.8529 19.8467 31.8528 19.8631 31.8528 19.8795C31.8528 19.8956 31.8529 19.9118 31.8533 19.9279ZM32.1354 18.7825L32.6345 19.0694L32.6835 18.9849L32.1844 18.698C32.1674 18.7258 32.1511 18.754 32.1354 18.7825ZM32.9562 17.9299L33.2436 18.4254L33.3285 18.3766L33.0411 17.8811C33.0125 17.8968 32.9842 17.913 32.9562 17.9299ZM34.1917 17.6007V18.1749H34.0937V17.6007C34.1099 17.6003 34.1262 17.6002 34.1425 17.6002C34.1589 17.6002 34.1753 17.6003 34.1917 17.6007ZM34.3851 19.8796C34.3851 19.9117 34.379 19.9425 34.3666 19.9721C34.3563 19.997 34.3422 20.0195 34.3244 20.0395L34.212 19.9275L34.1711 19.9682L34.2812 20.0779C34.267 20.0878 34.2517 20.0961 34.2353 20.1028C34.2056 20.1151 34.1746 20.1212 34.1424 20.1212C34.1102 20.1212 34.0793 20.1151 34.0495 20.1028C34.0198 20.0906 33.9936 20.0731 33.9708 20.0505C33.948 20.0278 33.9305 20.0017 33.9182 19.9721C33.9059 19.9425 33.8997 19.9117 33.8997 19.8796C33.8997 19.8476 33.9059 19.8168 33.9182 19.7872C33.9305 19.7576 33.948 19.7314 33.9708 19.7088C33.9936 19.6861 34.0198 19.6687 34.0495 19.6564C34.0702 19.6479 34.0914 19.6423 34.1133 19.6397V19.8793H34.171V19.6397C34.1931 19.6422 34.2145 19.6478 34.2353 19.6564C34.265 19.6687 34.2913 19.6861 34.314 19.7088C34.3368 19.7314 34.3543 19.7576 34.3666 19.7872C34.379 19.8168 34.3851 19.8476 34.3851 19.8796ZM34.171 19.6397V18.576H34.1133V19.6397C34.1229 19.6386 34.1326 19.638 34.1424 19.638C34.1521 19.638 34.1616 19.6386 34.171 19.6397ZM34.2812 20.0779L34.7056 20.5004L34.7464 20.4597L34.3244 20.0395C34.3211 20.0432 34.3176 20.0469 34.314 20.0505C34.3038 20.0606 34.2929 20.0698 34.2812 20.0779Z" fill="#FA3E31"/>
<path d="M30.9007 36.5795H24.4868C24.2401 36.5795 24.0118 36.45 23.8849 36.2404C23.7566 36.0301 23.7496 35.7691 23.8637 35.5517L27.1067 29.3614C27.1186 29.3396 27.1299 29.3171 27.144 29.2967C27.4964 28.7677 28.1914 28.5686 28.7517 28.8458L32.839 30.8844C33.386 31.1594 33.6538 31.8066 33.4889 32.4601C33.4748 32.5136 33.4557 32.5663 33.4283 32.6177L31.5266 36.2052C31.4019 36.4353 31.1622 36.5795 30.9007 36.5795Z" fill="#FA3E31"/>
<path d="M7.71187 10.5525H1.3684C0.979338 10.5525 0.663574 10.2373 0.663574 9.84903V9.14559C0.663574 8.75728 0.979338 8.44214 1.3684 8.44214H7.71187C8.10094 8.44214 8.4167 8.75728 8.4167 9.14559V9.84903C8.4167 10.2373 8.10094 10.5525 7.71187 10.5525Z" fill="#FA3E31"/>
<path d="M6.86611 13.577C6.65466 11.9591 6.30224 11.2556 6.30224 11.2556H3.13051C2.42568 11.8184 2.3552 13.577 4.46969 14.0694C4.89258 17.657 5.87935 21.5259 6.02031 21.9473C6.65466 23.9176 6.50312 23.4048 6.50312 23.4048C7.0994 25.1803 7.94238 27.6346 8.39136 28.936C9.12649 27.3202 9.67556 24.8504 9.9448 22.7816C9.98216 22.4953 10.0146 22.2153 10.0407 21.948L10.0632 21.4331C8.6014 18.2549 7.78238 16.5314 6.86611 13.577Z" fill="#FA3E31"/>
<path d="M22.49 17.8907C22.4533 17.5629 22.3709 17.2464 22.2518 16.9446C23.9828 15.6524 25.9606 14.0555 25.8964 13.9289C25.8337 13.7404 23.4027 14.7337 21.3778 15.5996C21.1713 15.3865 20.9401 15.1916 20.6877 15.0172C21.5575 12.9905 22.5612 10.5454 22.3723 10.4821C22.1855 10.3575 20.5658 12.5424 19.2189 14.3144C18.9574 14.2356 18.686 14.1744 18.4069 14.1343C18.1306 11.9347 17.7697 9.14551 17.5794 9.14551C17.3891 9.14551 17.0283 11.9347 16.752 14.1336C16.4926 14.1716 16.2396 14.2251 15.9957 14.2961C14.6798 12.5263 12.9755 10.3484 12.7866 10.411C12.5956 10.4743 13.6141 13.0102 14.4888 15.0045C14.2315 15.1818 13.9961 15.3815 13.7846 15.5989C11.7695 14.733 9.38791 13.7397 9.26175 13.9282C9.19831 14.1182 11.1761 15.6643 12.9071 16.946C12.7894 17.2443 12.7055 17.5559 12.6689 17.8802C11.4925 18.0145 10.1999 18.1869 9.33223 18.3606C8.55692 18.5013 8.6274 18.9234 9.40272 19.0641C10.3719 19.2343 11.7054 19.4045 12.8895 19.5375C12.9184 19.6135 12.9635 19.6859 12.9973 19.7605C13.0002 17.4082 14.8405 15.8275 17.5787 15.8275C20.3614 15.8275 22.1601 17.3737 22.1601 19.7668C22.1601 19.7788 22.1587 19.7886 22.1587 19.7999C22.201 19.7063 22.2539 19.6198 22.2877 19.5227C24.4713 19.2491 27.1651 18.8981 27.1651 18.7123C27.1651 18.5231 24.6792 18.1658 22.49 17.8907V17.8907Z" fill="#FA3E31"/>
<path d="M17.5794 17.2349C15.6827 17.2349 14.4077 18.2527 14.4077 19.7673C14.4077 21.5392 15.7694 24.2693 17.5794 24.2693C19.388 24.2693 20.7512 21.5378 20.7512 19.7673C20.7512 18.1817 19.5642 17.2349 17.5794 17.2349Z" fill="#FA3E31"/>
<path d="M7.18246 7.73856C7.67231 6.04326 7.09576 4.30646 6.64326 3.69587C6.5615 5.26736 5.58249 4.68772 5.74602 3.94348C6.15341 2.4557 4.52243 1.46313 4.52243 1.46313C4.52243 1.46313 4.35891 2.29109 2.48266 4.52312C1.53114 5.70139 1.55581 6.83253 1.88849 7.73856L7.18246 7.73856Z" fill="#FA3E31"/>
<path d="M6.37341 31.2673C6.69058 31.1463 6.99507 30.8607 7.28687 30.4717C7.32563 30.4457 7.38061 30.2811 7.39612 30.3282C7.15788 29.584 6.7223 28.4162 6.47067 27.6847C6.19015 26.8673 5.87721 25.9528 5.5847 25.0911C5.28304 25.8543 4.98207 26.6738 4.74737 27.4159C4.7382 27.4378 4.72129 27.4553 4.71424 27.4786C4.61909 27.7951 4.54579 28.08 4.48165 28.3529C4.4753 28.3804 4.46473 28.4134 4.45839 28.4402C4.45909 28.4416 4.4598 28.443 4.4605 28.4444C4.35689 28.9037 4.29134 29.3096 4.27161 29.6578C4.58526 30.4246 5.09908 30.8762 5.1322 30.9036C5.75175 31.4178 6.13729 31.358 6.37341 31.2673Z" fill="#FA3E31"/>
<path d="M22.5133 25.3248H16.5927C15.7998 25.3248 13.3766 23.5036 11.4714 21.7358L11.4453 22.0728C11.3135 23.4129 10.7955 28.809 8.27361 31.5791C7.65689 32.239 7.37354 32.3923 6.87805 32.5823C6.6518 32.6688 6.37621 32.7342 6.06186 32.7342C5.81517 32.7342 5.5424 32.6892 5.25342 32.5858C5.26892 32.6041 5.28373 32.6245 5.30135 32.6413C5.33236 32.6723 5.37465 32.6934 5.40637 32.7237C5.53887 32.8446 5.68266 32.9558 5.83631 33.0599C5.89763 33.1014 5.95543 33.145 6.02027 33.183C6.45092 33.4376 6.94994 33.6346 7.52649 33.7549C7.5709 33.7647 7.6153 33.7683 7.659 33.769C8.01001 33.8344 8.38427 33.878 8.78884 33.8963C10.0491 32.8425 11.0577 30.8989 11.4277 29.9858C11.5736 29.6243 11.9845 29.4505 12.3447 29.5968C12.7056 29.741 12.8804 30.1504 12.7352 30.512C12.5681 30.9256 11.3953 33.6923 9.49085 35.1386C9.76785 35.593 10.0491 36.0101 10.2316 36.2753C10.3641 36.466 10.5812 36.5799 10.8131 36.5799H22.5062C22.3131 36.0334 22.3399 35.4207 22.6134 34.898L25.8443 28.7302C25.8817 28.6563 25.9225 28.5846 25.9684 28.5178C26.0966 28.3264 26.2468 28.1527 26.4138 28.0035C25.4397 26.2899 24.0829 25.3248 22.5133 25.3248Z" fill="#FA3E31"/>
<path d="M101.884 40.2618C102.818 40.2618 103.482 40.4691 103.874 40.8837L103.648 41.1324C103.286 40.7781 102.713 40.601 101.929 40.601C100.753 40.601 100.165 41.0683 100.165 42.003C100.165 42.3648 100.308 42.655 100.595 42.8736C100.881 43.0847 101.228 43.2467 101.635 43.3598C102.05 43.4729 102.46 43.5935 102.867 43.7216C103.282 43.8422 103.632 44.0419 103.919 44.3208C104.205 44.5922 104.349 44.9502 104.349 45.395C104.349 45.9151 104.134 46.3296 103.704 46.6387C103.274 46.9477 102.653 47.1022 101.839 47.1022C101.439 47.1022 101.043 47.0495 100.651 46.9439C100.267 46.8384 99.9805 46.6839 99.7921 46.4804L100.018 46.2316C100.403 46.5859 100.994 46.763 101.793 46.763C102.524 46.763 103.075 46.6274 103.444 46.356C103.821 46.0847 104.009 45.7681 104.009 45.4063C104.009 45.0294 103.866 44.7241 103.58 44.4904C103.293 44.2568 102.943 44.0834 102.528 43.9703C102.121 43.8497 101.71 43.7291 101.296 43.6085C100.889 43.4804 100.542 43.2844 100.256 43.0206C99.9692 42.7568 99.826 42.41 99.826 41.9804C99.826 41.4 100.018 40.9703 100.403 40.6915C100.795 40.405 101.288 40.2618 101.884 40.2618Z" fill="white"/>
<path d="M92.506 46.6161H96.1919L93.8741 41.155L91.4093 46.9553H91.0475L93.8741 40.2844L96.7007 46.9553H92.506V46.6161Z" fill="white"/>
<path d="M82.7272 46.6161H87.0915V40.8724L84.5476 43.4163L82.0036 40.8724V46.9553L81.6644 46.9439V40.3975H82.0036L84.5476 42.9414L87.0915 40.3975H87.4307V46.9553L82.7272 46.9439V46.6161Z" fill="white"/>
<path d="M75.9207 40.748C75.6644 40.6651 75.3478 40.6236 74.9709 40.6236C74.5941 40.6236 74.2775 40.6651 74.0212 40.748C73.7649 40.8234 73.5275 40.9703 73.3089 41.1889C73.0978 41.4 72.9395 41.7128 72.834 42.1274C72.7285 42.5344 72.6757 43.0507 72.6757 43.6764C72.6757 44.302 72.7285 44.8221 72.834 45.2367C72.9395 45.6437 73.0978 45.9565 73.3089 46.1751C73.5275 46.3862 73.7649 46.5331 74.0212 46.6161C74.2775 46.6914 74.5941 46.7291 74.9709 46.7291C75.3478 46.7291 75.6644 46.6914 75.9207 46.6161C76.177 46.5331 76.4106 46.3862 76.6217 46.1751C76.8403 45.9565 77.0023 45.6437 77.1079 45.2367C77.2134 44.8221 77.2662 44.302 77.2662 43.6764C77.2662 43.0507 77.2134 42.5344 77.1079 42.1274C77.0023 41.7128 76.8403 41.4 76.6217 41.1889C76.4106 40.9703 76.177 40.8234 75.9207 40.748ZM76.9948 46.2656C76.5878 46.8007 75.9132 47.0683 74.9709 47.0683C74.0287 47.0683 73.3541 46.8007 72.9471 46.2656C72.54 45.7304 72.3365 44.8673 72.3365 43.6764C72.3365 42.4854 72.54 41.6224 72.9471 41.0872C73.3541 40.552 74.0287 40.2844 74.9709 40.2844C75.9132 40.2844 76.5878 40.552 76.9948 41.0872C77.4018 41.6224 77.6054 42.4854 77.6054 43.6764C77.6054 44.8673 77.4018 45.7304 76.9948 46.2656Z" fill="white"/>
<path d="M68.2408 46.9553H67.9575V40.3443H68.2408V46.9553Z" fill="white"/>
<path d="M60.1767 46.9553H59.3174V40.3975H60.1767C61.2923 40.3975 62.1817 40.6915 62.8451 41.2794C63.5084 41.8673 63.84 42.6663 63.84 43.6764C63.84 44.6864 63.5084 45.4854 62.8451 46.0733C62.1817 46.6613 61.2923 46.9553 60.1767 46.9553ZM60.1767 46.6161C61.1943 46.6161 62.0008 46.356 62.5963 45.8359C63.1993 45.3158 63.5008 44.596 63.5008 43.6764C63.5008 42.7568 63.1993 42.0369 62.5963 41.5168C62.0008 40.9967 61.1943 40.7367 60.1767 40.7367H59.6566V46.6161H60.1767Z" fill="white"/>
<path d="M54.939 46.9553H54.6557V40.3443H54.939V46.9553Z" fill="white"/>
<path fill-rule="evenodd" clip-rule="evenodd" d="M104.236 40.8801L103.659 41.5156L103.461 41.3225C103.171 41.0378 102.68 40.867 101.929 40.867C101.369 40.867 100.998 40.9795 100.772 41.1598C100.556 41.3308 100.431 41.595 100.431 42.003C100.431 42.2815 100.535 42.493 100.754 42.6608C101.01 42.8487 101.325 42.9975 101.706 43.1033C102.122 43.2169 102.535 43.3382 102.945 43.467C103.396 43.5987 103.784 43.8186 104.103 44.129C104.449 44.4571 104.615 44.8881 104.615 45.395C104.615 46.0024 104.357 46.4967 103.859 46.8546C103.366 47.2095 102.68 47.3683 101.839 47.3683C101.415 47.3683 100.996 47.3123 100.582 47.2008L100.581 47.2005C100.168 47.0873 99.8307 46.9137 99.5968 46.6611L99.431 46.482L100.002 45.8545L100.198 46.036C100.513 46.3262 101.027 46.497 101.793 46.497C102.499 46.497 102.983 46.3647 103.287 46.1416L103.288 46.1409L103.289 46.1401C103.618 45.9031 103.743 45.6588 103.743 45.4063C103.743 45.1075 103.635 44.8786 103.412 44.6966C103.158 44.4899 102.843 44.3319 102.458 44.227L102.455 44.2262L102.453 44.2254C102.046 44.1049 101.636 43.9845 101.222 43.864L101.219 43.8632L101.216 43.8623C100.775 43.7235 100.393 43.509 100.075 43.2163C99.7283 42.8966 99.5599 42.4758 99.5599 41.9804C99.5599 41.336 99.7774 40.8164 100.246 40.4761C100.693 40.1498 101.245 39.9958 101.884 39.9958C102.847 39.9958 103.601 40.2076 104.067 40.7009L104.236 40.8801ZM100.403 40.6915C100.018 40.9703 99.826 41.4 99.826 41.9804C99.826 42.41 99.9692 42.7568 100.256 43.0206C100.542 43.2844 100.889 43.4804 101.296 43.6085C101.71 43.7291 102.121 43.8497 102.528 43.9703C102.943 44.0834 103.293 44.2568 103.58 44.4904C103.866 44.7241 104.009 45.0294 104.009 45.4063C104.009 45.7681 103.821 46.0847 103.444 46.356C103.075 46.6274 102.524 46.763 101.793 46.763C101.005 46.763 100.418 46.5905 100.033 46.2455C100.028 46.2409 100.023 46.2363 100.018 46.2316L99.7921 46.4804C99.836 46.5279 99.8853 46.5727 99.9399 46.6148C99.9573 46.6282 99.9752 46.6413 99.9936 46.6542C100.166 46.7743 100.385 46.8709 100.651 46.9439C101.043 47.0495 101.439 47.1022 101.839 47.1022C102.653 47.1022 103.274 46.9477 103.704 46.6387C104.134 46.3296 104.349 45.9151 104.349 45.395C104.349 44.9502 104.205 44.5922 103.919 44.3208C103.632 44.0419 103.282 43.8422 102.867 43.7216C102.46 43.5935 102.05 43.4729 101.635 43.3598C101.228 43.2467 100.881 43.0847 100.595 42.8736C100.308 42.655 100.165 42.3648 100.165 42.003C100.165 41.0683 100.753 40.601 101.929 40.601C102.659 40.601 103.206 40.7546 103.57 41.0619C103.597 41.0846 103.623 41.1081 103.648 41.1324L103.874 40.8837C103.823 40.8305 103.769 40.7807 103.709 40.7343C103.698 40.7253 103.686 40.7164 103.674 40.7076C103.272 40.4104 102.675 40.2618 101.884 40.2618C101.288 40.2618 100.795 40.405 100.403 40.6915ZM92.24 46.35H95.79L93.8739 41.8356L91.5853 47.2213H90.6458L93.8741 39.6025L97.1024 47.2213H92.24V46.35ZM93.8741 41.155L96.1919 46.6161H92.506V46.9553H96.7007L93.8741 40.2844L91.0475 46.9553H91.4093L93.8741 41.155ZM82.4612 46.35H86.8255V41.5146L84.5476 43.7926L82.2696 41.5146V47.2303L81.3984 47.2013V40.1314H82.1138L84.5476 42.5652L86.9813 40.1314H87.6968V47.2219L82.4612 47.2093V46.35ZM87.0915 40.3975H87.4307V46.9553L82.7272 46.9439V46.6161H87.0915V40.8724L84.5476 43.4163L82.0036 40.8724V46.9553L81.6644 46.9439V40.3975H82.0036L84.5476 42.9414L87.0915 40.3975ZM75.8422 41.0022L75.8388 41.0011C75.6172 40.9294 75.3302 40.8897 74.9709 40.8897C74.6117 40.8897 74.3247 40.9294 74.1031 41.0011L74.0997 41.0022L74.0963 41.0032C73.889 41.0642 73.6891 41.185 73.497 41.3771C73.3314 41.5427 73.1904 41.8058 73.0918 42.193L73.0915 42.1941C72.9937 42.5716 72.9418 43.0635 72.9418 43.6764C72.9418 44.2889 72.9936 44.7851 73.0918 45.1708C73.1894 45.5468 73.3294 45.8118 73.4971 45.987C73.6883 46.1707 73.8892 46.2931 74.0997 46.3618C74.3234 46.4271 74.6118 46.4631 74.9709 46.4631C75.3301 46.4631 75.6185 46.4271 75.8422 46.3619C76.0529 46.293 76.25 46.1706 76.4336 45.987C76.6086 45.812 76.7525 45.5472 76.8502 45.1704C76.9483 44.7847 77.0001 44.2887 77.0001 43.6764C77.0001 43.0635 76.9482 42.5716 76.8504 42.1941L76.8501 42.193C76.752 41.8077 76.6083 41.5458 76.4369 41.3803L76.4336 41.3771L76.4303 41.3737C76.2468 41.1837 76.0519 41.0639 75.8456 41.0032L75.8422 41.0022ZM77.1079 45.2367C77.0023 45.6437 76.8403 45.9565 76.6217 46.1751C76.4106 46.3862 76.177 46.5331 75.9207 46.6161C75.6644 46.6914 75.3478 46.7291 74.9709 46.7291C74.5941 46.7291 74.2775 46.6914 74.0212 46.6161C73.7649 46.5331 73.5275 46.3862 73.3089 46.1751C73.0978 45.9565 72.9395 45.6437 72.834 45.2367C72.7285 44.8221 72.6757 44.302 72.6757 43.6764C72.6757 43.0507 72.7285 42.5344 72.834 42.1274C72.9395 41.7128 73.0978 41.4 73.3089 41.1889C73.5275 40.9703 73.7649 40.8234 74.0212 40.748C74.2775 40.6651 74.5941 40.6236 74.9709 40.6236C75.3478 40.6236 75.6644 40.6651 75.9207 40.748C76.177 40.8234 76.4106 40.9703 76.6217 41.1889C76.8403 41.4 77.0023 41.7128 77.1079 42.1274C77.2134 42.5344 77.2662 43.0507 77.2662 43.6764C77.2662 44.302 77.2134 44.8221 77.1079 45.2367ZM68.5068 47.2213H67.6914V40.0782H68.5068V47.2213ZM59.0514 47.2213V40.1314H60.1767C61.3399 40.1314 62.2979 40.4389 63.0215 41.0803C63.7501 41.7261 64.1061 42.602 64.1061 43.6764C64.1061 44.7508 63.7501 45.6267 63.0215 46.2724C62.2979 46.9138 61.3399 47.2213 60.1767 47.2213H59.0514ZM62.4226 45.6345C62.9576 45.173 63.2348 44.5319 63.2348 43.6764C63.2348 42.8209 62.9576 42.1798 62.4226 41.7183L62.4213 41.7172C61.8869 41.2504 61.1489 41.0027 60.1767 41.0027H59.9227V46.35H60.1767C61.1489 46.35 61.8869 46.1023 62.4213 45.6355L62.4226 45.6345ZM59.6566 46.6161V40.7367H60.1767C61.1943 40.7367 62.0008 40.9967 62.5963 41.5168C63.1993 42.0369 63.5008 42.7568 63.5008 43.6764C63.5008 44.596 63.1993 45.3158 62.5963 45.8359C62.0008 46.356 61.1943 46.6161 60.1767 46.6161H59.6566ZM55.205 47.2213H54.3896V40.0782H55.205V47.2213ZM77.2066 46.4266C76.7311 47.0518 75.9608 47.3344 74.9709 47.3344C73.9811 47.3344 73.2108 47.0518 72.7353 46.4266C72.2749 45.8212 72.0705 44.8857 72.0705 43.6764C72.0705 42.4671 72.2749 41.5316 72.7353 40.9261C73.2108 40.301 73.9811 40.0184 74.9709 40.0184C75.9608 40.0184 76.7311 40.301 77.2066 40.9261C77.667 41.5316 77.8714 42.4671 77.8714 43.6764C77.8714 44.8857 77.667 45.8212 77.2066 46.4266ZM76.9948 46.2656C76.5878 46.8007 75.9132 47.0683 74.9709 47.0683C74.0287 47.0683 73.3541 46.8007 72.9471 46.2656C72.54 45.7304 72.3365 44.8673 72.3365 43.6764C72.3365 42.4854 72.54 41.6224 72.9471 41.0872C73.3541 40.552 74.0287 40.2844 74.9709 40.2844C75.9132 40.2844 76.5878 40.552 76.9948 41.0872C77.4018 41.6224 77.6054 42.4854 77.6054 43.6764C77.6054 44.8673 77.4018 45.7304 76.9948 46.2656ZM68.2408 46.9553V40.3443H67.9575V46.9553H68.2408ZM59.3174 46.9553V40.3975H60.1767C61.2923 40.3975 62.1817 40.6915 62.8451 41.2794C63.5084 41.8673 63.84 42.6663 63.84 43.6764C63.84 44.6864 63.5084 45.4854 62.8451 46.0733C62.1817 46.6613 61.2923 46.9553 60.1767 46.9553H59.3174ZM54.939 46.9553V40.3443H54.6557V46.9553H54.939Z" fill="white"/>
<path d="M106.325 20.4502V36.5799H101.841V20.4502H106.325Z" fill="white"/>
<path d="M89.6866 36.7401C87.8105 36.7401 86.27 36.2977 85.065 35.4131C83.86 34.5132 83.2118 33.2319 83.1203 31.5694H87.902C87.9477 32.1337 88.1155 32.5456 88.4053 32.8049C88.6951 33.0642 89.0688 33.1938 89.5264 33.1938C89.9382 33.1938 90.2738 33.0947 90.5331 32.8964C90.8076 32.6828 90.9449 32.393 90.9449 32.027C90.9449 31.5541 90.7237 31.1881 90.2814 30.9288C89.8391 30.6695 89.1222 30.3797 88.1308 30.0594C87.0783 29.7086 86.2242 29.373 85.5683 29.0527C84.9277 28.7171 84.3634 28.2367 83.8753 27.6113C83.4024 26.9707 83.166 26.1394 83.166 25.1175C83.166 24.0803 83.4253 23.1956 83.9439 22.4635C84.4625 21.7161 85.1794 21.1518 86.0945 20.7705C87.0097 20.3891 88.0469 20.1985 89.2061 20.1985C91.0822 20.1985 92.5769 20.6408 93.6904 21.5255C94.8191 22.3949 95.4216 23.6227 95.4978 25.209H90.6246C90.6093 24.7209 90.4568 24.3549 90.167 24.1108C89.8925 23.8668 89.534 23.7447 89.0917 23.7447C88.7561 23.7447 88.4816 23.8439 88.2681 24.0422C88.0545 24.2405 87.9477 24.5226 87.9477 24.8887C87.9477 25.1938 88.0621 25.4607 88.2909 25.6895C88.535 25.903 88.8324 26.0937 89.1832 26.2614C89.534 26.414 90.0526 26.6123 90.739 26.8563C91.7609 27.2071 92.5998 27.5579 93.2557 27.9087C93.9268 28.2443 94.4988 28.7248 94.9716 29.3501C95.4597 29.9602 95.7037 30.7381 95.7037 31.6838C95.7037 32.6447 95.4597 33.5065 94.9716 34.2691C94.4988 35.0318 93.8048 35.6342 92.8896 36.0766C91.9897 36.5189 90.922 36.7401 89.6866 36.7401Z" fill="white"/>
<path d="M72.2559 24.0422V26.6733H77.4037V30.0822H72.2559V32.9879H78.0901V36.5799H67.7716V20.4502H78.0901V24.0422H72.2559Z" fill="white"/>
<path d="M63.4262 20.4502V24.0193H59.1249V36.5799H54.6406V24.0193H50.3851V20.4502H63.4262Z" fill="white"/>
<path d="M42.3269 33.9488H36.6072L35.7378 36.5799H31.0247L36.9046 20.4502H42.0753L47.9323 36.5799H43.1963L42.3269 33.9488ZM41.2059 30.5169L39.467 25.3005L37.7511 30.5169H41.2059Z" fill="white"/>
<path d="M26.228 20.4502V36.5799H21.7437V27.6799L18.7008 36.5799H14.9486L11.8829 27.6113V36.5799H7.39856V20.4502H12.8209L16.8705 30.9288L20.8286 20.4502H26.228Z" fill="white"/>
</svg>
