<svg width="128" height="100" viewBox="0 0 128 100" fill="none" xmlns="http://www.w3.org/2000/svg">
<path opacity="0.1" d="M28.9417 0C37.296 0 44.1585 2.64706 49.5291 7.94118C54.8998 13.0392 57.5851 19.8039 57.5851 28.2353C57.5851 32.1569 57.0878 36.0784 56.0932 40C55.0987 43.9216 53.0101 49.8039 49.8275 57.6471L32.5221 100H2.98368L15.8135 53.5294C10.8407 51.3725 6.96193 48.1373 4.17716 43.8235C1.39239 39.5098 0 34.3137 0 28.2353C0 19.8039 2.68531 13.0392 8.05594 7.94118C13.6255 2.64706 20.5874 0 28.9417 0ZM99.3566 0C107.711 0 114.573 2.64706 119.944 7.94118C125.315 13.0392 128 19.8039 128 28.2353C128 32.1569 127.503 36.0784 126.508 40C125.514 43.9216 123.425 49.8039 120.242 57.6471L102.937 100H73.3986L86.2284 53.5294C81.2556 51.3725 77.3768 48.1373 74.5921 43.8235C71.8073 39.5098 70.4149 34.3137 70.4149 28.2353C70.4149 19.8039 73.1002 13.0392 78.4709 7.94118C84.0404 2.64706 91.0023 0 99.3566 0Z" fill="#89B2BF"/>
</svg>
