<svg width="64" height="50" viewBox="0 0 64 50" fill="none" xmlns="http://www.w3.org/2000/svg">
<path opacity="0.1" d="M20.8858 23.3824C23.3722 24.4608 25.3116 26.0784 26.704 28.2353C28.0963 30.3922 28.7925 32.9412 28.7925 35.8823C28.7925 40.098 27.4499 43.5294 24.7646 46.1765C22.0793 48.7255 18.648 50 14.4709 50C10.2937 50 6.81274 48.6765 4.02797 46.0294C1.34266 43.3823 0 40 0 35.8823C0 33.9216 0.24864 31.9608 0.745921 30C1.2432 28.0392 2.33722 25.098 4.02797 21.1765L12.6807 0H27.4499L20.8858 23.3824ZM56.0932 23.3824C58.5796 24.4608 60.519 26.0784 61.9114 28.2353C63.3038 30.3922 64 32.9412 64 35.8823C64 40.098 62.6573 43.5294 59.972 46.1765C57.2867 48.7255 53.8555 50 49.6783 50C45.5012 50 42.0202 48.6765 39.2354 46.0294C36.5501 43.3823 35.2075 40 35.2075 35.8823C35.2075 33.9216 35.4561 31.9608 35.9534 30C36.4507 28.0392 37.5447 25.098 39.2354 21.1765L47.8881 0H62.6573L56.0932 23.3824Z" fill="#D62C1E"/>
</svg>
