<svg width="128" height="100" viewBox="0 0 128 100" fill="none" xmlns="http://www.w3.org/2000/svg">
<path opacity="0.1" d="M41.7716 46.7647C46.7444 48.9216 50.6232 52.1569 53.4079 56.4706C56.1927 60.7843 57.5851 65.8824 57.5851 71.7647C57.5851 80.1961 54.8998 87.0588 49.5291 92.3529C44.1585 97.451 37.296 100 28.9417 100C20.5874 100 13.6255 97.3529 8.05594 92.0588C2.68531 86.7647 0 80 0 71.7647C0 67.8431 0.49728 63.9216 1.49184 60C2.4864 56.0784 4.67444 50.1961 8.05594 42.3529L25.3613 0H54.8998L41.7716 46.7647ZM112.186 46.7647C117.159 48.9216 121.038 52.1569 123.823 56.4706C126.608 60.7843 128 65.8824 128 71.7647C128 80.1961 125.315 87.0588 119.944 92.3529C114.573 97.451 107.711 100 99.3566 100C91.0023 100 84.0404 97.3529 78.4709 92.0588C73.1002 86.7647 70.4149 80 70.4149 71.7647C70.4149 67.8431 70.9122 63.9216 71.9068 60C72.9013 56.0784 75.0893 50.1961 78.4709 42.3529L95.7762 0H125.315L112.186 46.7647Z" fill="#89B2BF"/>
</svg>
