<svg width="163" height="147" viewBox="0 0 163 147" fill="none" xmlns="http://www.w3.org/2000/svg">
<path d="M22.4737 145.154V112.105M22.4737 145.154H13.0001V112.105C13.0001 106.873 17.2416 102.632 22.4737 102.632H70.7895C73.4056 102.632 75.5264 104.752 75.5264 107.368V107.368C75.5264 109.985 73.4056 112.105 70.7895 112.105H49.0001V145.154H22.4737Z" stroke="#FA3E31" stroke-width="2"/>
<circle r="9.47368" transform="matrix(-1 0 0 1 35.7373 87.4737)" stroke="#FA3E31" stroke-width="2"/>
<path d="M70 27H115C120.523 27 125 31.1787 125 36.3333V62.4667C125 67.6213 120.523 71.8 115 71.8H70L55 76L60 62.4667V36.3333C60 31.1787 64.4772 27 70 27Z" stroke="#FA3E31" stroke-width="2"/>
<path d="M113 36.5H109M72.5 36.5H76.5M113 44.5001C105.092 44.5001 100.658 44.5001 92.75 44.5001M72.5 44.5001H86.5M113 52.5H100.5M72.5 52.5H79M113 60.5001H88M72.5 60.5001H80.5M97.5 52.5H82M80.5 36.5H103.5" stroke="#FA3E31" stroke-width="2" stroke-linecap="round" stroke-linejoin="round"/>
<path d="M117.148 82.6346L116.181 82.8926L117.148 82.6346ZM106.038 12.1346H105.038C105.038 12.5656 105.315 12.9481 105.724 13.0838L106.038 12.1346ZM107.038 4C107.038 3.44772 106.591 3 106.038 3C105.486 3 105.038 3.44772 105.038 4H107.038ZM94.8525 82.6346L95.8186 82.8926L94.8525 82.6346ZM105.962 12.1346L106.276 13.0838C106.686 12.9481 106.962 12.5656 106.962 12.1346H105.962ZM106.962 4C106.962 3.44772 106.514 3 105.962 3C105.409 3 104.962 3.44772 104.962 4H106.962ZM114.677 71.9205L113.697 72.1199L114.677 71.9205ZM109.708 27L110.706 26.9493L109.708 27ZM102.292 27L101.294 26.9493L102.292 27ZM114.693 72L115.674 71.806L115.514 71H114.693V72ZM75.0516 144.173L74.0715 143.974L75.0516 144.173ZM82.1742 107.716L81.2236 108.026L82.1742 107.716ZM101.742 13.5343L101.427 12.5851L101.742 13.5343ZM93.6025 79.196L92.6627 79.5376L93.6025 79.196ZM100.78 92.6249L101.752 92.8598L100.78 92.6249ZM118.64 78.5277L119.58 78.8694L118.64 78.5277ZM93.3596 78.5277L92.4198 78.8694L93.3596 78.5277ZM59.556 143.312L58.8182 142.637L59.556 143.312ZM110.258 13.5343L110.573 12.5851L110.258 13.5343ZM118.397 79.196L119.337 79.5376L118.397 79.196ZM111.22 92.6249L110.248 92.8598L111.22 92.6249ZM136.948 144.173L135.968 144.372L136.948 144.173ZM152.444 143.312L151.706 143.987L152.444 143.312ZM109.308 17.6423H106.038V19.6423H109.308V17.6423ZM110.244 90.8538H106V92.8538H110.244V90.8538ZM119.337 79.5376L119.58 78.8694L117.701 78.1861L117.458 78.8543L119.337 79.5376ZM117.718 76.2115H115.804V78.2115H117.718V76.2115ZM115.804 76.2115H106V78.2115H115.804V76.2115ZM118.114 82.3766C117.923 81.6641 117.737 80.9459 117.555 80.2216L115.616 80.7092C115.8 81.4428 115.989 82.1705 116.181 82.8926L118.114 82.3766ZM116.585 79.4654H106V81.4654H116.585V79.4654ZM109.308 19.6423H109.944V17.6423H109.308V19.6423ZM111.944 17.6423V14.4834H109.944V17.6423H111.944ZM110.573 12.5851L106.353 11.1855L105.724 13.0838L109.944 14.4834L110.573 12.5851ZM107.038 12.1346V4H105.038V12.1346H107.038ZM115.437 103.461C114.112 99.5942 113.053 95.9553 112.192 92.3901L110.248 92.8598C111.124 96.4881 112.201 100.186 113.544 104.109L115.437 103.461ZM106.038 104.785H114.49V102.785H106.038V104.785ZM128.875 107.405L127.68 111.067L129.581 111.687L130.776 108.026L128.875 107.405ZM153.182 142.637C143.123 131.643 135.423 121.544 129.505 110.891L127.756 111.863C133.774 122.693 141.58 132.919 151.706 143.987L153.182 142.637ZM106.038 112.377H128.63V110.377H106.038V112.377ZM125.662 103.362C122.602 96.7983 120.125 89.9066 118.114 82.3766L116.181 82.8926C118.22 90.5267 120.736 97.5294 123.849 104.207L125.662 103.362ZM114.49 104.785H124.756V102.785H114.49V104.785ZM124.756 104.785H126.974V102.785H124.756V104.785ZM137.945 146H151.706V144H137.945V146ZM105.962 119.969C120.787 119.969 133.149 130.455 135.968 144.372L137.929 143.974C134.922 129.137 121.751 117.969 105.962 117.969V119.969ZM102.692 19.6423H105.962V17.6423H102.692V19.6423ZM101.756 92.8538H106V90.8538H101.756V92.8538ZM94.5424 78.8543L94.2995 78.1861L92.4198 78.8694L92.6627 79.5376L94.5424 78.8543ZM94.2817 78.2115H96.1963V76.2115H94.2817V78.2115ZM96.1963 78.2115H106V76.2115H96.1963V78.2115ZM95.8186 82.8926C96.0115 82.1705 96.2001 81.4428 96.3845 80.7092L94.4448 80.2216C94.2628 80.9459 94.0766 81.6641 93.8864 82.3766L95.8186 82.8926ZM95.4146 81.4654H106V79.4654H95.4146V81.4654ZM102.692 17.6423H102.056V19.6423H102.692V17.6423ZM102.056 17.6423V14.4834H100.056V17.6423H102.056ZM102.056 14.4834L106.276 13.0838L105.647 11.1855L101.427 12.5851L102.056 14.4834ZM106.962 12.1346V4H104.962V12.1346H106.962ZM98.4556 104.109C99.799 100.186 100.876 96.4881 101.752 92.8598L99.8082 92.3901C98.9467 95.9553 97.8878 99.5942 96.5635 103.461L98.4556 104.109ZM105.962 102.785H97.5096V104.785H105.962V102.785ZM81.2236 108.026L82.419 111.687L84.3202 111.067L83.1249 107.405L81.2236 108.026ZM60.2937 143.987C70.4205 132.919 78.2261 122.693 84.2437 111.863L82.4955 110.891C76.5768 121.544 68.8774 131.643 58.8182 142.637L60.2937 143.987ZM105.962 110.377H83.3696V112.377H105.962V110.377ZM88.1506 104.207C91.2639 97.5294 93.7798 90.5267 95.8186 82.8926L93.8864 82.3766C91.8753 89.9066 89.398 96.7983 86.338 103.362L88.1506 104.207ZM97.5096 102.785H87.2443V104.785H97.5096V102.785ZM87.2443 102.785H85.0261V104.785H87.2443V102.785ZM74.0551 144H60.2937V146H74.0551V144ZM106.038 117.969C90.2492 117.969 77.0779 129.137 74.0715 143.974L76.0316 144.372C78.8514 130.455 91.2125 119.969 106.038 119.969V117.969ZM116.778 76.988C116.464 75.619 115.947 73.1464 115.657 71.7211L113.697 72.1199C113.988 73.5478 114.509 76.0407 114.829 77.4351L116.778 76.988ZM97.171 77.4351C97.4907 76.041 97.9967 73.6278 98.2874 72.1994L96.3276 71.8006C96.0376 73.2254 95.5356 75.6188 95.2216 76.988L97.171 77.4351ZM110.706 26.9493C110.601 24.8721 110.399 20.7573 110.308 18.6001L108.309 18.6845C108.401 20.851 108.604 24.9734 108.709 27.0507L110.706 26.9493ZM103.291 27.0507C103.396 24.9734 103.599 20.851 103.691 18.6845L101.692 18.6001C101.601 20.7573 101.399 24.8721 101.294 26.9493L103.291 27.0507ZM110.706 26.9463C110.702 26.8635 110.699 26.8111 110.697 26.7818C110.697 26.7745 110.697 26.7682 110.696 26.7632C110.696 26.7606 110.696 26.7581 110.696 26.7558C110.696 26.7537 110.696 26.7509 110.695 26.7478C110.695 26.7464 110.695 26.7439 110.695 26.741C110.695 26.7395 110.695 26.7373 110.695 26.7347C110.694 26.7324 110.694 26.7277 110.693 26.7219C110.693 26.7191 110.693 26.7124 110.692 26.7086C110.692 26.7029 110.69 26.6884 110.689 26.6794C110.686 26.6627 110.676 26.6051 110.667 26.5645C110.575 26.3311 109.477 25.8342 108.744 26.5079C108.718 26.6082 108.7 26.7385 108.698 26.7664C108.698 26.7794 108.697 26.7998 108.697 26.8073C108.697 26.8121 108.697 26.8204 108.697 26.8238C108.697 26.8264 108.698 26.8308 108.698 26.8328C108.698 26.8371 108.698 26.8405 108.698 26.8425C108.698 26.8446 108.698 26.8464 108.698 26.8477C108.698 26.8503 108.698 26.8524 108.698 26.8538C108.698 26.8566 108.699 26.8593 108.699 26.8612C108.699 26.8688 108.699 26.8798 108.7 26.8919C108.701 26.9045 108.702 26.9199 108.702 26.9371C108.704 26.9715 108.706 27.0135 108.709 27.0554C108.711 27.0973 108.713 27.1392 108.715 27.1733C108.716 27.1904 108.716 27.2056 108.717 27.2181C108.717 27.2243 108.718 27.2299 108.718 27.2348C108.718 27.2395 108.719 27.2442 108.719 27.2483C108.719 27.2502 108.719 27.253 108.719 27.2561C108.719 27.2576 108.72 27.2602 108.72 27.2633C108.72 27.2649 108.72 27.2674 108.72 27.2704C108.72 27.2717 108.721 27.2746 108.721 27.2762C108.721 27.2782 108.721 27.2829 108.722 27.2855C108.722 27.2891 108.723 27.2978 108.723 27.3029C108.724 27.3109 108.727 27.3331 108.729 27.3474C108.735 27.3797 108.783 27.5511 108.845 27.6829C109.751 28.194 110.678 27.4721 110.71 27.3146C110.714 27.2804 110.717 27.2313 110.717 27.2165C110.717 27.2083 110.717 27.1949 110.717 27.1896C110.717 27.186 110.717 27.1797 110.717 27.177C110.717 27.1749 110.717 27.1713 110.717 27.1696C110.717 27.166 110.717 27.1631 110.717 27.1613C110.717 27.1593 110.717 27.1577 110.717 27.1565C110.717 27.1541 110.717 27.1521 110.716 27.1507C110.716 27.1479 110.716 27.1452 110.716 27.1431C110.716 27.1407 110.716 27.1382 110.716 27.1356C110.716 27.1305 110.715 27.1241 110.715 27.1165C110.713 27.0865 110.711 27.0332 110.706 26.9493L108.709 27.0507C108.713 27.1346 108.716 27.1863 108.717 27.2144C108.718 27.2214 108.718 27.2266 108.718 27.2303C108.718 27.2321 108.718 27.2334 108.718 27.2342C108.718 27.2352 108.718 27.235 108.718 27.2341C108.718 27.2336 108.718 27.2324 108.718 27.2306C108.718 27.2298 108.718 27.2284 108.718 27.2267C108.718 27.2252 108.718 27.2224 108.718 27.219C108.718 27.2174 108.718 27.2138 108.718 27.2118C108.718 27.2092 108.717 27.203 108.717 27.1994C108.717 27.1942 108.718 27.1808 108.718 27.1726C108.718 27.1578 108.721 27.1088 108.725 27.0746C108.757 26.9171 109.683 26.1952 110.59 26.7063C110.652 26.8381 110.7 27.0095 110.706 27.0418C110.708 27.056 110.711 27.0782 110.712 27.0862C110.712 27.0913 110.713 27.0999 110.713 27.1034C110.713 27.106 110.714 27.1106 110.714 27.1125C110.714 27.1141 110.714 27.1169 110.714 27.1181C110.715 27.1209 110.715 27.1232 110.715 27.1245C110.715 27.1272 110.715 27.1291 110.715 27.1298C110.715 27.1314 110.715 27.1321 110.715 27.1315C110.715 27.1305 110.715 27.1282 110.715 27.1241C110.715 27.1203 110.715 27.1155 110.714 27.1097C110.714 27.0983 110.713 27.0838 110.712 27.0671C110.71 27.0338 110.708 26.9925 110.706 26.951C110.704 26.9096 110.701 26.8682 110.7 26.8346C110.699 26.8177 110.698 26.8031 110.698 26.7914C110.697 26.7792 110.697 26.7717 110.696 26.7686C110.696 26.7679 110.696 26.7683 110.696 26.7695C110.697 26.77 110.697 26.7715 110.697 26.7734C110.697 26.7745 110.697 26.776 110.697 26.778C110.697 26.7797 110.697 26.783 110.697 26.7871C110.697 26.789 110.697 26.7934 110.697 26.7959C110.697 26.7992 110.697 26.8074 110.697 26.8123C110.697 26.8197 110.697 26.8401 110.696 26.853C110.695 26.8809 110.677 27.0112 110.651 27.1115C109.917 27.7852 108.819 27.2883 108.728 27.0549C108.718 27.0143 108.708 26.9567 108.706 26.9401C108.705 26.9311 108.703 26.9166 108.702 26.911C108.702 26.9072 108.701 26.9006 108.701 26.8978C108.701 26.8921 108.7 26.8877 108.7 26.8856C108.7 26.8831 108.7 26.8812 108.7 26.88C108.7 26.8776 108.7 26.8759 108.699 26.8752C108.699 26.8739 108.699 26.8734 108.699 26.8742C108.699 26.8748 108.7 26.876 108.7 26.8777C108.7 26.8811 108.7 26.8861 108.7 26.8929C108.702 26.9201 108.705 26.9709 108.709 27.0537L110.706 26.9463ZM103.291 27.0537C103.295 26.9709 103.298 26.9201 103.3 26.8929C103.3 26.8861 103.3 26.8811 103.3 26.8777C103.301 26.876 103.301 26.8748 103.301 26.8742C103.301 26.8734 103.301 26.8739 103.301 26.8752C103.301 26.8759 103.3 26.8776 103.3 26.88C103.3 26.8812 103.3 26.8831 103.3 26.8856C103.3 26.8877 103.299 26.8921 103.299 26.8978C103.299 26.9006 103.298 26.9072 103.298 26.911C103.297 26.9166 103.295 26.9311 103.294 26.9401C103.292 26.9567 103.282 27.0143 103.272 27.0549C103.181 27.2883 102.083 27.7852 101.349 27.1115C101.323 27.0112 101.305 26.8809 101.304 26.853C101.303 26.8401 101.303 26.8197 101.303 26.8123C101.303 26.8074 101.303 26.7992 101.303 26.7959C101.303 26.7934 101.303 26.789 101.303 26.7871C101.303 26.783 101.303 26.7797 101.303 26.778C101.303 26.776 101.303 26.7745 101.303 26.7734C101.303 26.7715 101.304 26.77 101.304 26.7695C101.304 26.7683 101.304 26.7679 101.304 26.7686C101.303 26.7717 101.303 26.7792 101.302 26.7914C101.302 26.8031 101.301 26.8177 101.3 26.8346C101.299 26.8682 101.296 26.9096 101.294 26.951C101.292 26.9925 101.29 27.0338 101.288 27.0671C101.287 27.0838 101.286 27.0983 101.286 27.1097C101.286 27.1155 101.285 27.1203 101.285 27.1241C101.285 27.1282 101.285 27.1305 101.285 27.1315C101.285 27.1321 101.285 27.1314 101.285 27.1298C101.285 27.1291 101.285 27.1272 101.285 27.1245C101.285 27.1232 101.285 27.1209 101.286 27.1181C101.286 27.1169 101.286 27.1141 101.286 27.1125C101.286 27.1106 101.287 27.106 101.287 27.1034C101.287 27.0999 101.288 27.0913 101.289 27.0862C101.289 27.0782 101.292 27.056 101.294 27.0418C101.3 27.0095 101.348 26.8381 101.41 26.7063C102.317 26.1952 103.243 26.9171 103.275 27.0746C103.279 27.1088 103.282 27.1578 103.282 27.1726C103.283 27.1808 103.283 27.1942 103.283 27.1994C103.283 27.203 103.282 27.2092 103.282 27.2118C103.282 27.2138 103.282 27.2174 103.282 27.219C103.282 27.2224 103.282 27.2252 103.282 27.2267C103.282 27.2284 103.282 27.2298 103.282 27.2306C103.282 27.2324 103.282 27.2336 103.282 27.2341C103.282 27.235 103.282 27.2352 103.282 27.2342C103.282 27.2334 103.282 27.2321 103.282 27.2303C103.282 27.2266 103.282 27.2214 103.283 27.2144C103.284 27.1863 103.287 27.1346 103.291 27.0507L101.294 26.9493C101.289 27.0332 101.287 27.0865 101.285 27.1165C101.285 27.1241 101.284 27.1305 101.284 27.1356C101.284 27.1382 101.284 27.1407 101.284 27.1431C101.284 27.1452 101.284 27.1479 101.284 27.1507C101.283 27.1521 101.283 27.1541 101.283 27.1565C101.283 27.1577 101.283 27.1593 101.283 27.1613C101.283 27.1631 101.283 27.166 101.283 27.1696C101.283 27.1713 101.283 27.1749 101.283 27.177C101.283 27.1797 101.283 27.186 101.283 27.1896C101.283 27.1949 101.283 27.2083 101.283 27.2165C101.283 27.2313 101.286 27.2804 101.29 27.3146C101.322 27.4721 102.249 28.194 103.155 27.6829C103.217 27.5511 103.265 27.3797 103.271 27.3474C103.273 27.3331 103.276 27.3109 103.277 27.3029C103.277 27.2978 103.278 27.2891 103.278 27.2855C103.279 27.2829 103.279 27.2782 103.279 27.2762C103.279 27.2746 103.28 27.2717 103.28 27.2704C103.28 27.2674 103.28 27.2649 103.28 27.2633C103.28 27.2602 103.281 27.2576 103.281 27.2561C103.281 27.253 103.281 27.2502 103.281 27.2483C103.281 27.2442 103.282 27.2395 103.282 27.2348C103.282 27.2299 103.283 27.2243 103.283 27.2181C103.284 27.2056 103.284 27.1904 103.285 27.1733C103.287 27.1392 103.289 27.0973 103.291 27.0554C103.294 27.0135 103.296 26.9715 103.298 26.9371C103.299 26.9199 103.299 26.9045 103.3 26.8919C103.301 26.8798 103.301 26.8688 103.301 26.8612C103.302 26.8593 103.302 26.8566 103.302 26.8538C103.302 26.8524 103.302 26.8503 103.302 26.8477C103.302 26.8464 103.302 26.8446 103.302 26.8425C103.302 26.8405 103.302 26.8371 103.302 26.8328C103.303 26.8308 103.303 26.8264 103.303 26.8238C103.303 26.8204 103.303 26.8121 103.303 26.8073C103.303 26.7998 103.302 26.7794 103.302 26.7664C103.3 26.7385 103.282 26.6082 103.256 26.5079C102.523 25.8342 101.425 26.3311 101.333 26.5645C101.324 26.6051 101.314 26.6627 101.311 26.6794C101.31 26.6884 101.308 26.7029 101.308 26.7086C101.307 26.7124 101.307 26.7191 101.307 26.7219C101.306 26.7277 101.306 26.7324 101.306 26.7347C101.305 26.7373 101.305 26.7395 101.305 26.741C101.305 26.7439 101.305 26.7464 101.305 26.7478C101.304 26.7509 101.304 26.7537 101.304 26.7558C101.304 26.7581 101.304 26.7606 101.304 26.7632C101.303 26.7682 101.303 26.7745 101.303 26.7818C101.301 26.8111 101.298 26.8635 101.294 26.9463L103.291 27.0537ZM109.708 26H102.292V28H109.708V26ZM115.657 71.7211C115.648 71.6799 115.643 71.6529 115.64 71.6381C115.639 71.6344 115.638 71.6296 115.637 71.6247C115.637 71.6227 115.635 71.6176 115.634 71.6113C115.633 71.6087 115.632 71.6014 115.629 71.5922C115.628 71.5879 115.626 71.5786 115.623 71.5667C115.621 71.5609 115.617 71.5468 115.615 71.5387C115.611 71.5264 115.599 71.4937 115.592 71.4734C115.575 71.4329 115.493 71.2816 115.415 71.1792C114.856 70.8529 113.869 71.2194 113.681 71.623C113.666 71.7135 113.659 71.8404 113.66 71.8759C113.661 71.8945 113.663 71.9246 113.664 71.936C113.666 71.9565 113.669 71.9724 113.669 71.9775C113.67 71.9847 113.671 71.9905 113.672 71.9938C113.674 72.005 113.675 72.0141 113.676 72.0153C113.677 72.0211 113.678 72.0264 113.678 72.0292C113.682 72.0514 113.694 72.1071 113.704 72.1574C113.714 72.2081 113.725 72.2627 113.729 72.2839C113.73 72.2864 113.731 72.2911 113.732 72.2959C113.732 72.2967 113.734 72.3048 113.736 72.3145C113.736 72.3174 113.738 72.3228 113.739 72.3296C113.74 72.3328 113.742 72.3402 113.743 72.3445C113.745 72.3503 113.749 72.3648 113.751 72.3735C113.756 72.3875 113.769 72.4284 113.78 72.455C113.81 72.5251 114.188 72.9416 114.655 73.087C115.321 72.8798 115.705 72.1879 115.71 72.0875C115.709 72.0543 115.706 72.0046 115.705 71.9881C115.704 71.9784 115.702 71.9622 115.701 71.9557C115.7 71.9511 115.699 71.9431 115.699 71.9397C115.698 71.9324 115.697 71.9267 115.696 71.9237C115.695 71.9175 115.694 71.9126 115.694 71.9106C115.693 71.906 115.692 71.9022 115.692 71.9005C115.691 71.8964 115.691 71.8922 115.69 71.8887C115.687 71.8743 115.682 71.8476 115.674 71.806L113.712 72.194C113.72 72.2361 113.724 72.2592 113.726 72.2694C113.727 72.272 113.727 72.2723 113.727 72.2714C113.727 72.2712 113.726 72.2686 113.726 72.2648C113.725 72.2632 113.724 72.2587 113.723 72.2528C113.723 72.2499 113.722 72.2442 113.721 72.2371C113.721 72.2337 113.719 72.2257 113.719 72.2211C113.718 72.2147 113.716 72.1985 113.715 72.1888C113.713 72.1724 113.71 72.1227 113.71 72.0894C113.715 71.9891 114.099 71.2971 114.765 71.09C115.232 71.2354 115.61 71.6519 115.64 71.7219C115.65 71.7486 115.664 71.7894 115.668 71.8035C115.671 71.8121 115.675 71.8266 115.677 71.8324C115.678 71.8366 115.68 71.844 115.68 71.8471C115.682 71.8538 115.683 71.8592 115.684 71.862C115.685 71.8676 115.686 71.872 115.687 71.8736C115.687 71.8757 115.687 71.8773 115.688 71.8781C115.688 71.8808 115.688 71.8821 115.688 71.8802C115.685 71.8659 115.675 71.8175 115.665 71.765C115.66 71.7395 115.655 71.7142 115.65 71.6932C115.646 71.6711 115.643 71.6564 115.642 71.6506C115.642 71.6488 115.642 71.6507 115.643 71.6542C115.643 71.6553 115.643 71.6573 115.644 71.6598C115.644 71.6618 115.645 71.6668 115.646 71.6732C115.647 71.6764 115.647 71.6821 115.648 71.6892C115.649 71.6925 115.65 71.6999 115.651 71.7041C115.651 71.7096 115.653 71.7228 115.654 71.7305C115.655 71.7419 115.657 71.7719 115.658 71.7906C115.659 71.826 115.652 71.9529 115.637 72.0434C115.448 72.447 114.462 72.8135 113.902 72.4872C113.825 72.3848 113.743 72.2335 113.726 72.193C113.718 72.1727 113.707 72.1401 113.703 72.1278C113.701 72.1196 113.697 72.1057 113.695 72.0998C113.692 72.0881 113.69 72.0788 113.688 72.0746C113.686 72.0656 113.685 72.0587 113.684 72.0564C113.683 72.051 113.682 72.0469 113.682 72.0464C113.682 72.0446 113.681 72.0441 113.682 72.0465C113.684 72.0558 113.688 72.0781 113.697 72.1199L115.657 71.7211ZM98.2874 72.1994C98.2958 72.1579 98.3008 72.1335 98.3034 72.121C98.304 72.118 98.3044 72.1163 98.3045 72.1156C98.3046 72.1152 98.3046 72.1154 98.3044 72.1161C98.3043 72.1165 98.3038 72.1189 98.3031 72.1221C98.3028 72.1237 98.302 72.1271 98.301 72.1313C98.3005 72.1335 98.2997 72.1368 98.2987 72.1409C98.2983 72.1426 98.2974 72.1465 98.2968 72.1486C98.2962 72.1512 98.2947 72.1571 98.2938 72.1604C98.2927 72.1646 98.29 72.1744 98.2884 72.18C98.2861 72.188 98.28 72.2078 98.2761 72.2197C98.2692 72.2397 98.2458 72.2994 98.2279 72.3386C98.1637 72.4523 97.4922 72.8907 96.8228 72.7679C96.5097 72.4805 96.3322 72.0047 96.3272 71.9199C96.3273 71.8866 96.3295 71.8357 96.3308 71.8183C96.3318 71.8075 96.3338 71.7894 96.3346 71.7821C96.3353 71.7769 96.3365 71.7677 96.3371 71.7637C96.3383 71.7553 96.3393 71.7486 96.3399 71.7452C96.3405 71.7412 96.3411 71.738 96.3414 71.7359C96.3421 71.7318 96.3427 71.7285 96.343 71.7269C96.3436 71.7237 96.344 71.7214 96.3441 71.7209C96.3444 71.7197 96.3444 71.7195 96.3441 71.7211C96.3438 71.7225 96.3434 71.7244 96.3429 71.727C96.3419 71.7322 96.3405 71.7391 96.3389 71.7472C96.3357 71.7635 96.3316 71.7838 96.3275 71.8042C96.3234 71.8247 96.3194 71.8449 96.3161 71.8611C96.3144 71.8692 96.3131 71.876 96.312 71.8811C96.3115 71.8837 96.3111 71.8856 96.3108 71.8869C96.3105 71.8885 96.3106 71.8882 96.3108 71.8868C96.3109 71.8863 96.3115 71.8838 96.3123 71.8802C96.3127 71.8785 96.3135 71.8748 96.3146 71.8701C96.3151 71.8678 96.316 71.864 96.3171 71.8594C96.3176 71.8573 96.3188 71.8528 96.3194 71.8503C96.3202 71.8473 96.322 71.8402 96.3231 71.8362C96.3245 71.831 96.3281 71.8184 96.3302 71.8111C96.3335 71.8002 96.3428 71.7717 96.3491 71.7541C96.3621 71.7204 96.4208 71.5998 96.4736 71.5172C96.8731 71.1872 97.9355 71.3344 98.2551 71.8405C98.2775 71.9486 98.2885 72.0977 98.2877 72.1368C98.2867 72.1564 98.2844 72.1878 98.2832 72.1996C98.2824 72.2074 98.2808 72.2208 98.2801 72.2264C98.2795 72.2305 98.2785 72.238 98.278 72.2412C98.277 72.2482 98.2761 72.2538 98.2756 72.257C98.275 72.2604 98.2746 72.2633 98.2742 72.2652C98.2736 72.2689 98.2731 72.2719 98.2728 72.2733C98.2723 72.2763 98.2719 72.2784 98.2718 72.2787C98.2717 72.2793 98.2717 72.2795 98.2717 72.2791C98.2719 72.2782 98.2722 72.2764 98.2728 72.2733C98.2753 72.2606 98.2802 72.2358 98.2885 72.194L96.3265 71.806C96.3182 71.8478 96.3128 71.8754 96.3096 71.8916C96.3088 71.8957 96.3081 71.8996 96.3074 71.9032C96.307 71.905 96.3066 71.907 96.3062 71.9092C96.3059 71.9111 96.3053 71.9144 96.3046 71.9183C96.3042 71.9202 96.3036 71.9235 96.3029 71.9276C96.3026 71.9296 96.3021 71.9326 96.3015 71.9362C96.301 71.9394 96.3 71.9451 96.299 71.9523C96.2985 71.9555 96.2975 71.963 96.2969 71.9672C96.2962 71.9728 96.2946 71.9862 96.2938 71.9941C96.2927 72.0059 96.2903 72.0373 96.2893 72.0569C96.2885 72.096 96.2996 72.2451 96.3219 72.3532C96.6415 72.8594 97.7039 73.0065 98.1034 72.6765C98.1562 72.5939 98.2149 72.4733 98.2279 72.4396C98.2342 72.422 98.2435 72.3934 98.2468 72.3826C98.249 72.3752 98.2525 72.3626 98.254 72.3573C98.2551 72.3533 98.2569 72.3462 98.2577 72.3431C98.2584 72.3406 98.2595 72.336 98.26 72.334C98.2612 72.3293 98.2621 72.3254 98.2626 72.3229C98.2638 72.3179 98.2647 72.3139 98.2651 72.3118C98.2661 72.3075 98.2669 72.3039 98.2673 72.3021C98.2681 72.2982 98.2689 72.2943 98.2695 72.2915C98.2701 72.2884 98.2708 72.285 98.2715 72.2816C98.2729 72.2748 98.2745 72.2666 98.2763 72.2579C98.2799 72.2403 98.2842 72.2189 98.2884 72.1977C98.2927 72.1765 98.297 72.155 98.3005 72.1374C98.3023 72.1286 98.3039 72.1204 98.3052 72.1135C98.3059 72.1101 98.3066 72.1067 98.3072 72.1036C98.3077 72.1007 98.3085 72.0969 98.3092 72.093C98.3095 72.0912 98.3102 72.0879 98.3109 72.0838C98.3113 72.0818 98.3119 72.0782 98.3127 72.0738C98.3131 72.0715 98.3136 72.0682 98.3143 72.0641C98.3149 72.0606 98.3159 72.0538 98.3172 72.0453C98.3177 72.0413 98.3189 72.0321 98.3196 72.0268C98.3205 72.0195 98.3224 72.0014 98.3234 71.9906C98.3248 71.9731 98.327 71.9223 98.327 71.889C98.3221 71.8041 98.1445 71.3284 97.8314 71.0409C97.162 70.9181 96.4906 71.3565 96.4263 71.4702C96.4084 71.5094 96.385 71.5692 96.3781 71.5892C96.3742 71.6011 96.3681 71.6209 96.3658 71.6289C96.3642 71.6345 96.3615 71.6444 96.3604 71.6487C96.3595 71.6519 96.358 71.6579 96.3573 71.6605C96.3568 71.6627 96.3558 71.6666 96.3554 71.6684C96.3543 71.6726 96.3535 71.676 96.353 71.6783C96.3519 71.6829 96.3511 71.6866 96.3507 71.6886C96.3497 71.6927 96.349 71.6962 96.3486 71.6981C96.3481 71.7003 96.3477 71.7024 96.3473 71.7042C96.3466 71.7077 96.3457 71.7117 96.3449 71.7157C96.3416 71.7317 96.336 71.759 96.3276 71.8006L98.2874 72.1994ZM114.693 71H97.3075V73H114.693V71ZM74.0551 146C75.0344 146 75.8442 145.296 76.0316 144.372L74.0715 143.974C74.0693 143.985 74.064 143.993 74.0584 143.997C74.0558 144 74.0542 144 74.0542 144C74.0547 144 74.0554 144 74.0551 144V146ZM83.1249 107.405C82.7028 106.113 83.6662 104.785 85.0261 104.785V102.785C82.3062 102.785 80.3795 105.441 81.2236 108.026L83.1249 107.405ZM102.056 14.4834L101.427 12.5851C100.609 12.8565 100.056 13.6215 100.056 14.4834H102.056ZM102.056 17.6423H100.056C100.056 18.7469 100.952 19.6423 102.056 19.6423V17.6423ZM92.6627 79.5376C93.0834 80.6949 94.1832 81.4654 95.4146 81.4654V79.4654C95.0243 79.4654 94.6757 79.2212 94.5424 78.8543L92.6627 79.5376ZM101.756 90.8538C100.826 90.8538 100.025 91.4937 99.8082 92.3901L101.752 92.8598C101.753 92.8578 101.753 92.857 101.753 92.8566C101.754 92.8559 101.755 92.8551 101.755 92.8544C101.756 92.8537 101.757 92.8536 101.757 92.8537C101.756 92.8539 101.756 92.8538 101.756 92.8538V90.8538ZM119.58 78.8694C120.05 77.5774 119.093 76.2115 117.718 76.2115V78.2115C117.72 78.2115 117.719 78.2117 117.717 78.211C117.714 78.2103 117.711 78.2093 117.709 78.208C117.704 78.2055 117.703 78.2035 117.703 78.2035C117.703 78.2034 117.701 78.2014 117.701 78.1964C117.7 78.1936 117.7 78.1907 117.7 78.188C117.701 78.1851 117.701 78.1843 117.701 78.1861L119.58 78.8694ZM94.2995 78.1861C94.2988 78.1843 94.2993 78.1851 94.2996 78.188C94.2999 78.1907 94.2998 78.1936 94.2994 78.1964C94.2987 78.2014 94.2972 78.2034 94.2972 78.2035C94.2971 78.2035 94.2958 78.2055 94.2913 78.208C94.2889 78.2093 94.2861 78.2103 94.2835 78.211C94.2807 78.2117 94.2798 78.2115 94.2817 78.2115V76.2115C92.907 76.2115 91.9502 77.5774 92.4198 78.8694L94.2995 78.1861ZM130.776 108.026C131.621 105.441 129.694 102.785 126.974 102.785V104.785C128.334 104.785 129.297 106.113 128.875 107.405L130.776 108.026ZM58.8182 142.637C57.6494 143.915 58.5394 146 60.2937 146V144C60.289 144 60.2865 144 60.2858 144C60.2851 143.999 60.2855 143.999 60.2868 144C60.2898 144.001 60.293 144.002 60.2956 144.004C60.2978 144.006 60.2982 144.006 60.2972 144.005C60.2962 144.004 60.2945 144.001 60.2929 143.998C60.2913 143.994 60.2905 143.991 60.2901 143.989C60.2898 143.987 60.2901 143.986 60.2899 143.988C60.2896 143.99 60.2889 143.993 60.288 143.994C60.2876 143.995 60.2876 143.995 60.2882 143.994C60.2888 143.993 60.2905 143.991 60.2937 143.987L58.8182 142.637ZM111.944 14.4834C111.944 13.6215 111.391 12.8565 110.573 12.5851L109.944 14.4834H111.944ZM109.944 19.6423C111.048 19.6423 111.944 18.7469 111.944 17.6423H109.944V19.6423ZM117.458 78.8543C117.324 79.2212 116.976 79.4654 116.585 79.4654V81.4654C117.817 81.4654 118.917 80.6949 119.337 79.5376L117.458 78.8543ZM110.244 92.8538C110.244 92.8538 110.244 92.8539 110.243 92.8537C110.243 92.8536 110.244 92.8537 110.245 92.8544C110.245 92.8551 110.246 92.8559 110.247 92.8566C110.247 92.857 110.247 92.8578 110.248 92.8598L112.192 92.3901C111.975 91.4937 111.174 90.8538 110.244 90.8538V92.8538ZM137.945 144C137.945 144 137.945 144 137.946 144C137.946 144 137.944 144 137.942 143.997C137.936 143.993 137.931 143.985 137.929 143.974L135.968 144.372C136.156 145.296 136.966 146 137.945 146V144ZM151.706 143.987C151.71 143.991 151.711 143.993 151.712 143.994C151.712 143.995 151.712 143.995 151.712 143.994C151.711 143.993 151.71 143.99 151.71 143.988C151.71 143.986 151.71 143.987 151.71 143.989C151.71 143.991 151.709 143.994 151.707 143.998C151.706 144.001 151.704 144.004 151.703 144.005C151.702 144.006 151.702 144.006 151.704 144.004C151.707 144.002 151.71 144.001 151.713 144C151.715 143.999 151.715 143.999 151.714 144C151.714 144 151.711 144 151.706 144V146C153.461 146 154.351 143.915 153.182 142.637L151.706 143.987Z" fill="#FA3E31"/>
<path d="M5 146.154C4.44771 146.154 4 145.706 4 145.154C4 144.602 4.44771 144.154 5 144.154V146.154ZM161.5 144.154C162.052 144.154 162.5 144.602 162.5 145.154C162.5 145.706 162.052 146.154 161.5 146.154V144.154ZM5 144.154H161.5V146.154H5V144.154Z" fill="#FA3E31"/>
</svg>
