<svg width="156" height="146" viewBox="0 0 156 146" fill="none" xmlns="http://www.w3.org/2000/svg">
<path d="M16.4737 143.154V110.105M16.4737 143.154H7.00006V110.105C7.00006 104.873 11.2416 100.632 16.4737 100.632H64.7895C67.4056 100.632 69.5264 102.752 69.5264 105.368V105.368C69.5264 107.985 67.4056 110.105 64.7895 110.105H43.0001V143.154H16.4737Z" stroke="#FA3E31" stroke-width="2"/>
<circle r="9.47368" transform="matrix(-1 0 0 1 29.7373 85.4737)" stroke="#FA3E31" stroke-width="2"/>
<path d="M64 25H109C114.523 25 119 29.1787 119 34.3333V60.4667C119 65.6213 114.523 69.8 109 69.8H64L49 74L54 60.4667V34.3333C54 29.1787 58.4772 25 64 25Z" stroke="#FA3E31" stroke-width="2"/>
<path d="M107 34.5H103M66.5 34.5H70.5M107 42.5001C99.0919 42.5001 94.6581 42.5001 86.75 42.5001M66.5 42.5001H80.5M107 50.5H94.5M66.5 50.5H73M107 58.5001H82M66.5 58.5001H74.5M91.5 50.5H76M74.5 34.5H97.5" stroke="#FA3E31" stroke-width="2" stroke-linecap="round" stroke-linejoin="round"/>
<path d="M111.148 80.6346L110.181 80.8926L110.181 80.8926L111.148 80.6346ZM100.038 10.1346H99.0384C99.0384 10.5656 99.3145 10.9481 99.7236 11.0838L100.038 10.1346ZM101.038 2C101.038 1.44772 100.591 1 100.038 1C99.4861 1 99.0384 1.44772 99.0384 2H101.038ZM88.8525 80.6346L89.8186 80.8926L89.8186 80.8926L88.8525 80.6346ZM99.9617 10.1346L100.276 11.0838C100.686 10.9481 100.962 10.5656 100.962 10.1346H99.9617ZM100.962 2C100.962 1.44772 100.514 1 99.9617 1C99.4094 1 98.9617 1.44772 98.9617 2H100.962ZM108.677 69.9205L107.697 70.1199L108.677 69.9205ZM103.708 25L104.706 24.9493L103.708 25ZM96.2923 25L95.2936 24.9493L96.2923 25ZM108.693 70L109.674 69.806L109.514 69H108.693V70ZM76.1742 105.716L75.2236 106.026L76.1742 105.716ZM95.7417 11.5343L95.4269 10.5851L95.7417 11.5343ZM87.6025 77.196L86.6627 77.5376L87.6025 77.196ZM87.3596 76.5277L86.4198 76.8694L87.3596 76.5277ZM69.0516 142.173L68.0715 141.974L69.0516 142.173ZM53.556 141.312L52.8182 140.637L53.556 141.312ZM104.258 11.5343L104.573 10.5851L104.258 11.5343ZM112.64 76.5277L113.58 76.8694L112.64 76.5277ZM112.397 77.196L113.337 77.5376L112.397 77.196ZM94.7802 90.6249L95.7522 90.8598L94.7802 90.6249ZM105.22 90.6249L104.248 90.8598L105.22 90.6249ZM130.948 142.173L129.968 142.372L130.948 142.173ZM146.444 141.312L145.706 141.987L146.444 141.312ZM103.308 15.6423H96.6915V17.6423H103.308V15.6423ZM104.244 88.8538H100V90.8538H104.244V88.8538ZM113.337 77.5376L113.58 76.8694L111.701 76.1861L111.458 76.8543L113.337 77.5376ZM111.718 74.2115H109.804V76.2115H111.718V74.2115ZM109.804 74.2115H100V76.2115H109.804V74.2115ZM112.114 80.3766C111.923 79.6641 111.737 78.9459 111.555 78.2216L109.616 78.7092C109.8 79.4428 109.989 80.1705 110.181 80.8926L112.114 80.3766ZM110.585 77.4654H100V79.4654H110.585V77.4654ZM103.308 17.6423H103.944V15.6423H103.308V17.6423ZM105.944 15.6423V12.4834H103.944V15.6423H105.944ZM104.573 10.5851L100.353 9.18546L99.7236 11.0838L103.944 12.4834L104.573 10.5851ZM101.038 10.1346V2H99.0384V10.1346H101.038ZM109.437 101.461C108.112 97.5942 107.053 93.9553 106.192 90.3901L104.248 90.8598C105.124 94.4881 106.201 98.1865 107.544 102.109L109.437 101.461ZM100.038 102.785H108.49V100.785H100.038V102.785ZM122.875 105.405L121.68 109.067L123.581 109.687L124.776 106.026L122.875 105.405ZM147.182 140.637C137.123 129.643 129.423 119.544 123.505 108.891L121.756 109.863C127.774 120.693 135.58 130.919 145.706 141.987L147.182 140.637ZM100.038 110.377H122.63V108.377H100.038V110.377ZM119.662 101.362C116.602 94.7983 114.125 87.9066 112.114 80.3766L110.181 80.8926C112.22 88.5267 114.736 95.5294 117.849 102.207L119.662 101.362ZM108.49 102.785H118.756V100.785H108.49V102.785ZM118.756 102.785H120.974V100.785H118.756V102.785ZM131.945 144H145.706V142H131.945V144ZM99.9616 117.969C114.787 117.969 127.149 128.455 129.968 142.372L131.929 141.974C128.922 127.137 115.751 115.969 99.9616 115.969V117.969ZM95.7564 90.8538H100V88.8538H95.7564V90.8538ZM88.5424 76.8543L88.2995 76.1861L86.4198 76.8694L86.6627 77.5376L88.5424 76.8543ZM88.2816 76.2115H90.1963V74.2115H88.2816V76.2115ZM90.1963 76.2115H100V74.2115H90.1963V76.2115ZM89.8186 80.8926C90.0115 80.1705 90.2001 79.4428 90.3845 78.7092L88.4448 78.2216C88.2628 78.9459 88.0766 79.6641 87.8864 80.3766L89.8186 80.8926ZM89.4146 79.4654H100V77.4654H89.4146V79.4654ZM96.6915 15.6423H96.0565V17.6423H96.6915V15.6423ZM96.0565 15.6423V12.4834H94.0565V15.6423H96.0565ZM96.0565 12.4834L100.276 11.0838L99.6468 9.18546L95.4269 10.5851L96.0565 12.4834ZM100.962 10.1346V2H98.9617V10.1346H100.962ZM92.4556 102.109C93.799 98.1865 94.8755 94.4881 95.7522 90.8598L93.8082 90.3901C92.9467 93.9553 91.8878 97.5942 90.5635 101.461L92.4556 102.109ZM99.9617 100.785H91.5096V102.785H99.9617V100.785ZM75.2236 106.026L76.419 109.687L78.3202 109.067L77.1249 105.405L75.2236 106.026ZM54.2937 141.987C64.4205 130.919 72.2261 120.693 78.2437 109.863L76.4955 108.891C70.5768 119.544 62.8774 129.643 52.8182 140.637L54.2937 141.987ZM99.9617 108.377H77.3696V110.377H99.9617V108.377ZM82.1506 102.207C85.2639 95.5294 87.7798 88.5267 89.8186 80.8926L87.8864 80.3766C85.8753 87.9066 83.398 94.7983 80.338 101.362L82.1506 102.207ZM91.5096 100.785H81.2443V102.785H91.5096V100.785ZM81.2443 100.785H79.0261V102.785H81.2443V100.785ZM68.0551 142H54.2937V144H68.0551V142ZM100.038 115.969C84.2492 115.969 71.0779 127.137 68.0715 141.974L70.0316 142.372C72.8514 128.455 85.2125 117.969 100.038 117.969V115.969ZM110.778 74.988C110.464 73.619 109.947 71.1464 109.657 69.7211L107.697 70.1199C107.988 71.5478 108.509 74.0407 108.829 75.4351L110.778 74.988ZM91.171 75.4351C91.4907 74.041 91.9967 71.6278 92.2874 70.1994L90.3276 69.8006C90.0376 71.2254 89.5356 73.6188 89.2216 74.988L91.171 75.4351ZM104.706 24.9493C104.601 22.8721 104.399 18.7573 104.308 16.6001L102.309 16.6845C102.401 18.851 102.604 22.9734 102.709 25.0507L104.706 24.9493ZM97.291 25.0507C97.3964 22.9734 97.5992 18.851 97.6906 16.6845L95.6924 16.6001C95.6013 18.7573 95.399 22.8721 95.2936 24.9493L97.291 25.0507ZM104.706 24.9463C104.702 24.8635 104.699 24.8111 104.697 24.7818C104.697 24.7745 104.697 24.7682 104.696 24.7632C104.696 24.7606 104.696 24.7581 104.696 24.7558C104.696 24.7537 104.696 24.7509 104.695 24.7478C104.695 24.7464 104.695 24.7439 104.695 24.741C104.695 24.7395 104.695 24.7373 104.695 24.7347C104.694 24.7324 104.694 24.7277 104.693 24.7219C104.693 24.7191 104.693 24.7124 104.692 24.7086C104.692 24.7029 104.69 24.6884 104.689 24.6794C104.686 24.6627 104.676 24.6051 104.667 24.5645C104.575 24.3311 103.477 23.8342 102.744 24.5079C102.718 24.6082 102.7 24.7385 102.698 24.7664C102.698 24.7794 102.697 24.7998 102.697 24.8073C102.697 24.8121 102.697 24.8204 102.697 24.8238C102.697 24.8264 102.698 24.8308 102.698 24.8328C102.698 24.8371 102.698 24.8405 102.698 24.8425C102.698 24.8446 102.698 24.8464 102.698 24.8477C102.698 24.8503 102.698 24.8524 102.698 24.8538C102.698 24.8566 102.699 24.8593 102.699 24.8612C102.699 24.8688 102.699 24.8798 102.7 24.8919C102.701 24.9045 102.702 24.9199 102.702 24.9371C102.704 24.9715 102.706 25.0135 102.709 25.0554C102.711 25.0973 102.713 25.1392 102.715 25.1733C102.716 25.1904 102.716 25.2056 102.717 25.2181C102.717 25.2243 102.718 25.2299 102.718 25.2348C102.718 25.2395 102.719 25.2442 102.719 25.2483C102.719 25.2502 102.719 25.253 102.719 25.2561C102.719 25.2576 102.72 25.2602 102.72 25.2633C102.72 25.2649 102.72 25.2674 102.72 25.2704C102.72 25.2717 102.721 25.2746 102.721 25.2762C102.721 25.2782 102.721 25.2829 102.722 25.2855C102.722 25.2891 102.723 25.2978 102.723 25.3029C102.724 25.3109 102.727 25.3331 102.729 25.3474C102.735 25.3797 102.783 25.5511 102.845 25.6829C103.751 26.194 104.678 25.4721 104.71 25.3146C104.714 25.2804 104.717 25.2313 104.717 25.2165C104.717 25.2083 104.717 25.1949 104.717 25.1896C104.717 25.186 104.717 25.1797 104.717 25.177C104.717 25.1749 104.717 25.1713 104.717 25.1696C104.717 25.166 104.717 25.1631 104.717 25.1613C104.717 25.1593 104.717 25.1577 104.717 25.1565C104.717 25.1541 104.717 25.1521 104.716 25.1507C104.716 25.1479 104.716 25.1452 104.716 25.1431C104.716 25.1407 104.716 25.1382 104.716 25.1356C104.716 25.1305 104.715 25.1241 104.715 25.1165C104.713 25.0865 104.711 25.0332 104.706 24.9493L102.709 25.0507C102.713 25.1346 102.716 25.1863 102.717 25.2144C102.718 25.2214 102.718 25.2266 102.718 25.2303C102.718 25.2321 102.718 25.2334 102.718 25.2342C102.718 25.2352 102.718 25.235 102.718 25.2341C102.718 25.2336 102.718 25.2324 102.718 25.2307C102.718 25.2298 102.718 25.2284 102.718 25.2267C102.718 25.2252 102.718 25.2224 102.718 25.219C102.718 25.2174 102.718 25.2138 102.718 25.2118C102.718 25.2092 102.717 25.203 102.717 25.1994C102.717 25.1942 102.718 25.1808 102.718 25.1726C102.718 25.1578 102.721 25.1088 102.725 25.0746C102.757 24.9171 103.683 24.1952 104.59 24.7063C104.652 24.838 104.7 25.0095 104.706 25.0418C104.708 25.056 104.711 25.0782 104.712 25.0862C104.712 25.0913 104.713 25.0999 104.713 25.1034C104.713 25.106 104.714 25.1106 104.714 25.1125C104.714 25.1141 104.714 25.1169 104.714 25.1181C104.715 25.1209 104.715 25.1232 104.715 25.1245C104.715 25.1272 104.715 25.1291 104.715 25.1298C104.715 25.1314 104.715 25.1321 104.715 25.1315C104.715 25.1305 104.715 25.1282 104.715 25.1241C104.715 25.1203 104.715 25.1155 104.714 25.1097C104.714 25.0983 104.713 25.0838 104.712 25.0671C104.71 25.0338 104.708 24.9925 104.706 24.951C104.704 24.9096 104.701 24.8682 104.7 24.8346C104.699 24.8177 104.698 24.8031 104.698 24.7914C104.697 24.7792 104.697 24.7717 104.696 24.7686C104.696 24.7679 104.696 24.7683 104.696 24.7695C104.697 24.77 104.697 24.7715 104.697 24.7734C104.697 24.7745 104.697 24.776 104.697 24.778C104.697 24.7797 104.697 24.783 104.697 24.7871C104.697 24.789 104.697 24.7934 104.697 24.7959C104.697 24.7992 104.697 24.8074 104.697 24.8123C104.697 24.8197 104.697 24.8401 104.696 24.853C104.695 24.8809 104.677 25.0112 104.651 25.1115C103.917 25.7852 102.819 25.2883 102.728 25.0549C102.718 25.0143 102.708 24.9567 102.706 24.9401C102.705 24.9311 102.703 24.9166 102.702 24.911C102.702 24.9072 102.701 24.9006 102.701 24.8978C102.701 24.8921 102.7 24.8877 102.7 24.8856C102.7 24.8831 102.7 24.8812 102.7 24.88C102.7 24.8776 102.7 24.8759 102.699 24.8752C102.699 24.8739 102.699 24.8734 102.699 24.8742C102.699 24.8748 102.7 24.876 102.7 24.8777C102.7 24.8811 102.7 24.8861 102.7 24.8929C102.702 24.9201 102.705 24.9709 102.709 25.0537L104.706 24.9463ZM97.2908 25.0537C97.2953 24.9709 97.298 24.9201 97.2996 24.8929C97.2999 24.8861 97.3002 24.8811 97.3004 24.8777C97.3005 24.876 97.3006 24.8748 97.3006 24.8742C97.3007 24.8734 97.3006 24.8739 97.3006 24.8752C97.3005 24.8759 97.3004 24.8776 97.3002 24.88C97.3002 24.8812 97.3 24.8831 97.2998 24.8856C97.2997 24.8877 97.2993 24.8921 97.2988 24.8978C97.2986 24.9006 97.298 24.9072 97.2976 24.911C97.297 24.9166 97.2953 24.9311 97.2942 24.9401C97.2919 24.9567 97.2816 25.0143 97.2722 25.0549C97.1808 25.2883 96.0826 25.7852 95.3493 25.1115C95.3232 25.0112 95.3053 24.8809 95.3037 24.853C95.3032 24.8401 95.3028 24.8197 95.3027 24.8123C95.3027 24.8074 95.3028 24.7992 95.3028 24.7959C95.3029 24.7934 95.3029 24.789 95.303 24.7871C95.3031 24.783 95.3032 24.7797 95.3032 24.778C95.3033 24.776 95.3034 24.7745 95.3034 24.7734C95.3035 24.7715 95.3035 24.77 95.3035 24.7695C95.3036 24.7683 95.3036 24.7679 95.3036 24.7686C95.3034 24.7717 95.3031 24.7792 95.3025 24.7914C95.3019 24.8031 95.3011 24.8177 95.3003 24.8346C95.2985 24.8682 95.2964 24.9096 95.2942 24.951C95.2921 24.9925 95.2899 25.0338 95.2881 25.0671C95.2872 25.0838 95.2864 25.0983 95.2858 25.1097C95.2855 25.1155 95.2852 25.1203 95.285 25.1241C95.2848 25.1282 95.2847 25.1305 95.2846 25.1315C95.2846 25.1321 95.2846 25.1314 95.2847 25.1298C95.2848 25.1291 95.2849 25.1272 95.2851 25.1245C95.2852 25.1232 95.2853 25.1209 95.2855 25.1181C95.2856 25.1169 95.2859 25.1141 95.286 25.1125C95.2862 25.1106 95.2865 25.106 95.2868 25.1034C95.2871 25.0999 95.288 25.0913 95.2885 25.0862C95.2894 25.0782 95.2923 25.056 95.2944 25.0418C95.2999 25.0095 95.3483 24.838 95.4099 24.7063C96.3166 24.1952 97.2433 24.9171 97.2754 25.0746C97.2789 25.1088 97.2819 25.1578 97.2824 25.1726C97.2825 25.1808 97.2826 25.1942 97.2826 25.1994C97.2826 25.203 97.2825 25.2092 97.2825 25.2118C97.2824 25.2138 97.2823 25.2174 97.2823 25.219C97.2822 25.2224 97.2821 25.2252 97.2821 25.2267C97.282 25.2284 97.282 25.2298 97.2819 25.2307C97.2819 25.2324 97.2818 25.2336 97.2818 25.2341C97.2818 25.235 97.2818 25.2352 97.2818 25.2342C97.2818 25.2334 97.2819 25.2321 97.282 25.2303C97.2822 25.2266 97.2824 25.2214 97.2828 25.2144C97.2841 25.1863 97.2867 25.1346 97.291 25.0507L95.2936 24.9493C95.2893 25.0332 95.2866 25.0865 95.2852 25.1165C95.2848 25.1241 95.2845 25.1305 95.2842 25.1356C95.2841 25.1382 95.284 25.1407 95.2839 25.1431C95.2838 25.1452 95.2837 25.1479 95.2835 25.1507C95.2835 25.1521 95.2834 25.1541 95.2833 25.1565C95.2833 25.1577 95.2832 25.1593 95.2832 25.1613C95.2831 25.1631 95.283 25.166 95.2829 25.1696C95.2829 25.1713 95.2828 25.1749 95.2828 25.177C95.2827 25.1797 95.2826 25.186 95.2826 25.1896C95.2826 25.1949 95.2827 25.2083 95.2828 25.2165C95.2833 25.2313 95.2863 25.2804 95.2898 25.3146C95.3219 25.4721 96.2486 26.194 97.1553 25.6829C97.2169 25.5511 97.2653 25.3797 97.2709 25.3474C97.273 25.3331 97.2758 25.3109 97.2767 25.3029C97.2773 25.2978 97.2781 25.2891 97.2785 25.2855C97.2787 25.2829 97.2791 25.2782 97.2793 25.2762C97.2794 25.2746 97.2796 25.2717 97.2797 25.2704C97.28 25.2674 97.2801 25.2649 97.2803 25.2633C97.2805 25.2602 97.2806 25.2576 97.2807 25.2561C97.2809 25.253 97.2811 25.2502 97.2812 25.2483C97.2814 25.2442 97.2817 25.2395 97.282 25.2348C97.2822 25.2299 97.2826 25.2243 97.2829 25.2181C97.2836 25.2056 97.2844 25.1904 97.2853 25.1733C97.2871 25.1392 97.2893 25.0973 97.2915 25.0554C97.2937 25.0135 97.2959 24.9715 97.2976 24.9371C97.2985 24.9199 97.2993 24.9045 97.2999 24.8919C97.3005 24.8798 97.3011 24.8688 97.3014 24.8612C97.3015 24.8593 97.3017 24.8566 97.3018 24.8538C97.3018 24.8524 97.3019 24.8503 97.302 24.8477C97.3021 24.8464 97.3021 24.8446 97.3022 24.8425C97.3023 24.8405 97.3024 24.8371 97.3025 24.8328C97.3025 24.8308 97.3026 24.8264 97.3026 24.8238C97.3027 24.8204 97.3027 24.8121 97.3027 24.8073C97.3027 24.7998 97.3023 24.7794 97.3018 24.7664C97.3002 24.7385 97.2822 24.6082 97.2561 24.5079C96.5228 23.8342 95.4247 24.3311 95.3332 24.5645C95.3239 24.6051 95.3136 24.6627 95.3112 24.6794C95.3101 24.6884 95.3084 24.7029 95.3078 24.7086C95.3075 24.7124 95.3068 24.7191 95.3066 24.7219C95.3061 24.7277 95.3057 24.7324 95.3055 24.7347C95.3053 24.7373 95.3052 24.7395 95.3051 24.741C95.3049 24.7439 95.3047 24.7464 95.3046 24.7478C95.3044 24.7509 95.3042 24.7537 95.3041 24.7558C95.304 24.7581 95.3038 24.7606 95.3037 24.7632C95.3034 24.7682 95.3031 24.7745 95.3026 24.7818C95.301 24.8111 95.2982 24.8635 95.2937 24.9463L97.2908 25.0537ZM103.708 24H96.2923V26H103.708V24ZM109.657 69.7211C109.648 69.6799 109.643 69.6529 109.64 69.6381C109.639 69.6344 109.638 69.6296 109.637 69.6247C109.637 69.6227 109.635 69.6176 109.634 69.6113C109.633 69.6087 109.632 69.6014 109.629 69.5922C109.628 69.5879 109.626 69.5786 109.623 69.5667C109.621 69.5609 109.617 69.5468 109.615 69.5387C109.611 69.5264 109.599 69.4937 109.592 69.4734C109.575 69.4329 109.493 69.2816 109.415 69.1792C108.856 68.8528 107.869 69.2194 107.681 69.623C107.666 69.7135 107.659 69.8404 107.66 69.8759C107.661 69.8945 107.663 69.9246 107.664 69.936C107.666 69.9565 107.669 69.9724 107.669 69.9775C107.67 69.9847 107.671 69.9905 107.672 69.9938C107.674 70.005 107.675 70.0141 107.676 70.0153C107.677 70.0211 107.678 70.0264 107.678 70.0292C107.682 70.0514 107.694 70.1071 107.704 70.1574C107.714 70.2081 107.725 70.2628 107.729 70.2839C107.73 70.2864 107.731 70.2911 107.732 70.2959C107.732 70.2967 107.734 70.3048 107.736 70.3145C107.736 70.3174 107.738 70.3228 107.739 70.3296C107.74 70.3328 107.742 70.3402 107.743 70.3445C107.745 70.3503 107.749 70.3648 107.751 70.3735C107.756 70.3875 107.769 70.4284 107.78 70.455C107.81 70.5251 108.188 70.9416 108.655 71.087C109.321 70.8798 109.705 70.1879 109.71 70.0875C109.709 70.0543 109.706 70.0046 109.705 69.9881C109.704 69.9784 109.702 69.9622 109.701 69.9557C109.7 69.9511 109.699 69.9431 109.699 69.9397C109.698 69.9324 109.697 69.9267 109.696 69.9237C109.695 69.9175 109.694 69.9126 109.694 69.9106C109.693 69.906 109.692 69.9022 109.692 69.9005C109.691 69.8964 109.691 69.8922 109.69 69.8887C109.687 69.8743 109.682 69.8476 109.674 69.806L107.712 70.194C107.72 70.2361 107.724 70.2592 107.726 70.2694C107.727 70.272 107.727 70.2723 107.727 70.2714C107.727 70.2712 107.726 70.2686 107.726 70.2648C107.725 70.2632 107.724 70.2587 107.724 70.2528C107.723 70.2499 107.722 70.2442 107.721 70.2371C107.721 70.2337 107.719 70.2257 107.719 70.2211C107.718 70.2147 107.716 70.1985 107.715 70.1888C107.713 70.1724 107.71 70.1227 107.71 70.0894C107.715 69.9891 108.099 69.2971 108.765 69.09C109.232 69.2354 109.61 69.6519 109.64 69.7219C109.65 69.7486 109.664 69.7894 109.668 69.8035C109.671 69.8121 109.675 69.8266 109.677 69.8324C109.678 69.8366 109.68 69.844 109.68 69.8471C109.682 69.8538 109.683 69.8592 109.684 69.862C109.685 69.8676 109.686 69.872 109.687 69.8736C109.687 69.8757 109.687 69.8773 109.688 69.8781C109.688 69.8808 109.688 69.8821 109.688 69.8802C109.685 69.8659 109.675 69.8175 109.665 69.765C109.66 69.7395 109.655 69.7142 109.65 69.6932C109.646 69.6711 109.643 69.6564 109.642 69.6506C109.642 69.6489 109.642 69.6507 109.643 69.6542C109.643 69.6553 109.643 69.6573 109.644 69.6598C109.644 69.6618 109.645 69.6668 109.646 69.6732C109.647 69.6764 109.647 69.6821 109.648 69.6892C109.649 69.6925 109.65 69.6999 109.651 69.7041C109.651 69.7096 109.653 69.7228 109.654 69.7305C109.655 69.7419 109.657 69.7719 109.658 69.7906C109.659 69.826 109.652 69.9529 109.637 70.0434C109.448 70.447 108.462 70.8135 107.902 70.4872C107.825 70.3848 107.743 70.2335 107.726 70.193C107.718 70.1727 107.707 70.1401 107.703 70.1278C107.701 70.1196 107.697 70.1057 107.695 70.0998C107.692 70.0881 107.69 70.0788 107.688 70.0746C107.686 70.0656 107.685 70.0587 107.684 70.0564C107.683 70.051 107.682 70.0469 107.682 70.0464C107.682 70.0446 107.681 70.0441 107.682 70.0465C107.684 70.0558 107.688 70.0781 107.697 70.1199L109.657 69.7211ZM92.2874 70.1994C92.2958 70.1579 92.3008 70.1335 92.3034 70.121C92.304 70.118 92.3044 70.1163 92.3045 70.1156C92.3046 70.1152 92.3046 70.1155 92.3044 70.1161C92.3043 70.1165 92.3038 70.1189 92.3031 70.1221C92.3028 70.1237 92.302 70.1271 92.301 70.1313C92.3005 70.1335 92.2997 70.1368 92.2987 70.1409C92.2983 70.1426 92.2974 70.1465 92.2968 70.1486C92.2962 70.1512 92.2947 70.1571 92.2938 70.1604C92.2927 70.1646 92.29 70.1744 92.2884 70.18C92.2861 70.188 92.28 70.2078 92.2761 70.2197C92.2692 70.2397 92.2458 70.2994 92.2279 70.3386C92.1637 70.4523 91.4922 70.8907 90.8228 70.7679C90.5097 70.4805 90.3322 70.0047 90.3272 69.9199C90.3273 69.8865 90.3295 69.8357 90.3308 69.8183C90.3318 69.8075 90.3338 69.7894 90.3346 69.7821C90.3353 69.7769 90.3365 69.7677 90.3371 69.7637C90.3383 69.7553 90.3393 69.7486 90.3399 69.7452C90.3405 69.7412 90.3411 69.738 90.3414 69.7359C90.3421 69.7317 90.3427 69.7285 90.343 69.7269C90.3436 69.7237 90.344 69.7214 90.3441 69.7209C90.3444 69.7197 90.3444 69.7195 90.3441 69.7211C90.3438 69.7225 90.3434 69.7244 90.3429 69.727C90.3419 69.7322 90.3405 69.7391 90.3389 69.7472C90.3357 69.7635 90.3316 69.7838 90.3275 69.8042C90.3234 69.8247 90.3194 69.8449 90.3161 69.8611C90.3144 69.8692 90.3131 69.876 90.312 69.8811C90.3115 69.8837 90.3111 69.8856 90.3108 69.8869C90.3105 69.8885 90.3106 69.8882 90.3108 69.8868C90.3109 69.8863 90.3115 69.8838 90.3123 69.8802C90.3127 69.8785 90.3135 69.8748 90.3146 69.8701C90.3151 69.8678 90.316 69.864 90.3171 69.8594C90.3176 69.8573 90.3188 69.8528 90.3194 69.8503C90.3202 69.8473 90.322 69.8402 90.3231 69.8362C90.3245 69.831 90.3281 69.8184 90.3302 69.8111C90.3335 69.8002 90.3428 69.7717 90.3491 69.7541C90.3621 69.7204 90.4208 69.5998 90.4736 69.5172C90.8731 69.1872 91.9355 69.3343 92.2551 69.8405C92.2775 69.9486 92.2885 70.0977 92.2877 70.1368C92.2867 70.1564 92.2844 70.1878 92.2832 70.1996C92.2824 70.2074 92.2808 70.2208 92.2801 70.2264C92.2795 70.2305 92.2785 70.238 92.278 70.2412C92.277 70.2482 92.2761 70.2538 92.2756 70.257C92.275 70.2604 92.2746 70.2633 92.2742 70.2652C92.2736 70.2689 92.2731 70.2719 92.2728 70.2733C92.2723 70.2763 92.2719 70.2784 92.2718 70.2787C92.2717 70.2793 92.2717 70.2795 92.2717 70.2791C92.2719 70.2782 92.2722 70.2764 92.2728 70.2733C92.2753 70.2606 92.2802 70.2358 92.2885 70.194L90.3265 69.806C90.3182 69.8478 90.3128 69.8754 90.3096 69.8916C90.3088 69.8957 90.3081 69.8996 90.3074 69.9032C90.307 69.905 90.3066 69.907 90.3062 69.9092C90.3059 69.9111 90.3053 69.9144 90.3046 69.9183C90.3042 69.9202 90.3036 69.9235 90.3029 69.9276C90.3026 69.9296 90.3021 69.9326 90.3015 69.9362C90.301 69.9394 90.3 69.9451 90.299 69.9523C90.2985 69.9555 90.2975 69.963 90.2969 69.9672C90.2962 69.9728 90.2946 69.9862 90.2938 69.9941C90.2927 70.0059 90.2903 70.0373 90.2893 70.0569C90.2885 70.096 90.2996 70.2451 90.3219 70.3532C90.6415 70.8594 91.7039 71.0065 92.1034 70.6765C92.1562 70.5939 92.2149 70.4733 92.2279 70.4396C92.2342 70.422 92.2435 70.3934 92.2468 70.3826C92.249 70.3752 92.2525 70.3626 92.254 70.3573C92.2551 70.3534 92.2569 70.3462 92.2577 70.3431C92.2584 70.3406 92.2595 70.336 92.26 70.334C92.2612 70.3293 92.2621 70.3254 92.2626 70.3229C92.2638 70.3179 92.2647 70.3139 92.2651 70.3118C92.2661 70.3075 92.2669 70.3039 92.2673 70.3021C92.2681 70.2982 92.2689 70.2943 92.2695 70.2915C92.2701 70.2884 92.2708 70.285 92.2715 70.2816C92.2729 70.2748 92.2745 70.2667 92.2763 70.2579C92.2799 70.2403 92.2842 70.2189 92.2884 70.1977C92.2927 70.1765 92.297 70.155 92.3005 70.1374C92.3023 70.1286 92.3039 70.1204 92.3052 70.1135C92.3059 70.1101 92.3066 70.1067 92.3072 70.1036C92.3077 70.1007 92.3085 70.0969 92.3092 70.093C92.3095 70.0912 92.3102 70.0878 92.3109 70.0838C92.3113 70.0818 92.3119 70.0782 92.3127 70.0738C92.3131 70.0715 92.3136 70.0682 92.3143 70.0642C92.3149 70.0606 92.3159 70.0538 92.3171 70.0453C92.3177 70.0413 92.3189 70.0321 92.3196 70.0268C92.3205 70.0195 92.3224 70.0014 92.3234 69.9906C92.3248 69.9731 92.327 69.9223 92.327 69.889C92.3221 69.8041 92.1445 69.3284 91.8314 69.0409C91.162 68.9181 90.4906 69.3565 90.4263 69.4702C90.4084 69.5094 90.385 69.5692 90.3781 69.5892C90.3742 69.6011 90.3681 69.621 90.3658 69.6289C90.3642 69.6345 90.3615 69.6444 90.3604 69.6487C90.3595 69.652 90.358 69.6579 90.3573 69.6605C90.3568 69.6627 90.3558 69.6666 90.3554 69.6684C90.3543 69.6726 90.3535 69.676 90.353 69.6783C90.3519 69.6829 90.3511 69.6866 90.3507 69.6886C90.3497 69.6927 90.349 69.6962 90.3486 69.6981C90.3481 69.7003 90.3477 69.7024 90.3473 69.7042C90.3466 69.7077 90.3457 69.7117 90.3449 69.7157C90.3416 69.7317 90.336 69.759 90.3276 69.8006L92.2874 70.1994ZM108.693 69H91.3075V71H108.693V69ZM77.1249 105.405C76.7028 104.113 77.6662 102.785 79.0261 102.785V100.785C76.3062 100.785 74.3795 103.441 75.2236 106.026L77.1249 105.405ZM96.0565 12.4834L96.0565 12.4834L95.4269 10.5851C94.6087 10.8565 94.0565 11.6215 94.0565 12.4834H96.0565ZM86.6627 77.5376C87.0834 78.6949 88.1832 79.4654 89.4146 79.4654V77.4654C89.0243 77.4654 88.6757 77.2212 88.5424 76.8543L86.6627 77.5376ZM88.2995 76.1861C88.2988 76.1843 88.2993 76.1851 88.2996 76.188C88.2999 76.1907 88.2998 76.1936 88.2994 76.1964C88.2987 76.2014 88.2972 76.2034 88.2972 76.2035C88.2971 76.2035 88.2958 76.2055 88.2913 76.208C88.2889 76.2093 88.2861 76.2103 88.2835 76.211C88.2807 76.2117 88.2798 76.2115 88.2816 76.2115V74.2115C86.907 74.2115 85.9502 75.5774 86.4198 76.8694L88.2995 76.1861ZM68.0551 144C69.0344 144 69.8442 143.296 70.0316 142.372L68.0715 141.974C68.0693 141.985 68.064 141.993 68.0584 141.997C68.0558 142 68.0542 142 68.0542 142C68.0547 142 68.0554 142 68.0551 142V144ZM124.776 106.026C125.621 103.441 123.694 100.785 120.974 100.785V102.785C122.334 102.785 123.297 104.113 122.875 105.405L124.776 106.026ZM52.8182 140.637C51.6494 141.915 52.5394 144 54.2937 144V142C54.289 142 54.2865 142 54.2858 142C54.2851 141.999 54.2855 141.999 54.2868 142C54.2898 142.001 54.293 142.002 54.2956 142.004C54.2978 142.006 54.2982 142.006 54.2972 142.005C54.2962 142.004 54.2945 142.001 54.2929 141.998C54.2913 141.994 54.2905 141.991 54.2901 141.989C54.2898 141.987 54.2901 141.986 54.2899 141.988C54.2896 141.99 54.2889 141.993 54.288 141.994C54.2876 141.995 54.2876 141.995 54.2882 141.994C54.2888 141.993 54.2905 141.991 54.2937 141.987L52.8182 140.637ZM105.944 12.4834C105.944 11.6215 105.391 10.8565 104.573 10.5851L103.944 12.4834L103.944 12.4834H105.944ZM103.944 17.6423C105.048 17.6423 105.944 16.7469 105.944 15.6423H103.944L103.944 15.6423V17.6423ZM113.58 76.8694C114.05 75.5774 113.093 74.2115 111.718 74.2115V76.2115C111.72 76.2115 111.719 76.2117 111.717 76.211C111.714 76.2103 111.711 76.2093 111.709 76.208C111.704 76.2055 111.703 76.2035 111.703 76.2035C111.703 76.2034 111.701 76.2014 111.701 76.1964C111.7 76.1936 111.7 76.1907 111.7 76.188C111.701 76.1851 111.701 76.1843 111.701 76.1861L113.58 76.8694ZM96.0565 15.6423L96.0565 15.6423H94.0565C94.0565 16.7469 94.9519 17.6423 96.0565 17.6423V15.6423ZM111.458 76.8543C111.324 77.2212 110.976 77.4654 110.585 77.4654V79.4654C111.817 79.4654 112.917 78.6949 113.337 77.5376L111.458 76.8543ZM95.7564 88.8538C94.8262 88.8538 94.0248 89.4937 93.8082 90.3901L95.7522 90.8598C95.7527 90.8578 95.7532 90.857 95.7535 90.8566C95.7539 90.8559 95.7546 90.8551 95.7555 90.8544C95.7563 90.8537 95.7568 90.8536 95.7565 90.8537C95.756 90.8539 95.7556 90.8538 95.7564 90.8538V88.8538ZM104.244 90.8538C104.244 90.8538 104.244 90.8539 104.243 90.8537C104.243 90.8536 104.244 90.8537 104.245 90.8544C104.245 90.8551 104.246 90.8559 104.247 90.8566C104.247 90.857 104.247 90.8578 104.248 90.8598L106.192 90.3901C105.975 89.4937 105.174 88.8538 104.244 88.8538V90.8538ZM131.945 142C131.945 142 131.945 142 131.946 142C131.946 142 131.944 142 131.942 141.997C131.936 141.993 131.931 141.985 131.929 141.974L129.968 142.372C130.156 143.296 130.966 144 131.945 144V142ZM145.706 141.987C145.71 141.991 145.711 141.993 145.712 141.994C145.712 141.995 145.712 141.995 145.712 141.994C145.711 141.993 145.71 141.99 145.71 141.988C145.71 141.986 145.71 141.987 145.71 141.989C145.71 141.991 145.709 141.994 145.707 141.998C145.706 142.001 145.704 142.004 145.703 142.005C145.702 142.006 145.702 142.006 145.704 142.004C145.707 142.002 145.71 142.001 145.713 142C145.715 141.999 145.715 141.999 145.714 142C145.714 142 145.711 142 145.706 142V144C147.461 144 148.351 141.915 147.182 140.637L145.706 141.987Z" fill="#FA3E31"/>
<path d="M1 142C0.447719 142 3.30806e-06 142.448 3.30806e-06 143C3.30806e-06 143.552 0.447719 144 1 144V142ZM155 144C155.552 144 156 143.552 156 143C156 142.448 155.552 142 155 142V144ZM1 144L155 144V142L1 142V144Z" fill="#FA3E31"/>
</svg>
