<svg width="156" height="146" viewBox="0 0 156 146" fill="none" xmlns="http://www.w3.org/2000/svg">
<path d="M64.278 35.9721V36.9721H64.6922L64.9851 36.6792L64.278 35.9721ZM46.2224 35.9721L45.5153 36.6792L45.8082 36.9721H46.2224V35.9721ZM46.2224 44.3055H47.2224V43.8913L46.9295 43.5984L46.2224 44.3055ZM64.278 44.3055L63.5709 43.5984L63.278 43.8913V44.3055H64.278ZM51.4585 36.9721C52.0108 36.9721 52.4585 36.5244 52.4585 35.9721C52.4585 35.4199 52.0108 34.9721 51.4585 34.9721V36.9721ZM54.7085 34.9721C54.1563 34.9721 53.7085 35.4199 53.7085 35.9721C53.7085 36.5244 54.1563 36.9721 54.7085 36.9721V34.9721ZM64.278 59.8695L63.8728 60.7837L65.278 61.4065V59.8695H64.278ZM46.2224 51.8672H45.2224V52.5178L45.8172 52.7815L46.2224 51.8672ZM30.2502 28.3333L29.5431 29.0404L30.2502 28.3333ZM34.4169 24.1666L33.7098 24.8737L34.4169 24.1666ZM80.2502 28.3333L80.9573 29.0404L80.2502 28.3333ZM76.0835 24.1666L75.3764 23.4595L76.0835 24.1666ZM64.9851 36.6792L76.7906 24.8737L75.3764 23.4595L63.5709 35.265L64.9851 36.6792ZM46.9295 35.265L35.124 23.4595L33.7098 24.8737L45.5153 36.6792L46.9295 35.265ZM46.9295 43.5984L30.9573 27.6261L29.5431 29.0404L45.5153 45.0126L46.9295 43.5984ZM51.4585 34.9721H46.2224V36.9721H51.4585V34.9721ZM64.278 34.9721H54.7085V36.9721H64.278V34.9721ZM64.9851 45.0126L68.1657 41.832L66.7515 40.4178L63.5709 43.5984L64.9851 45.0126ZM74.374 35.6237L80.9573 29.0404L79.5431 27.6261L72.9598 34.2095L74.374 35.6237ZM65.278 45.6128V44.3055H63.278V45.6128H65.278ZM65.278 59.8695V51.9582H63.278V59.8695H65.278ZM45.2224 44.3055V51.8672H47.2224V44.3055H45.2224ZM64.6832 58.9552L46.6276 50.953L45.8172 52.7815L63.8728 60.7837L64.6832 58.9552ZM29.5431 23.4595C28.002 25.0006 28.002 27.4992 29.5431 29.0404L30.9573 27.6261C30.1972 26.8661 30.1972 25.6338 30.9573 24.8737L29.5431 23.4595ZM35.124 23.4595C33.5829 21.9184 31.0842 21.9184 29.5431 23.4595L30.9573 24.8737C31.7174 24.1136 32.9497 24.1136 33.7098 24.8737L35.124 23.4595ZM79.5431 24.8737C80.3032 25.6338 80.3032 26.8661 79.5431 27.6261L80.9573 29.0404C82.4984 27.4992 82.4984 25.0006 80.9573 23.4595L79.5431 24.8737ZM76.7906 24.8737C77.5507 24.1136 78.783 24.1136 79.5431 24.8737L80.9573 23.4595C79.4162 21.9184 76.9175 21.9184 75.3764 23.4595L76.7906 24.8737Z" fill="#FA3E31"/>
<circle cx="55.2504" cy="26.25" r="6.25" stroke="#FA3E31" stroke-width="2"/>
<path d="M64.312 45.8085H78.7908L88.2577 36.3415C89.1804 35.4189 90.6763 35.4189 91.599 36.3415C92.5217 37.2642 92.5217 38.7601 91.599 39.6828L78.7908 52.491V66.285L64.312 59.936V52.491L51.5038 39.6828C50.5811 38.7601 50.5811 37.2642 51.5038 36.3415C52.4264 35.4189 53.9224 35.4189 54.845 36.3415L64.312 45.8085Z" stroke="#FA3E31" stroke-width="2"/>
<circle cx="71.4998" cy="38.4168" r="4.33333" stroke="#FA3E31" stroke-width="2"/>
<path d="M83.4167 89.6944L127.858 104.508C131.764 105.81 136.067 104.586 138.703 101.423L152.687 84.642C154.182 82.8487 153.215 80.1095 150.926 79.6517V79.6517C147.179 78.9023 143.292 79.3333 139.8 80.8852L130.54 85.0005C127.438 86.3795 123.896 86.3795 120.793 85.0005L35.6884 47.1762C30.7593 44.9855 25.3313 44.0474 19.9875 44.7818C13.4815 45.6759 8.74446 46.7887 3.66285 48.7785C1.5568 49.6032 0.54288 51.9619 1.2581 54.1076V54.1076C3.194 59.9153 7.75133 64.4727 13.5591 66.4086L47.6667 77.7778" stroke="#FA3E31" stroke-width="2" stroke-linecap="round" stroke-linejoin="round"/>
<path d="M38.2407 68.3175C37.8813 67.8982 37.9299 67.2669 38.3492 66.9075C38.7685 66.5481 39.3998 66.5966 39.7593 67.016L38.2407 68.3175ZM77.1107 80.0408C76.8581 79.5496 77.0515 78.9467 77.5427 78.6941C78.0338 78.4415 78.6367 78.6349 78.8893 79.1261L77.1107 80.0408ZM39.7593 67.016L70.6444 103.049L69.1259 104.35L38.2407 68.3175L39.7593 67.016ZM93.1776 111.282L77.1107 80.0408L78.8893 79.1261L94.9562 110.367L93.1776 111.282ZM90.3892 114.896C92.4742 115.359 94.1545 113.181 93.1776 111.282L94.9562 110.367C96.7081 113.774 93.6947 117.679 89.9553 116.848L90.3892 114.896ZM70.6444 103.049C75.771 109.03 82.6993 113.187 90.3892 114.896L89.9553 116.848C81.843 115.045 74.5341 110.66 69.1259 104.35L70.6444 103.049Z" fill="#FA3E31"/>
<path d="M93.6306 72.8859C93.1414 73.1422 92.5371 72.9533 92.2808 72.4641C92.0245 71.9749 92.2134 71.3705 92.7026 71.1143L93.6306 72.8859ZM110.497 62.9225L110.033 62.0367L110.497 62.9225ZM110.961 63.8083L93.6306 72.8859L92.7026 71.1143L110.033 62.0367L110.961 63.8083ZM78.7029 58.5067L88.7153 56.1824L89.1676 58.1306L79.1552 60.4549L78.7029 58.5067ZM110.428 57.1999C113.442 58.2044 113.775 62.3343 110.961 63.8083L110.033 62.0367C111.284 61.381 111.136 59.544 109.796 59.0972L110.428 57.1999ZM109.796 59.0972C103.14 56.8788 96.0012 56.5442 89.1676 58.1306L88.7153 56.1824C95.9083 54.5126 103.423 54.8648 110.428 57.1999L109.796 59.0972Z" fill="#FA3E31"/>
<path d="M17.3334 46C18.9584 49.25 22.75 52.5 30.3334 53.5833" stroke="#FA3E31" stroke-width="2" stroke-linecap="round" stroke-linejoin="round"/>
<path d="M20.5831 75.25L47.6664 84.2778L55.5303 86.8991M123.5 109.555L87.2081 97.4583" stroke="#FA3E31" stroke-width="1.5" stroke-linecap="round" stroke-linejoin="round"/>
<path d="M47.6664 89.6942L31.4164 84.2776M108.875 110.097L90.4585 103.958" stroke="#FA3E31" stroke-width="1.5" stroke-linecap="round" stroke-linejoin="round"/>
<path d="M47.6664 95.1111L68.4219 102.03M21.1248 86.2639L40.6248 92.7639M99.1248 112.264L116.729 118.132L125.531 121.066" stroke="#FA3E31" stroke-width="1.5" stroke-linecap="round" stroke-linejoin="round"/>
<path d="M47.6664 100.528L35.2081 96.375M92.6248 115.514L100.208 118.042M77.1617 110.36L56.3331 103.417M114.291 122.736L124.312 126.076" stroke="#FA3E31" stroke-width="1.5" stroke-linecap="round" stroke-linejoin="round"/>
</svg>
