<svg width="156" height="146" viewBox="0 0 156 146" fill="none" xmlns="http://www.w3.org/2000/svg">
<path d="M64.2781 35.9721V36.9721H64.6923L64.9852 36.6792L64.2781 35.9721ZM46.2225 35.9721L45.5154 36.6792L45.8083 36.9721H46.2225V35.9721ZM46.2225 44.3055H47.2225V43.8913L46.9297 43.5984L46.2225 44.3055ZM64.2781 44.3055L63.571 43.5984L63.2781 43.8913V44.3055H64.2781ZM51.4587 36.9721C52.0109 36.9721 52.4587 36.5244 52.4587 35.9721C52.4587 35.4199 52.0109 34.9721 51.4587 34.9721V36.9721ZM54.7087 34.9721C54.1564 34.9721 53.7087 35.4199 53.7087 35.9721C53.7087 36.5244 54.1564 36.9721 54.7087 36.9721V34.9721ZM64.2781 59.8695L63.8729 60.7837L65.2781 61.4065V59.8695H64.2781ZM46.2225 51.8672H45.2225V52.5178L45.8174 52.7815L46.2225 51.8672ZM30.2503 28.3333L29.5432 29.0404L30.2503 28.3333ZM34.417 24.1666L33.7099 24.8737L34.417 24.1666ZM80.2503 28.3333L80.9574 29.0404L80.2503 28.3333ZM76.0837 24.1666L75.3766 23.4595L76.0837 24.1666ZM64.9852 36.6792L76.7908 24.8737L75.3766 23.4595L63.571 35.265L64.9852 36.6792ZM46.9297 35.265L35.1241 23.4595L33.7099 24.8737L45.5154 36.6792L46.9297 35.265ZM46.9297 43.5984L30.9574 27.6261L29.5432 29.0404L45.5154 45.0126L46.9297 43.5984ZM51.4587 34.9721H46.2225V36.9721H51.4587V34.9721ZM64.2781 34.9721H54.7087V36.9721H64.2781V34.9721ZM64.9852 45.0126L68.1658 41.832L66.7516 40.4178L63.571 43.5984L64.9852 45.0126ZM74.3741 35.6237L80.9574 29.0404L79.5432 27.6261L72.9599 34.2095L74.3741 35.6237ZM65.2781 45.6128V44.3055H63.2781V45.6128H65.2781ZM65.2781 59.8695V51.9582H63.2781V59.8695H65.2781ZM45.2225 44.3055V51.8672H47.2225V44.3055H45.2225ZM64.6833 58.9552L46.6277 50.953L45.8174 52.7815L63.8729 60.7837L64.6833 58.9552ZM29.5432 23.4595C28.0021 25.0006 28.0021 27.4992 29.5432 29.0404L30.9574 27.6261C30.1974 26.8661 30.1974 25.6338 30.9574 24.8737L29.5432 23.4595ZM35.1241 23.4595C33.583 21.9184 31.0843 21.9184 29.5432 23.4595L30.9574 24.8737C31.7175 24.1136 32.9498 24.1136 33.7099 24.8737L35.1241 23.4595ZM79.5432 24.8737C80.3033 25.6338 80.3033 26.8661 79.5432 27.6261L80.9574 29.0404C82.4986 27.4992 82.4986 25.0006 80.9574 23.4595L79.5432 24.8737ZM76.7908 24.8737C77.5508 24.1136 78.7832 24.1136 79.5432 24.8737L80.9574 23.4595C79.4163 21.9184 76.9177 21.9184 75.3766 23.4595L76.7908 24.8737Z" fill="#A92318"/>
<circle cx="55.2505" cy="26.25" r="6.25" stroke="#A92318" stroke-width="2"/>
<path d="M64.3118 45.8085H78.7907L88.2576 36.3415C89.1803 35.4189 90.6762 35.4189 91.5989 36.3415C92.5215 37.2642 92.5215 38.7601 91.5989 39.6828L78.7907 52.491V66.285L64.3118 59.936V52.491L51.5036 39.6828C50.581 38.7601 50.581 37.2642 51.5036 36.3415C52.4263 35.4189 53.9222 35.4189 54.8449 36.3415L64.3118 45.8085Z" stroke="#A92318" stroke-width="2"/>
<circle cx="71.4998" cy="38.4168" r="4.33333" stroke="#A92318" stroke-width="2"/>
<path d="M83.4167 89.6944L127.858 104.508C131.764 105.81 136.067 104.586 138.703 101.423L152.687 84.642C154.182 82.8487 153.215 80.1095 150.926 79.6517V79.6517C147.179 78.9023 143.292 79.3333 139.8 80.8852L130.54 85.0005C127.438 86.3795 123.896 86.3795 120.793 85.0005L35.6884 47.1762C30.7593 44.9855 25.3313 44.0474 19.9875 44.7818C13.4815 45.6759 8.74446 46.7887 3.66285 48.7785C1.5568 49.6032 0.54288 51.9619 1.2581 54.1076V54.1076C3.194 59.9153 7.75133 64.4727 13.5591 66.4086L47.6667 77.7778" stroke="#A92318" stroke-width="2" stroke-linecap="round" stroke-linejoin="round"/>
<path d="M38.2407 68.3175C37.8813 67.8982 37.9299 67.2669 38.3492 66.9075C38.7685 66.5481 39.3998 66.5966 39.7593 67.016L38.2407 68.3175ZM77.1107 80.0408C76.8581 79.5496 77.0515 78.9467 77.5427 78.6941C78.0338 78.4415 78.6367 78.6349 78.8893 79.1261L77.1107 80.0408ZM39.7593 67.016L70.6444 103.049L69.1259 104.35L38.2407 68.3175L39.7593 67.016ZM93.1776 111.282L77.1107 80.0408L78.8893 79.1261L94.9562 110.367L93.1776 111.282ZM90.3892 114.896C92.4742 115.359 94.1545 113.181 93.1776 111.282L94.9562 110.367C96.7081 113.774 93.6947 117.679 89.9553 116.848L90.3892 114.896ZM70.6444 103.049C75.771 109.03 82.6993 113.187 90.3892 114.896L89.9553 116.848C81.843 115.045 74.5341 110.66 69.1259 104.35L70.6444 103.049Z" fill="#A92318"/>
<path d="M93.6305 72.8859C93.1413 73.1422 92.5369 72.9533 92.2807 72.4641C92.0244 71.9749 92.2133 71.3705 92.7025 71.1143L93.6305 72.8859ZM110.496 62.9225L110.032 62.0367L110.496 62.9225ZM110.96 63.8083L93.6305 72.8859L92.7025 71.1143L110.032 62.0367L110.96 63.8083ZM78.7028 58.5067L88.7152 56.1824L89.1674 58.1306L79.1551 60.4549L78.7028 58.5067ZM110.428 57.1999C113.442 58.2044 113.774 62.3343 110.96 63.8083L110.032 62.0367C111.284 61.381 111.136 59.544 109.796 59.0972L110.428 57.1999ZM109.796 59.0972C103.14 56.8788 96.0011 56.5442 89.1674 58.1306L88.7152 56.1824C95.9082 54.5126 103.423 54.8648 110.428 57.1999L109.796 59.0972Z" fill="#A92318"/>
<path d="M17.3335 46C18.9585 49.25 22.7502 52.5 30.3335 53.5833" stroke="#A92318" stroke-width="2" stroke-linecap="round" stroke-linejoin="round"/>
<path d="M20.5829 75.25L47.6662 84.2778L55.5301 86.8991M123.5 109.555L87.2078 97.4583" stroke="#A92318" stroke-width="1.5" stroke-linecap="round" stroke-linejoin="round"/>
<path d="M47.6662 89.6942L31.4162 84.2776M108.875 110.097L90.4582 103.958" stroke="#A92318" stroke-width="1.5" stroke-linecap="round" stroke-linejoin="round"/>
<path d="M47.6662 95.1111L68.4217 102.03M21.1245 86.2639L40.6245 92.7639M99.1245 112.264L116.729 118.132L125.531 121.066" stroke="#A92318" stroke-width="1.5" stroke-linecap="round" stroke-linejoin="round"/>
<path d="M47.6662 100.528L35.2079 96.375M92.6245 115.514L100.208 118.042M77.1614 110.36L56.3329 103.417M114.291 122.736L124.312 126.076" stroke="#A92318" stroke-width="1.5" stroke-linecap="round" stroke-linejoin="round"/>
</svg>
