<svg width="792" height="518" viewBox="0 0 792 518" fill="none" xmlns="http://www.w3.org/2000/svg">
<path d="M182.704 38.6509C182.077 37.9705 181.656 37.2096 181.441 36.3682C181.227 35.5267 181.119 34.4883 181.119 33.2529C181.119 31.9997 181.316 30.3704 181.71 28.3652C182.229 25.7334 183.169 22.3317 184.53 18.1602C183.849 18.2676 182.892 18.4377 181.656 18.6704C180.439 18.8853 179.579 19.0285 179.078 19.1001C177.556 26.1183 174.817 31.561 170.86 35.4282C169.5 36.771 167.879 37.8542 166 38.6777C164.138 39.5013 162.097 39.9131 159.876 39.9131C157.656 39.9131 155.777 39.2686 154.237 37.9795C152.697 36.6904 151.927 34.9627 151.927 32.7964C151.927 30.63 152.805 28.41 154.559 26.1362C151.659 23.4328 150.208 20.237 150.208 16.5488C150.208 14.3467 150.611 12.3325 151.417 10.5063C152.241 8.68018 153.324 7.14941 154.667 5.91406C156.027 4.67871 157.603 3.63135 159.393 2.77197C162.795 1.14274 166.572 0.328125 170.726 0.328125H185.309C185.631 0.328125 185.864 0.480306 186.007 0.784668C185.989 0.909993 185.926 1.02637 185.819 1.13379C185.729 1.24121 185.667 1.33968 185.631 1.4292C183.375 4.13265 181.62 7.95508 180.367 12.8965C180.081 13.9886 179.741 15.4299 179.347 17.2202L185.255 16.2266C188.155 10.014 191.324 5.91406 194.762 3.92676C195.89 3.26432 196.964 2.93311 197.984 2.93311C199.005 2.93311 199.855 3.19271 200.536 3.71191C201.234 4.21322 201.583 5.02783 201.583 6.15576C201.583 7.26579 201.18 8.44743 200.375 9.70068C199.587 10.9539 198.575 12.055 197.34 13.0039C194.869 14.8838 192.345 16.2534 189.767 17.1128C188.925 19.0464 188.03 21.9378 187.081 25.7871C186.15 29.6185 185.685 32.3577 185.685 34.0049C185.685 35.652 186.034 36.4756 186.732 36.4756C187.752 36.4756 189.104 35.3029 190.787 32.9575L192.291 34.3809C191.342 35.7952 190.241 37.0306 188.988 38.0869C187.752 39.1432 186.553 39.6714 185.389 39.6714C184.243 39.6714 183.348 39.3312 182.704 38.6509ZM153.351 17.7573C153.351 20.4608 154.192 22.833 155.875 24.874C158.113 22.8151 160.87 21.2038 164.146 20.04C167.423 18.8763 170.753 18.1602 174.137 17.8916C175.82 10.193 177.78 5.00098 180.018 2.31543C178.657 2.10059 177.037 1.99316 175.157 1.99316C173.277 1.99316 171.532 2.11849 169.92 2.36914C168.309 2.60189 166.689 2.96891 165.06 3.47021C163.43 3.97152 161.917 4.65186 160.521 5.51123C159.142 6.37061 157.916 7.36426 156.842 8.49219C154.514 10.8734 153.351 13.9618 153.351 17.7573ZM156.036 27.1836C154.711 29.0277 154.049 30.7733 154.049 32.4204C154.049 34.0496 154.496 35.4103 155.392 36.5024C156.305 37.5946 157.504 38.1406 158.99 38.1406C160.494 38.1406 161.873 37.8721 163.126 37.335C164.379 36.7799 165.489 36.0101 166.456 35.0254C167.423 34.0228 168.3 32.9396 169.088 31.7759C169.876 30.5942 170.574 29.2783 171.183 27.8281C172.293 25.1963 173.188 22.5197 173.868 19.7983C166.331 20.425 160.807 22.466 157.298 25.9214C158.802 26.7271 160.181 27.1299 161.434 27.1299C162.705 27.1299 163.565 27.112 164.012 27.0762L164.63 28.4995C163.699 28.6069 162.741 28.6606 161.756 28.6606C159.662 28.6606 157.755 28.1683 156.036 27.1836ZM198.548 4.625C197.796 4.625 196.982 5.01888 196.104 5.80664C195.245 6.5944 194.439 7.58805 193.688 8.7876C192.416 10.8644 191.378 12.8696 190.572 14.8032C192.381 14.1229 194.001 13.2098 195.433 12.064C198.137 9.89762 199.488 7.92822 199.488 6.15576C199.488 5.13525 199.175 4.625 198.548 4.625Z" fill="#FAE1DF"/>
<path d="M194.144 32.6084C194.144 31.2656 194.466 29.9766 195.111 28.7412C195.773 27.488 196.624 26.4316 197.662 25.5723C199.954 23.7103 202.29 22.7793 204.671 22.7793C207.053 22.7793 209.004 23.4149 210.526 24.686C212.048 25.9572 212.809 27.5506 212.809 29.4663C212.809 31.3641 212.28 33.0739 211.224 34.5957C210.186 36.1175 208.807 37.3081 207.088 38.1675C205.37 39.009 203.49 39.4297 201.449 39.4297C199.426 39.4297 197.698 38.7941 196.266 37.5229C194.851 36.2339 194.144 34.5957 194.144 32.6084ZM202.926 37.7646C203.749 37.7646 204.519 37.4961 205.235 36.959C205.969 36.4219 206.524 35.7236 206.9 34.8643C207.634 33.2171 208.001 31.5163 208.001 29.7617C208.001 28.0072 207.679 26.6823 207.035 25.7871C206.39 24.874 205.477 24.4175 204.295 24.4175C203.114 24.4175 201.941 25.1873 200.777 26.7271C199.632 28.2668 199.059 30.2272 199.059 32.6084C199.059 36.0459 200.348 37.7646 202.926 37.7646Z" fill="#FAE1DF"/>
<path d="M225.001 3.28223H229.352C228.582 4.6071 227.4 7.55225 225.807 12.1177C224.213 16.6652 222.754 21.2485 221.429 25.8677C220.122 30.4689 219.469 33.2887 219.469 34.3271C219.469 35.3477 219.594 35.8579 219.845 35.8579C220.597 35.8579 221.769 34.721 223.363 32.4473L224.491 33.5215C223.703 34.8822 222.853 36.028 221.939 36.959C220.328 38.6061 219.021 39.4297 218.019 39.4297C216.192 39.4297 215.279 38.3286 215.279 36.1265C215.279 32.8501 216.362 27.6849 218.529 20.6309C220.713 13.5768 222.87 7.79395 225.001 3.28223Z" fill="#FAE1DF"/>
<path d="M240.765 23.3701H244.955L242.833 31.3999C242.493 32.5278 242.323 33.5573 242.323 34.4883C242.323 35.4014 242.484 35.8579 242.806 35.8579C243.128 35.8579 243.567 35.5804 244.122 35.0254C244.695 34.4525 245.178 33.8796 245.572 33.3066L246.19 32.4473L247.345 33.5215C246.754 34.6673 246.002 35.7147 245.089 36.6636C243.316 38.5076 241.777 39.4297 240.47 39.4297C238.93 39.4297 238.16 38.2391 238.16 35.8579C238.16 35.464 238.178 35.1686 238.214 34.9717C237.945 35.8848 237.435 36.6904 236.683 37.3887C235.251 38.7493 233.631 39.4297 231.822 39.4297C230.032 39.4297 228.591 38.821 227.499 37.6035C226.424 36.3682 225.887 34.8285 225.887 32.9844C225.887 30.1198 226.818 27.7028 228.68 25.7334C230.542 23.764 232.726 22.7793 235.233 22.7793C236.486 22.7793 237.525 23.1284 238.348 23.8267C239.172 24.507 239.709 25.4022 239.959 26.5122L240.765 23.3701ZM236.28 25.0889C235.242 25.0889 234.266 25.5275 233.353 26.4048C232.458 27.2642 231.769 28.3115 231.285 29.5469C230.802 30.7643 230.56 31.9549 230.56 33.1187C230.56 34.2824 230.811 35.2223 231.312 35.9385C231.831 36.6546 232.619 37.0127 233.675 37.0127C234.75 37.0127 235.716 36.5293 236.576 35.5625C238.205 33.7005 239.02 31.4894 239.02 28.9292C239.02 26.369 238.106 25.0889 236.28 25.0889Z" fill="#FAE1DF"/>
<path d="M605.199 85.4253L607.465 87.3359C606.103 90.7425 604.296 93.5418 602.044 95.7339C599.793 97.9259 597.542 99.022 595.291 99.022C593.039 99.022 591.425 98.2962 590.447 96.8447C589.499 95.3932 589.025 93.5566 589.025 91.335C589.025 89.1133 589.707 85.5438 591.069 80.6265C592.462 75.7091 593.972 70.9844 595.602 66.4521C600.015 54.3662 602.222 46.6051 602.222 43.1689C602.222 41.1842 601.585 40.1919 600.312 40.1919C595.246 40.1919 588.937 48.3529 581.383 64.6748C578.332 71.251 575.932 76.7756 574.185 81.2485C570.571 90.6092 568.408 96.193 567.697 98H557.789L561.876 87.3359C566.735 74.9834 570.304 63.5047 572.585 52.8999C573.474 48.8713 573.918 45.6424 573.918 43.2134C573.918 39.5106 572.94 37.6592 570.985 37.6592C569.03 37.6592 566.823 39.1551 564.365 42.147C561.906 45.1092 559.551 48.8268 557.3 53.2998C555.049 57.7728 552.797 62.616 550.546 67.8296C548.295 73.0431 546.34 77.8864 544.681 82.3594C540.859 92.7865 538.889 98 538.771 98H530.062L535.039 84.0923C539.482 72.6284 542.192 63.6084 543.17 57.0322C543.644 53.9811 543.881 50.8708 543.881 47.7012C543.881 44.5316 543.066 41.8804 541.437 39.7476C539.808 37.5851 537.571 36.5039 534.728 36.5039C531.884 36.5039 529.425 37.1112 527.352 38.3257C525.308 39.5106 523.619 41.0213 522.286 42.8579C520.953 44.6945 519.827 46.7533 518.909 49.0342C517.161 53.2702 516.288 57.4025 516.288 61.4312C516.288 70.0513 518.257 77.6346 522.197 84.1812L520.287 85.603C518.154 82.1965 516.525 78.3752 515.399 74.1392C514.303 69.8735 513.755 66.1559 513.755 62.9863C513.755 59.8167 513.992 57.0174 514.466 54.5884C514.94 52.1297 515.725 49.6562 516.821 47.168C517.917 44.6797 519.265 42.4728 520.864 40.5474C522.493 38.5923 524.567 37.0075 527.085 35.793C529.632 34.5488 532.299 33.9268 535.083 33.9268C537.868 33.9268 540.208 34.46 542.104 35.5264C544.029 36.5928 545.54 38.0295 546.636 39.8364C548.798 43.3911 549.879 47.7012 549.879 52.7666C549.879 57.832 548.295 65.208 545.125 74.8945C546.221 71.9915 547.021 69.9624 547.524 68.8071C548.058 67.6519 548.68 66.23 549.391 64.5415C550.131 62.853 550.709 61.5348 551.124 60.5869C551.538 59.6094 552.175 58.2023 553.034 56.3657C553.893 54.4995 554.634 52.974 555.256 51.7891C555.908 50.5745 556.722 49.1082 557.7 47.3901C558.707 45.6424 559.625 44.2057 560.455 43.0801C561.284 41.9544 562.232 40.7695 563.298 39.5254C564.394 38.2516 565.446 37.2445 566.453 36.5039C568.734 34.7858 570.941 33.9268 573.074 33.9268C578.11 33.9268 580.627 37.3037 580.627 44.0576C580.627 48.3232 579.783 53.6108 578.095 59.9204C577.532 62.0236 576.747 64.7489 575.74 68.0962C574.762 71.4139 574.214 73.3097 574.096 73.7837C575.399 71.3843 577.102 67.637 579.206 62.542C581.309 57.4469 583.16 53.4331 584.76 50.5005C586.359 47.5679 587.959 45.0648 589.559 42.9912C591.158 40.9176 593.069 39.1847 595.291 37.7925C597.542 36.4002 599.764 35.7041 601.956 35.7041C604.177 35.7041 605.925 36.415 607.199 37.8369C608.502 39.2588 609.154 41.1546 609.154 43.5244C609.154 45.8942 608.739 48.7824 607.91 52.189C607.08 55.5659 606.058 58.9281 604.844 62.2754C603.629 65.6227 602.415 68.9552 601.2 72.2729C598.208 80.3006 596.609 86.5361 596.401 90.9795C596.401 92.8753 596.89 93.8232 597.868 93.8232C598.875 93.8232 600.06 92.9642 601.422 91.2461C602.785 89.528 604.044 87.5877 605.199 85.4253Z" fill="#FAE1DF"/>
<path d="M618.085 89.2466C618.263 92.6532 620.558 94.3564 624.972 94.3564C626.601 94.3564 628.29 93.8973 630.038 92.979C631.815 92.0311 633.252 90.9202 634.348 89.6465L636.258 90.8906C633.8 95.0081 629.875 97.526 624.483 98.4443C623.299 98.6221 622.158 98.7109 621.062 98.7109C617.863 98.7109 615.197 97.6593 613.064 95.5562C610.931 93.4233 609.865 90.8314 609.865 87.7803C609.865 84.7292 610.798 81.915 612.664 79.3379C614.53 76.7311 616.856 74.7168 619.64 73.2949C622.454 71.873 625.224 71.1621 627.949 71.1621C630.674 71.1621 633.029 71.7842 635.014 73.0283C637.028 74.2725 638.05 75.9461 638.08 78.0493C638.139 80.1525 637.532 81.9743 636.258 83.5146C634.985 85.0254 633.37 86.1807 631.415 86.9805C627.535 88.5505 623.728 89.3354 619.996 89.3354L618.085 89.2466ZM617.818 86.8027C621.106 86.6842 623.743 86.1659 625.728 85.2476C627.742 84.2996 629.134 83.2332 629.904 82.0483C630.704 80.8338 631.104 79.5749 631.104 78.2715C631.104 76.9385 630.763 75.9609 630.082 75.3389C629.401 74.6872 628.675 74.3613 627.905 74.3613C626.009 74.3613 624.261 75.0278 622.662 76.3608C621.092 77.6642 619.892 79.2638 619.062 81.1597C618.233 83.0259 617.818 84.9069 617.818 86.8027Z" fill="#FAE1DF"/>
<path d="M665.673 76.9829C664.548 76.9829 663.215 77.7087 661.674 79.1602C660.134 80.582 658.638 82.3298 657.187 84.4033C654.876 87.721 652.521 91.5423 650.122 95.8672L648.922 98H642.657C642.657 98 643.116 96.6077 644.034 93.8232C646.611 86.1214 647.9 81.5596 647.9 80.1377C647.9 78.6862 647.663 77.9604 647.189 77.9604C646.33 77.9604 645.308 78.9824 644.123 81.0264C643.856 81.5003 643.634 81.8854 643.457 82.1816C643.279 82.4482 643.071 82.7889 642.834 83.2036C642.627 83.5887 642.494 83.8257 642.435 83.9146L639.458 82.1816C641.768 78.4196 643.886 75.6499 645.812 73.8726C647.737 72.0656 649.707 71.1621 651.721 71.1621C652.639 71.1621 653.424 71.5472 654.076 72.3174C654.757 73.0876 655.098 74.0059 655.098 75.0723C655.098 76.109 655.039 77.0422 654.92 77.8716C654.802 78.6714 654.669 79.4119 654.521 80.0933C654.372 80.7746 654.165 81.5892 653.898 82.5371C653.632 83.485 653.41 84.2108 653.232 84.7144C653.084 85.2179 652.876 85.8993 652.61 86.7583C652.343 87.6174 652.18 88.1209 652.121 88.269C652.654 87.2026 653.558 85.6326 654.832 83.5591C656.105 81.4855 656.935 80.1821 657.32 79.6489C657.705 79.1157 658.238 78.4048 658.919 77.5161C659.601 76.6274 660.193 75.9461 660.697 75.4722C661.23 74.9686 661.852 74.4058 662.563 73.7837C663.304 73.132 664 72.6432 664.651 72.3174C666.31 71.5472 667.91 71.1621 669.45 71.1621C670.991 71.1621 672.22 71.6213 673.138 72.5396C674.086 73.4282 674.56 74.4798 674.56 75.6943C674.56 76.8792 674.175 77.9308 673.405 78.8491C672.664 79.7378 671.79 80.1821 670.783 80.1821C669.806 80.1821 669.035 80.0192 668.473 79.6934C667.91 79.3379 667.525 78.9676 667.317 78.5825C666.695 77.5161 666.147 76.9829 665.673 76.9829Z" fill="#FAE1DF"/>
<path d="M696.466 88.8022L698.288 90.0908C696.984 92.7272 694.97 94.8304 692.245 96.4004C689.549 97.9408 686.72 98.7109 683.758 98.7109C680.796 98.7109 678.292 97.8075 676.249 96.0005C674.234 94.1935 673.227 91.646 673.227 88.3579C673.227 85.0402 674.234 82.0483 676.249 79.3823C678.292 76.7163 680.796 74.6872 683.758 73.2949C686.72 71.873 689.712 71.1621 692.733 71.1621C696.436 71.1621 698.924 72.0508 700.198 73.8281C700.731 74.5391 700.998 75.4425 700.998 76.5386C700.998 77.605 700.628 78.5085 699.887 79.249C699.147 79.9896 698.258 80.3599 697.221 80.3599C696.184 80.3599 695.311 80.034 694.6 79.3823C693.889 78.701 693.533 77.842 693.533 76.8052C693.533 75.7684 694.17 74.8205 695.444 73.9614C694.318 73.606 693.281 73.4282 692.333 73.4282C690.29 73.4282 688.409 74.1836 686.69 75.6943C684.972 77.2051 683.669 79.0417 682.78 81.2041C681.892 83.3369 681.447 85.4401 681.447 87.5137C681.447 89.5872 681.936 91.2609 682.914 92.5347C683.921 93.7788 685.357 94.4009 687.224 94.4009C689.09 94.4009 690.882 93.8825 692.6 92.8457C694.318 91.7793 695.607 90.4315 696.466 88.8022Z" fill="#FAE1DF"/>
<path d="M711.129 98.7109C709.885 98.7109 708.907 98.3258 708.196 97.5557C707.485 96.7855 707.13 95.7339 707.13 94.4009C707.13 93.0382 707.471 91.2017 708.152 88.8911C708.863 86.5509 709.559 84.4329 710.24 82.5371C710.951 80.6413 711.307 79.3823 711.307 78.7603C711.307 78.1086 711.099 77.7827 710.685 77.7827C709.648 77.7827 707.974 79.8267 705.664 83.9146L702.687 82.1816C707.041 74.8353 711.04 71.1621 714.684 71.1621C717.172 71.1621 718.416 72.7321 718.416 75.8721C718.416 76.7904 718.12 78.2567 717.527 80.271L714.328 89.4243C714.002 90.2834 713.839 91.0684 713.839 91.7793C713.839 92.4606 714.106 92.8013 714.639 92.8013C715.646 92.8013 717.498 90.9351 720.193 87.2026L722.06 88.9355C720.46 91.8978 718.549 94.2676 716.328 96.0449C714.136 97.8223 712.403 98.7109 711.129 98.7109ZM723.792 58.0542C723.792 59.2391 723.393 60.3203 722.593 61.2979C721.793 62.2754 720.712 62.7642 719.349 62.7642C717.986 62.7642 716.965 62.3643 716.283 61.5645C715.602 60.735 715.261 59.6982 715.261 58.4541C715.261 57.21 715.676 56.1139 716.505 55.166C717.364 54.1885 718.46 53.6997 719.793 53.6997C721.126 53.6997 722.119 54.1292 722.771 54.9883C723.452 55.8177 723.792 56.8397 723.792 58.0542Z" fill="#FAE1DF"/>
<path d="M502.242 484.52C498.988 482.815 495.889 481.963 492.945 481.963C490.001 481.963 487.611 482.727 485.773 484.254C483.936 485.759 483.018 487.53 483.018 489.566C483.018 491.603 483.914 493.352 485.707 494.812C487.522 496.251 489.891 496.971 492.812 496.971C495.757 496.971 498.236 496.628 500.25 495.941C502.286 495.255 503.969 494.303 505.297 493.086C506.647 491.846 507.809 490.419 508.783 488.803C509.779 487.187 510.598 485.416 511.24 483.49C511.904 481.564 512.502 479.605 513.033 477.613C513.564 475.599 514.107 473.551 514.66 471.471C515.236 469.368 515.844 467.387 516.486 465.527C517.925 461.344 519.984 458.09 522.662 455.766C518.412 454.681 513.941 454.139 509.248 454.139C506.592 454.139 504.09 454.869 501.744 456.33C499.398 457.769 497.516 459.717 496.1 462.174C494.705 464.631 494.008 467.342 494.008 470.309C494.008 473.275 494.838 475.776 496.498 477.812C498.18 479.849 500.571 481.642 503.67 483.191L503.205 484.885L502.242 484.52ZM483.25 496.871C481.678 496.185 480.395 495.211 479.398 493.949C478.402 492.665 477.904 491.204 477.904 489.566C477.904 487.906 478.314 486.423 479.133 485.117C479.952 483.811 481.014 482.782 482.32 482.029C485.043 480.48 488.009 479.705 491.219 479.705C492.879 479.705 494.406 479.938 495.801 480.402C492.79 476.617 491.285 473.142 491.285 469.977C491.285 465.395 492.89 461.377 496.1 457.924C499.221 454.581 502.906 452.29 507.156 451.051C509.303 450.431 511.406 450.121 513.465 450.121C515.523 450.121 518.501 450.564 522.396 451.449C526.292 452.335 528.871 452.777 530.133 452.777C531.395 452.777 532.28 452.633 532.789 452.346C533.475 451.969 534.283 451.25 535.213 450.188H537.736C537.449 451.383 536.862 452.412 535.977 453.275C535.091 454.139 534.073 454.77 532.922 455.168C530.775 455.898 528.738 456.264 526.812 456.264C524.046 456.264 522.186 459.584 521.234 466.225C520.991 467.973 520.747 470.464 520.504 473.695C520.26 476.927 519.696 479.794 518.811 482.295C517.947 484.796 516.829 486.932 515.457 488.703C514.107 490.474 512.568 492.035 510.842 493.385C509.137 494.713 507.278 495.775 505.264 496.572C501.346 498.122 497.195 498.896 492.812 498.896C489.492 498.896 486.305 498.221 483.25 496.871Z" fill="#FAE1DF"/>
<path d="M539.33 494.945C539.33 493.794 539.795 491.946 540.725 489.4C541.654 486.855 542.119 485.04 542.119 483.955C542.119 482.848 541.732 482.295 540.957 482.295C540.204 482.295 539.286 482.837 538.201 483.922C537.117 484.984 536.076 486.29 535.08 487.84C533.442 490.341 531.793 493.197 530.133 496.406L529.27 498H524.488C525.573 489.987 526.613 484.055 527.609 480.203C528.605 476.352 529.557 473.064 530.465 470.342C531.372 467.619 532.346 465.206 533.387 463.104C535.733 458.278 538.434 454.703 541.488 452.379L544.012 453.541C541.643 455.91 539.463 460.082 537.471 466.059C535.501 472.013 533.309 480.236 530.896 490.729C531.029 490.507 531.295 490.042 531.693 489.334C532.114 488.604 532.435 488.061 532.656 487.707C532.878 487.331 533.21 486.777 533.652 486.047C534.117 485.316 534.505 484.741 534.814 484.32C535.124 483.878 535.523 483.335 536.01 482.693C536.519 482.051 536.962 481.542 537.338 481.166C537.736 480.768 538.201 480.347 538.732 479.904C539.264 479.439 539.773 479.074 540.26 478.809C541.389 478.233 542.595 477.945 543.879 477.945C545.163 477.945 546.126 478.299 546.768 479.008C547.432 479.716 547.764 480.668 547.764 481.863C547.764 483.059 547.21 485.073 546.104 487.906C544.997 490.717 544.443 492.455 544.443 493.119C544.443 493.783 544.62 494.115 544.975 494.115C545.904 494.115 547.31 492.71 549.191 489.898L550.619 491.227C549.202 493.661 547.719 495.488 546.17 496.705C544.643 497.923 543.381 498.531 542.385 498.531C541.411 498.531 540.658 498.221 540.127 497.602C539.596 496.982 539.33 496.096 539.33 494.945Z" fill="#FAE1DF"/>
<path d="M570.74 478.676H575.92L573.297 488.604C572.876 489.998 572.666 491.271 572.666 492.422C572.666 493.551 572.865 494.115 573.264 494.115C573.662 494.115 574.204 493.772 574.891 493.086C575.599 492.378 576.197 491.669 576.684 490.961L577.447 489.898L578.875 491.227C578.145 492.643 577.215 493.938 576.086 495.111C573.895 497.391 571.991 498.531 570.375 498.531C568.471 498.531 567.52 497.059 567.52 494.115C567.52 493.628 567.542 493.263 567.586 493.02C567.254 494.148 566.623 495.145 565.693 496.008C563.923 497.69 561.919 498.531 559.684 498.531C557.47 498.531 555.688 497.779 554.338 496.273C553.01 494.746 552.346 492.842 552.346 490.562C552.346 487.021 553.497 484.033 555.799 481.598C558.101 479.163 560.801 477.945 563.9 477.945C565.45 477.945 566.734 478.377 567.752 479.24C568.77 480.081 569.434 481.188 569.744 482.561L570.74 478.676ZM565.195 480.801C563.911 480.801 562.705 481.343 561.576 482.428C560.469 483.49 559.617 484.785 559.02 486.312C558.422 487.818 558.123 489.29 558.123 490.729C558.123 492.167 558.433 493.329 559.053 494.215C559.695 495.1 560.669 495.543 561.975 495.543C563.303 495.543 564.498 494.945 565.561 493.75C567.575 491.448 568.582 488.714 568.582 485.549C568.582 482.383 567.453 480.801 565.195 480.801Z" fill="#FAE1DF"/>
<path d="M589.699 488.67C594.326 481.52 598.476 477.945 602.15 477.945C603.39 477.945 604.32 478.322 604.939 479.074C605.559 479.827 605.869 480.779 605.869 481.93C605.869 483.081 605.349 485.073 604.309 487.906C603.29 490.74 602.781 492.499 602.781 493.186C602.781 493.85 602.947 494.182 603.279 494.182C603.722 494.182 604.375 493.728 605.238 492.82C606.102 491.891 606.865 490.917 607.529 489.898L608.924 491.227C607.596 493.639 606.135 495.465 604.541 496.705C602.969 497.923 601.686 498.531 600.689 498.531C599.715 498.531 598.952 498.21 598.398 497.568C597.845 496.904 597.568 496.008 597.568 494.879C597.568 493.75 598.011 491.913 598.896 489.367C599.804 486.799 600.258 484.984 600.258 483.922C600.258 482.837 599.893 482.295 599.162 482.295C598.321 482.295 597.325 482.837 596.174 483.922C595.023 484.984 593.905 486.29 592.82 487.84C591.094 490.319 589.334 493.174 587.541 496.406L586.645 498H581.963L582.992 494.879C584.918 489.124 585.881 485.715 585.881 484.652C585.881 483.568 585.704 483.025 585.35 483.025C584.708 483.025 583.944 483.789 583.059 485.316C582.859 485.671 582.693 485.958 582.561 486.18C582.428 486.379 582.273 486.633 582.096 486.943C581.941 487.231 581.841 487.408 581.797 487.475L579.572 486.18C581.299 483.368 582.882 481.299 584.32 479.971C585.759 478.62 587.231 477.945 588.736 477.945C589.423 477.945 590.009 478.233 590.496 478.809C591.005 479.384 591.26 480.081 591.26 480.9C591.26 481.719 591.193 482.527 591.061 483.324C590.928 484.099 590.784 484.752 590.629 485.283C590.496 485.792 590.308 486.456 590.064 487.275C589.843 488.094 589.721 488.559 589.699 488.67Z" fill="#FAE1DF"/>
<path d="M619.881 462.107C621.452 458.721 623.555 455.998 626.189 453.939C628.824 451.859 631.624 450.818 634.59 450.818C636.339 450.818 637.844 451.261 639.105 452.146C640.389 453.032 641.031 454.371 641.031 456.164C641.031 457.204 640.677 458.012 639.969 458.588C639.283 459.163 638.464 459.451 637.512 459.451C636.582 459.451 635.785 459.186 635.121 458.654C634.479 458.101 634.158 457.415 634.158 456.596C634.158 455.777 634.457 454.913 635.055 454.006C634.302 453.652 633.561 453.475 632.83 453.475C632.122 453.475 631.314 453.762 630.406 454.338C629.521 454.913 628.702 455.677 627.949 456.629C626.621 458.311 625.393 460.37 624.264 462.805C623.157 465.24 621.397 471.117 618.984 480.436C616.594 489.755 615.398 495.609 615.398 498H610.152C610.152 494.215 611.215 488.493 613.34 480.834C615.487 473.175 617.667 466.933 619.881 462.107ZM636.549 492.156C635.575 493.839 634.335 495.322 632.83 496.605C631.347 497.889 629.864 498.531 628.381 498.531C626.92 498.531 625.813 497.9 625.061 496.639C624.308 495.377 623.622 494.237 623.002 493.219C622.404 492.178 621.917 491.359 621.541 490.762C621.187 490.142 620.855 489.577 620.545 489.068C620.235 488.559 620.003 488.183 619.848 487.939C619.715 487.674 619.582 487.441 619.449 487.242C619.316 486.999 619.217 486.755 619.15 486.512L620.113 485.449C626.4 478.764 631.336 475.422 634.922 475.422C636.294 475.422 637.346 475.754 638.076 476.418C638.829 477.082 639.205 477.824 639.205 478.643C639.205 479.462 638.939 480.192 638.408 480.834C637.899 481.454 637.18 481.764 636.25 481.764C635.32 481.764 634.601 481.542 634.092 481.1C633.605 480.657 633.317 480.214 633.229 479.771L633.096 479.107C629.709 480.945 626.71 482.981 624.098 485.217C623.544 485.704 623.212 486.003 623.102 486.113C623.721 486.556 625.935 489.179 629.742 493.982C630.118 494.492 630.517 494.746 630.938 494.746C631.38 494.746 631.9 494.469 632.498 493.916C633.096 493.363 633.992 492.389 635.188 490.994L636.549 492.156Z" fill="#FAE1DF"/>
<path d="M652.42 486.512L650.262 485.217C651.368 483.291 652.741 481.598 654.379 480.137C656.039 478.676 657.522 477.945 658.828 477.945C660.953 477.945 662.016 478.897 662.016 480.801C662.016 481.598 661.462 483.535 660.355 486.611C659.271 489.688 658.729 491.636 658.729 492.455C658.729 493.274 658.784 493.805 658.895 494.049C659.005 494.27 659.249 494.381 659.625 494.381C661.639 494.381 663.709 493.628 665.834 492.123C667.981 490.596 669.376 488.913 670.018 487.076L672.342 480.303C672.585 479.617 672.962 479.074 673.471 478.676C673.98 478.277 674.467 478.078 674.932 478.078C675.419 478.078 675.806 478.233 676.094 478.543C676.404 478.853 676.559 479.262 676.559 479.771C676.559 480.281 676.459 480.812 676.26 481.365L673.736 488.736C672.342 493.075 670.184 497.347 667.262 501.553C669.807 501.818 672.076 502.272 674.068 502.914L673.803 504.773C670.748 504.154 668.048 503.788 665.701 503.678C663.554 506.445 661.352 508.647 659.094 510.285C656.858 511.945 654.899 512.775 653.217 512.775C651.557 512.775 650.317 512.432 649.498 511.746C648.657 511.082 648.236 510.163 648.236 508.99C648.236 507.817 648.679 506.743 649.564 505.77C650.45 504.818 651.634 504.043 653.117 503.445C656.128 502.206 659.581 501.497 663.477 501.32C663.786 500.966 664.528 499.727 665.701 497.602C666.874 495.454 667.505 494.104 667.594 493.551C663.676 496.871 660.223 498.531 657.234 498.531C656.017 498.531 655.132 498.122 654.578 497.303C654.025 496.462 653.748 495.432 653.748 494.215C653.748 492.997 654.202 490.917 655.109 487.973C656.039 485.007 656.504 483.324 656.504 482.926C656.504 482.505 656.404 482.295 656.205 482.295C656.028 482.295 655.829 482.35 655.607 482.461C655.386 482.549 655.165 482.704 654.943 482.926C654.744 483.125 654.556 483.324 654.379 483.523C654.202 483.701 654.003 483.955 653.781 484.287C653.582 484.619 653.427 484.874 653.316 485.051C652.852 485.781 652.553 486.268 652.42 486.512ZM662.016 503.678C660.223 503.788 658.396 504.109 656.537 504.641C652.951 505.659 651.158 506.854 651.158 508.227C651.158 509.046 651.667 509.455 652.686 509.455C653.704 509.455 655.364 508.714 657.666 507.23C659.968 505.77 661.418 504.585 662.016 503.678Z" fill="#FAE1DF"/>
<path d="M677.389 490.098C677.389 488.438 677.787 486.844 678.584 485.316C679.403 483.767 680.454 482.461 681.738 481.398C684.572 479.096 687.46 477.945 690.404 477.945C693.348 477.945 695.761 478.731 697.643 480.303C699.524 481.874 700.465 483.844 700.465 486.213C700.465 488.559 699.812 490.673 698.506 492.555C697.222 494.436 695.518 495.908 693.393 496.971C691.268 498.011 688.943 498.531 686.42 498.531C683.919 498.531 681.783 497.745 680.012 496.174C678.263 494.58 677.389 492.555 677.389 490.098ZM688.246 496.473C689.264 496.473 690.216 496.141 691.102 495.477C692.009 494.812 692.695 493.949 693.16 492.887C694.068 490.85 694.521 488.747 694.521 486.578C694.521 484.409 694.123 482.771 693.326 481.664C692.529 480.535 691.4 479.971 689.939 479.971C688.479 479.971 687.029 480.923 685.59 482.826C684.173 484.73 683.465 487.154 683.465 490.098C683.465 494.348 685.059 496.473 688.246 496.473Z" fill="#FAE1DF"/>
<path d="M729.418 478.676C726.452 486.578 724.969 491.37 724.969 493.053C724.969 493.761 725.146 494.115 725.5 494.115C726.474 494.115 727.891 492.699 729.75 489.865L731.178 491.227C730.005 493.329 728.61 495.078 726.994 496.473C725.4 497.845 724.105 498.531 723.109 498.531C721.051 498.531 720.021 497.491 720.021 495.41C720.021 493.794 720.398 491.824 721.15 489.5C721.903 487.176 722.279 486.003 722.279 485.98C722.169 486.18 721.903 486.645 721.482 487.375C721.062 488.083 720.752 488.615 720.553 488.969C720.354 489.323 720.021 489.865 719.557 490.596C719.114 491.304 718.738 491.868 718.428 492.289C718.14 492.688 717.742 493.208 717.232 493.85C716.745 494.492 716.303 495.001 715.904 495.377C715.528 495.753 715.074 496.174 714.543 496.639C714.012 497.081 713.503 497.424 713.016 497.668C711.909 498.243 710.824 498.531 709.762 498.531C707.128 498.531 705.811 497.081 705.811 494.182C705.811 492.854 706.286 490.795 707.238 488.006C708.19 485.195 708.666 483.546 708.666 483.059C708.666 482.549 708.511 482.295 708.201 482.295C707.316 482.295 706.087 483.701 704.516 486.512L702.357 485.217C705.39 480.369 708.312 477.945 711.123 477.945C712.053 477.945 712.794 478.211 713.348 478.742C713.901 479.251 714.156 480.048 714.111 481.133C714.089 482.195 713.547 484.11 712.484 486.877C711.444 489.622 710.924 491.725 710.924 493.186C710.924 493.982 711.289 494.381 712.02 494.381C712.861 494.381 713.857 493.85 715.008 492.787C716.181 491.702 717.31 490.385 718.395 488.836C720.121 486.401 721.914 483.546 723.773 480.27L724.67 478.676H729.418Z" fill="#FAE1DF"/>
<path d="M114.35 391.589C114.35 387.277 117.584 384.239 121.896 384.239C126.208 384.239 129.442 387.277 129.442 391.589C129.442 395.901 126.208 398.939 121.896 398.939C117.584 398.939 114.35 395.901 114.35 391.589ZM133.362 391.589C133.362 385.219 128.462 380.76 121.896 380.76C115.33 380.76 110.43 385.219 110.43 391.589C110.43 397.959 115.33 402.418 121.896 402.418C128.462 402.418 133.362 397.959 133.362 391.589ZM120.377 406.73H116.359V420.646H145.661V417.363H120.377V406.73ZM143.701 391.05V377.673H139.683V410.013H143.701V394.382H150.169V391.05H143.701Z" fill="#FAE1DF"/>
<path d="M187.307 404.672H191.374V377.673H187.307V382.867H174.959V386.003H187.307V390.609H174.959V393.745H187.307V404.672ZM180.3 396.734C174.42 397.959 169.177 398.302 161.778 398.302V380.319H157.809V401.634H161.141C169.03 401.634 174.518 401.291 180.79 400.017L180.3 396.734ZM176.87 418.441C170.255 418.441 166.237 416.53 166.237 413.345C166.237 410.111 170.255 408.2 176.87 408.2C183.485 408.2 187.503 410.111 187.503 413.345C187.503 416.53 183.485 418.441 176.87 418.441ZM176.87 405.064C167.854 405.064 162.219 408.053 162.219 413.345C162.219 418.588 167.854 421.626 176.87 421.626C185.886 421.626 191.521 418.588 191.521 413.345C191.521 408.053 185.886 405.064 176.87 405.064Z" fill="#FAE1DF"/>
<path d="M213.616 408.494C209.647 408.494 206.756 405.652 206.756 401.732C206.756 397.763 209.647 394.921 213.616 394.921C217.634 394.921 220.525 397.763 220.525 401.732C220.525 405.652 217.634 408.494 213.616 408.494ZM213.616 391.589C207.442 391.589 202.983 395.803 202.983 401.732C202.983 407.71 207.442 411.826 213.616 411.826C219.888 411.826 224.347 407.71 224.347 401.732C224.347 395.803 219.888 391.589 213.616 391.589ZM215.576 378.212H211.558V384.729H200.484V387.963H226.405V384.729H215.576V378.212ZM241.791 395.754H234.588V377.722H230.57V421.626H234.588V399.135H241.791V395.754Z" fill="#FAE1DF"/>
<path d="M259.33 381.838H255.459V390.217C255.459 397.763 251.833 405.652 245.806 409.18L248.305 412.169C252.666 409.474 255.851 404.525 257.419 398.694C258.987 404.035 261.927 408.69 266.092 411.238L268.395 408.102C262.613 404.574 259.33 397.126 259.33 390.07V381.838ZM270.894 393.451H263.642V396.783H270.894V419.47H274.667V378.653H270.894V393.451ZM279.812 377.673V421.626H283.634V377.673H279.812Z" fill="#FAE1DF"/>
<path d="M305.631 402.32C307.444 402.761 309.551 403.006 311.707 403.006C313.912 403.006 316.019 402.761 317.881 402.32V412.659H305.631V402.32ZM311.707 383.602C318.763 383.602 323.859 386.836 323.859 391.736C323.859 396.636 318.763 399.87 311.707 399.87C304.651 399.87 299.604 396.636 299.604 391.736C299.604 386.836 304.651 383.602 311.707 383.602ZM321.899 412.659V400.752C325.525 398.841 327.681 395.705 327.681 391.736C327.681 384.876 321.066 380.466 311.707 380.466C302.397 380.466 295.733 384.876 295.733 391.736C295.733 395.705 297.938 398.89 301.613 400.801V412.659H291.813V415.991H331.748V412.659H321.899Z" fill="#FAE1DF"/>
<path d="M69.8291 187.349C68.9134 187.745 67.9788 188.028 67.0254 188.198C66.0814 188.378 65.1846 188.467 64.335 188.467C63.4948 188.467 62.7349 188.42 62.0552 188.326C61.3849 188.241 60.7147 188.09 60.0444 187.873C59.3836 187.646 58.8125 187.358 58.3311 187.009C57.2549 186.244 56.7168 185.163 56.7168 183.766C56.7168 182.935 56.9103 182.161 57.2974 181.444C57.6844 180.717 58.1895 180.118 58.8125 179.646C60.1341 178.626 61.5785 178.116 63.1455 178.116C65.0241 178.116 66.4212 178.668 67.3369 179.773C67.79 180.33 68.0166 181.005 68.0166 181.798C68.0166 182.591 67.639 183.28 66.8838 183.865C66.138 184.441 65.3498 184.729 64.519 184.729C64.3208 184.729 64.2217 184.63 64.2217 184.432C64.2217 184.224 64.3161 184.078 64.5049 183.993C64.6937 183.898 64.9202 183.813 65.1846 183.738C65.4489 183.653 65.7132 183.554 65.9775 183.44C66.6289 183.148 66.9546 182.676 66.9546 182.024C66.9546 181.364 66.6525 180.868 66.0483 180.538C65.4536 180.198 64.4152 180.028 62.9331 180.028C61.451 180.028 60.304 180.405 59.4922 181.161C58.6803 181.906 58.2744 182.799 58.2744 183.837C58.2744 185.206 58.8833 186.178 60.1011 186.754C61.1867 187.273 62.4847 187.533 63.9951 187.533C66.5911 187.533 68.6916 186.792 70.2964 185.31C71.4292 184.271 71.9956 182.964 71.9956 181.387C71.9956 180.443 71.6605 179.528 70.9902 178.64C70.6976 178.244 70.3719 177.852 70.0132 177.465C69.6545 177.078 69.2957 176.691 68.937 176.304C68.5783 175.917 68.2526 175.53 67.96 175.143C67.2897 174.293 66.9546 173.5 66.9546 172.764C66.9546 172.027 67.0726 171.395 67.3086 170.866C67.554 170.328 67.875 169.866 68.2715 169.479C68.6774 169.082 69.14 168.742 69.6592 168.459C70.707 167.874 71.8162 167.581 72.9868 167.581C74.0063 167.581 74.9551 167.826 75.833 168.317C76.7959 168.846 77.2773 169.653 77.2773 170.739C77.2773 171.164 77.1263 171.536 76.8242 171.857C76.5221 172.178 76.1823 172.339 75.8047 172.339C75.4271 172.339 75.1156 172.23 74.8701 172.013C74.6341 171.796 74.5161 171.555 74.5161 171.291C74.5161 171.017 74.6294 170.729 74.856 170.427C75.092 170.116 75.21 169.861 75.21 169.663C75.21 169.455 75.125 169.266 74.9551 169.096C74.7852 168.926 74.568 168.799 74.3037 168.714C73.7751 168.553 73.2936 168.473 72.8594 168.473C71.8587 168.473 70.9997 168.771 70.2822 169.365C69.5648 169.96 69.2061 170.786 69.2061 171.843C69.2061 172.419 69.5648 173.094 70.2822 173.868C70.6032 174.208 70.9525 174.571 71.3301 174.958C71.7171 175.336 72.1042 175.742 72.4912 176.176C72.8783 176.611 73.2323 177.059 73.5532 177.521C74.2707 178.541 74.6294 179.598 74.6294 180.693C74.6294 181.788 74.4123 182.78 73.978 183.667C73.5438 184.554 72.9727 185.291 72.2646 185.876C71.5661 186.452 70.7542 186.943 69.8291 187.349Z" fill="#FAE1DF"/>
<path d="M83.6069 179.759H85.8159L84.6973 183.993C84.5179 184.587 84.4282 185.13 84.4282 185.621C84.4282 186.103 84.5132 186.343 84.6831 186.343C84.853 186.343 85.0843 186.197 85.377 185.904C85.679 185.602 85.9339 185.3 86.1416 184.998L86.4673 184.545L87.0762 185.111C86.7646 185.715 86.3682 186.268 85.8867 186.768C84.9521 187.74 84.1403 188.227 83.4512 188.227C82.6393 188.227 82.2334 187.599 82.2334 186.343C82.2334 186.136 82.2428 185.98 82.2617 185.876C82.1201 186.357 81.8511 186.782 81.4546 187.15C80.6994 187.868 79.8451 188.227 78.8916 188.227C77.9476 188.227 77.1877 187.906 76.6118 187.264C76.0454 186.612 75.7622 185.8 75.7622 184.828C75.7622 183.318 76.2531 182.043 77.2349 181.005C78.2166 179.966 79.3683 179.447 80.6899 179.447C81.3507 179.447 81.8983 179.631 82.3325 180C82.7668 180.358 83.05 180.83 83.1821 181.416L83.6069 179.759ZM81.2422 180.665C80.6947 180.665 80.1802 180.896 79.6987 181.359C79.2267 181.812 78.8633 182.364 78.6084 183.016C78.3535 183.658 78.2261 184.285 78.2261 184.899C78.2261 185.513 78.3582 186.008 78.6226 186.386C78.8963 186.763 79.3117 186.952 79.8687 186.952C80.4351 186.952 80.9448 186.697 81.3979 186.188C82.257 185.206 82.6865 184.04 82.6865 182.69C82.6865 181.34 82.2051 180.665 81.2422 180.665Z" fill="#FAE1DF"/>
<path d="M93.1084 169.167H95.4023C94.9964 169.866 94.3734 171.418 93.5332 173.826C92.693 176.223 91.9237 178.64 91.2251 181.076C90.536 183.502 90.1914 184.989 90.1914 185.536C90.1914 186.074 90.2575 186.343 90.3896 186.343C90.7861 186.343 91.4045 185.744 92.2446 184.545L92.8394 185.111C92.424 185.829 91.9756 186.433 91.4941 186.924C90.6445 187.792 89.9554 188.227 89.4268 188.227C88.4639 188.227 87.9824 187.646 87.9824 186.485C87.9824 184.757 88.5535 182.034 89.6958 178.314C90.8475 174.595 91.985 171.546 93.1084 169.167Z" fill="#FAE1DF"/>
<path d="M104.776 179.759C103.511 183.129 102.879 185.173 102.879 185.89C102.879 186.192 102.954 186.343 103.105 186.343C103.521 186.343 104.125 185.739 104.918 184.531L105.527 185.111C105.027 186.008 104.432 186.754 103.743 187.349C103.063 187.934 102.511 188.227 102.086 188.227C101.208 188.227 100.769 187.783 100.769 186.896C100.769 186.206 100.93 185.366 101.25 184.375C101.571 183.384 101.732 182.883 101.732 182.874C101.685 182.959 101.571 183.157 101.392 183.469C101.213 183.771 101.081 183.997 100.996 184.148C100.911 184.299 100.769 184.531 100.571 184.842C100.382 185.144 100.222 185.385 100.089 185.564C99.9666 185.734 99.7967 185.956 99.5796 186.23C99.3719 186.504 99.1831 186.721 99.0132 186.881C98.8527 187.042 98.6592 187.221 98.4326 187.419C98.2061 187.608 97.9889 187.755 97.7812 187.858C97.3092 188.104 96.8467 188.227 96.3936 188.227C95.2702 188.227 94.7085 187.608 94.7085 186.372C94.7085 185.805 94.9115 184.927 95.3174 183.738C95.7233 182.539 95.9263 181.836 95.9263 181.628C95.9263 181.411 95.8602 181.302 95.728 181.302C95.3504 181.302 94.8265 181.902 94.1562 183.101L93.2358 182.548C94.5291 180.481 95.7752 179.447 96.9741 179.447C97.3706 179.447 97.6868 179.561 97.9229 179.787C98.1589 180.004 98.2674 180.344 98.2485 180.807C98.2391 181.26 98.0078 182.076 97.5547 183.256C97.111 184.427 96.8892 185.324 96.8892 185.947C96.8892 186.287 97.0449 186.457 97.3564 186.457C97.7152 186.457 98.14 186.23 98.6309 185.777C99.1312 185.314 99.6126 184.753 100.075 184.092C100.812 183.053 101.576 181.836 102.369 180.438L102.751 179.759H104.776Z" fill="#FAE1DF"/>
<path d="M108.203 179.759C109.175 176.738 110.167 174.208 111.177 172.169L112.933 172.311C112.829 172.613 112.574 173.34 112.168 174.491C111.29 177.031 110.724 178.786 110.469 179.759H112.692L112.465 180.693H110.171C109.303 183.374 108.869 185.007 108.869 185.593C108.869 186.169 108.925 186.457 109.039 186.457C109.161 186.457 109.27 186.433 109.364 186.386C109.619 186.244 110.167 185.555 111.007 184.318L111.587 184.842C110.955 185.994 110.304 186.848 109.633 187.405C108.963 187.953 108.411 188.227 107.977 188.227C107.542 188.227 107.212 188.076 106.985 187.773C106.768 187.471 106.66 187.084 106.66 186.612C106.66 185.413 107.08 183.44 107.92 180.693H106.433L106.66 179.759H108.203Z" fill="#FAE1DF"/>
<path d="M13.6465 509.665C11.876 508.738 10.1898 508.274 8.58789 508.274C6.986 508.274 5.68522 508.689 4.68555 509.521C3.68587 510.34 3.18604 511.303 3.18604 512.411C3.18604 513.519 3.67383 514.471 4.64941 515.266C5.63704 516.049 6.92578 516.44 8.51562 516.44C10.1175 516.44 11.4665 516.253 12.5625 515.88C13.6706 515.507 14.5859 514.989 15.3086 514.326C16.0433 513.652 16.6756 512.875 17.2056 511.996C17.7476 511.116 18.1932 510.153 18.5425 509.105C18.9038 508.057 19.229 506.991 19.5181 505.907C19.8071 504.811 20.1022 503.697 20.4033 502.565C20.7165 501.421 21.0477 500.343 21.397 499.331C22.1799 497.055 23.3 495.284 24.7573 494.02C22.4448 493.429 20.0119 493.134 17.4585 493.134C16.0132 493.134 14.6522 493.532 13.3755 494.327C12.0988 495.11 11.075 496.169 10.3042 497.506C9.54541 498.843 9.16602 500.319 9.16602 501.933C9.16602 503.547 9.61768 504.908 10.521 506.016C11.4364 507.124 12.7371 508.099 14.4233 508.942L14.1704 509.864L13.6465 509.665ZM3.3125 516.386C2.45736 516.012 1.75879 515.482 1.2168 514.796C0.674805 514.097 0.403809 513.302 0.403809 512.411C0.403809 511.508 0.626628 510.701 1.07227 509.99C1.5179 509.28 2.09603 508.72 2.80664 508.31C4.28809 507.467 5.90202 507.045 7.64844 507.045C8.55176 507.045 9.38281 507.172 10.1416 507.425C8.50358 505.365 7.68457 503.474 7.68457 501.752C7.68457 499.259 8.55778 497.073 10.3042 495.194C12.0024 493.375 14.0078 492.129 16.3203 491.454C17.4886 491.117 18.6328 490.948 19.7529 490.948C20.873 490.948 22.493 491.189 24.6128 491.671C26.7326 492.153 28.1357 492.394 28.8223 492.394C29.5088 492.394 29.9906 492.315 30.2676 492.159C30.641 491.954 31.0806 491.562 31.5864 490.984H32.9595C32.8029 491.635 32.4837 492.195 32.002 492.665C31.5202 493.134 30.9661 493.478 30.3398 493.694C29.1715 494.092 28.0635 494.291 27.0156 494.291C25.5101 494.291 24.4984 496.097 23.9805 499.71C23.848 500.662 23.7155 502.017 23.583 503.775C23.4505 505.534 23.1434 507.094 22.6616 508.455C22.1919 509.816 21.5837 510.978 20.8369 511.941C20.1022 512.905 19.2651 513.754 18.3257 514.489C17.3983 515.211 16.3866 515.79 15.2905 516.223C13.1587 517.066 10.9004 517.488 8.51562 517.488C6.70898 517.488 4.97461 517.12 3.3125 516.386Z" fill="#FAE1DF"/>
<path d="M27.6299 513.441C27.7021 514.826 28.6356 515.519 30.4302 515.519C31.0926 515.519 31.7791 515.332 32.4897 514.958C33.2124 514.573 33.7965 514.121 34.2422 513.604L35.019 514.109C34.0194 515.784 32.4235 516.807 30.2314 517.181C29.7497 517.253 29.286 517.289 28.8403 517.289C27.5396 517.289 26.4556 516.861 25.5884 516.006C24.7212 515.139 24.2876 514.085 24.2876 512.845C24.2876 511.604 24.667 510.46 25.4258 509.412C26.1846 508.352 27.13 507.533 28.2622 506.955C29.4064 506.377 30.5326 506.088 31.6406 506.088C32.7487 506.088 33.7062 506.341 34.5132 506.847C35.3322 507.353 35.7477 508.033 35.7598 508.888C35.7839 509.743 35.5369 510.484 35.019 511.11C34.5011 511.725 33.8447 512.194 33.0498 512.52C31.472 513.158 29.9243 513.477 28.4067 513.477L27.6299 513.441ZM27.5215 512.447C28.8584 512.399 29.9303 512.188 30.7373 511.815C31.5563 511.43 32.1224 510.996 32.4355 510.514C32.7607 510.02 32.9233 509.508 32.9233 508.979C32.9233 508.437 32.7848 508.039 32.5078 507.786C32.2308 507.521 31.9357 507.389 31.6226 507.389C30.8517 507.389 30.1411 507.66 29.4907 508.202C28.8524 508.732 28.3646 509.382 28.0273 510.153C27.6901 510.912 27.5215 511.676 27.5215 512.447Z" fill="#FAE1DF"/>
<path d="M47.0513 506.485H49.8696L48.4424 511.887C48.2135 512.646 48.0991 513.339 48.0991 513.965C48.0991 514.579 48.2075 514.886 48.4243 514.886C48.6411 514.886 48.9362 514.7 49.3096 514.326C49.695 513.941 50.0202 513.555 50.2852 513.17L50.7007 512.592L51.4775 513.314C51.0801 514.085 50.5742 514.79 49.96 515.428C48.7676 516.669 47.7318 517.289 46.8525 517.289C45.8167 517.289 45.2988 516.488 45.2988 514.886C45.2988 514.621 45.3109 514.423 45.335 514.29C45.1543 514.904 44.811 515.446 44.3052 515.916C43.3416 516.831 42.2516 517.289 41.0352 517.289C39.8307 517.289 38.8612 516.88 38.1265 516.061C37.4038 515.229 37.0425 514.194 37.0425 512.953C37.0425 511.026 37.6688 509.4 38.9214 508.075C40.174 506.75 41.6434 506.088 43.3296 506.088C44.1727 506.088 44.8713 506.323 45.4253 506.792C45.9793 507.25 46.3407 507.852 46.5093 508.599L47.0513 506.485ZM44.0342 507.642C43.3356 507.642 42.6792 507.937 42.0649 508.527C41.4627 509.105 40.999 509.81 40.6738 510.641C40.3486 511.46 40.186 512.261 40.186 513.043C40.186 513.826 40.3547 514.459 40.6919 514.94C41.0412 515.422 41.5711 515.663 42.2817 515.663C43.0044 515.663 43.6548 515.338 44.2329 514.688C45.3289 513.435 45.877 511.947 45.877 510.225C45.877 508.503 45.2627 507.642 44.0342 507.642Z" fill="#FAE1DF"/>
<path d="M61.8477 513.26L62.5884 513.784C62.0584 514.856 61.2394 515.711 60.1313 516.35C59.0353 516.976 57.8851 517.289 56.6807 517.289C55.4762 517.289 54.4585 516.922 53.6274 516.187C52.8084 515.452 52.3989 514.417 52.3989 513.08C52.3989 511.731 52.8084 510.514 53.6274 509.43C54.4585 508.346 55.4762 507.521 56.6807 506.955C57.8851 506.377 59.1016 506.088 60.3301 506.088C61.8356 506.088 62.8473 506.449 63.3652 507.172C63.582 507.461 63.6904 507.828 63.6904 508.274C63.6904 508.708 63.5399 509.075 63.2388 509.376C62.9377 509.677 62.5763 509.828 62.1548 509.828C61.7332 509.828 61.3779 509.695 61.0889 509.43C60.7998 509.153 60.6553 508.804 60.6553 508.382C60.6553 507.961 60.9142 507.575 61.4321 507.226C60.9744 507.082 60.5529 507.009 60.1675 507.009C59.3364 507.009 58.5716 507.316 57.873 507.931C57.1745 508.545 56.6445 509.292 56.2832 510.171C55.9219 511.038 55.7412 511.893 55.7412 512.736C55.7412 513.579 55.9399 514.26 56.3374 514.778C56.7469 515.284 57.3311 515.537 58.0898 515.537C58.8486 515.537 59.5773 515.326 60.2759 514.904C60.9744 514.471 61.4984 513.923 61.8477 513.26Z" fill="#FAE1DF"/>
<path d="M72.3804 515.338C72.3804 514.712 72.6333 513.706 73.1392 512.321C73.645 510.936 73.8979 509.948 73.8979 509.358C73.8979 508.756 73.6872 508.455 73.2656 508.455C72.8561 508.455 72.3563 508.75 71.7661 509.34C71.1759 509.918 70.6099 510.629 70.0679 511.472C69.1766 512.833 68.2793 514.386 67.376 516.133L66.9062 517H64.3047C64.8949 512.64 65.4609 509.412 66.0029 507.316C66.5449 505.221 67.0628 503.432 67.5566 501.951C68.0505 500.469 68.5804 499.156 69.1465 498.012C70.4232 495.387 71.8926 493.441 73.5547 492.177L74.9277 492.809C73.639 494.098 72.4526 496.368 71.3687 499.62C70.2967 502.86 69.1043 507.334 67.7915 513.043C67.8638 512.923 68.0083 512.67 68.2251 512.285C68.4539 511.887 68.6286 511.592 68.749 511.399C68.8695 511.195 69.0501 510.894 69.291 510.496C69.5439 510.099 69.7547 509.785 69.9233 509.557C70.092 509.316 70.3088 509.021 70.5737 508.671C70.8507 508.322 71.0916 508.045 71.2964 507.84C71.5132 507.624 71.7661 507.395 72.0552 507.154C72.3442 506.901 72.6213 506.702 72.8862 506.558C73.5005 506.244 74.1569 506.088 74.8555 506.088C75.554 506.088 76.078 506.281 76.4272 506.666C76.7886 507.051 76.9692 507.569 76.9692 508.22C76.9692 508.87 76.6681 509.966 76.0659 511.508C75.4637 513.037 75.1626 513.983 75.1626 514.344C75.1626 514.706 75.259 514.886 75.4517 514.886C75.9575 514.886 76.7223 514.121 77.7461 512.592L78.5229 513.314C77.7521 514.639 76.9451 515.633 76.1021 516.295C75.271 516.958 74.5845 517.289 74.0425 517.289C73.5125 517.289 73.103 517.12 72.814 516.783C72.5249 516.446 72.3804 515.964 72.3804 515.338Z" fill="#FAE1DF"/>
<path d="M82.8047 513.441C82.877 514.826 83.8104 515.519 85.605 515.519C86.2674 515.519 86.9539 515.332 87.6646 514.958C88.3872 514.573 88.9714 514.121 89.417 513.604L90.1938 514.109C89.1942 515.784 87.5983 516.807 85.4062 517.181C84.9245 517.253 84.4608 517.289 84.0151 517.289C82.7144 517.289 81.6304 516.861 80.7632 516.006C79.896 515.139 79.4624 514.085 79.4624 512.845C79.4624 511.604 79.8418 510.46 80.6006 509.412C81.3594 508.352 82.3049 507.533 83.437 506.955C84.5812 506.377 85.7074 506.088 86.8154 506.088C87.9235 506.088 88.881 506.341 89.688 506.847C90.507 507.353 90.9225 508.033 90.9346 508.888C90.9587 509.743 90.7118 510.484 90.1938 511.11C89.6759 511.725 89.0195 512.194 88.2246 512.52C86.6468 513.158 85.0991 513.477 83.5815 513.477L82.8047 513.441ZM82.6963 512.447C84.0332 512.399 85.1051 512.188 85.9121 511.815C86.7311 511.43 87.2972 510.996 87.6104 510.514C87.9355 510.02 88.0981 509.508 88.0981 508.979C88.0981 508.437 87.9596 508.039 87.6826 507.786C87.4056 507.521 87.1105 507.389 86.7974 507.389C86.0265 507.389 85.3159 507.66 84.6655 508.202C84.0272 508.732 83.5394 509.382 83.2021 510.153C82.8649 510.912 82.6963 511.676 82.6963 512.447Z" fill="#FAE1DF"/>
<path d="M102.154 508.455C101.696 508.455 101.154 508.75 100.528 509.34C99.9015 509.918 99.2933 510.629 98.7031 511.472C97.7637 512.821 96.8062 514.374 95.8306 516.133L95.3428 517H92.7954C92.7954 517 92.9821 516.434 93.3555 515.302C94.4033 512.17 94.9272 510.315 94.9272 509.737C94.9272 509.147 94.8309 508.852 94.6382 508.852C94.2889 508.852 93.8734 509.268 93.3916 510.099C93.2832 510.291 93.1929 510.448 93.1206 510.568C93.0483 510.677 92.964 510.815 92.8677 510.984C92.7834 511.14 92.7292 511.237 92.7051 511.273L91.4946 510.568C92.4341 509.039 93.2952 507.913 94.0781 507.19C94.861 506.455 95.6619 506.088 96.481 506.088C96.8543 506.088 97.1735 506.244 97.4385 506.558C97.7155 506.871 97.854 507.244 97.854 507.678C97.854 508.099 97.8299 508.479 97.7817 508.816C97.7336 509.141 97.6794 509.442 97.6191 509.719C97.5589 509.996 97.4746 510.327 97.3662 510.713C97.2578 511.098 97.1675 511.393 97.0952 511.598C97.035 511.803 96.9507 512.08 96.8423 512.429C96.7339 512.778 96.6676 512.983 96.6436 513.043C96.8604 512.61 97.2277 511.972 97.7456 511.128C98.2635 510.285 98.6007 509.755 98.7573 509.539C98.9139 509.322 99.1307 509.033 99.4077 508.671C99.6847 508.31 99.9256 508.033 100.13 507.84C100.347 507.636 100.6 507.407 100.889 507.154C101.19 506.889 101.473 506.69 101.738 506.558C102.413 506.244 103.063 506.088 103.689 506.088C104.316 506.088 104.816 506.275 105.189 506.648C105.574 507.009 105.767 507.437 105.767 507.931C105.767 508.412 105.611 508.84 105.297 509.213C104.996 509.575 104.641 509.755 104.231 509.755C103.834 509.755 103.521 509.689 103.292 509.557C103.063 509.412 102.907 509.262 102.822 509.105C102.569 508.671 102.347 508.455 102.154 508.455Z" fill="#FAE1DF"/>
<path d="M694.74 374.312C695.223 374.312 695.465 374.477 695.465 374.805C695.465 375.133 695.214 375.297 694.713 375.297C693.4 375.297 692.161 375.502 690.994 375.912C689.837 376.322 688.875 376.846 688.109 377.484C687.344 378.122 686.742 378.824 686.305 379.59C685.867 380.355 685.648 381.107 685.648 381.846C685.648 383.031 686.145 384.01 687.139 384.785C688.132 385.551 689.613 385.934 691.582 385.934C693.833 385.934 695.52 385.396 696.641 384.32C697.224 383.755 697.516 383.026 697.516 382.133C697.516 381.23 697.219 380.52 696.627 380C696.035 379.48 695.273 379.221 694.344 379.221C693.423 379.221 692.507 379.403 691.596 379.768C690.693 380.132 689.978 380.62 689.449 381.23L688.697 380.561C689.226 379.886 690.01 379.344 691.049 378.934C692.088 378.523 693.036 378.318 693.893 378.318C694.749 378.318 695.438 378.396 695.957 378.551C696.486 378.706 696.964 378.934 697.393 379.234C698.313 379.891 698.801 380.902 698.855 382.27C698.819 383.09 698.573 383.828 698.117 384.484C697.661 385.141 697.06 385.674 696.312 386.084C694.799 386.923 693.018 387.342 690.967 387.342C688.77 387.342 686.833 386.831 685.156 385.811C684.354 385.318 683.712 384.68 683.229 383.896C682.745 383.104 682.504 382.224 682.504 381.258C682.504 377.831 685.503 375.63 691.5 374.654C690.488 374.308 689.759 373.848 689.312 373.273C688.866 372.699 688.643 372.102 688.643 371.482C688.643 370.37 689.253 369.395 690.475 368.557C691.705 367.709 693.25 367.285 695.109 367.285C696.814 367.285 698.236 367.741 699.375 368.652C700.223 369.327 700.665 370.215 700.701 371.318C700.701 371.829 700.551 372.216 700.25 372.48C699.949 372.736 699.589 372.863 699.17 372.863C698.751 372.863 698.391 372.749 698.09 372.521C697.798 372.285 697.652 372.011 697.652 371.701C697.652 371.391 697.707 371.15 697.816 370.977C697.926 370.794 698.044 370.662 698.172 370.58C698.309 370.489 698.464 370.421 698.637 370.375C698.892 370.311 699.097 370.279 699.252 370.279C698.96 369.678 698.441 369.199 697.693 368.844C696.955 368.479 696.094 368.297 695.109 368.297C694.125 368.297 693.227 368.579 692.416 369.145C691.614 369.701 691.213 370.462 691.213 371.428C691.213 372.467 691.573 373.283 692.293 373.875C692.685 374.203 693.154 374.367 693.701 374.367L694.74 374.312ZM696.053 366.055H695.314C695.679 365.535 696.399 364.419 697.475 362.705L697.953 361.939H700.277C700.15 362.067 699.79 362.436 699.197 363.047C697.693 364.596 696.645 365.599 696.053 366.055Z" fill="#FAE1DF"/>
<path d="M701.59 379.043C702.529 376.126 703.486 373.684 704.461 371.715L706.156 371.852C706.056 372.143 705.81 372.845 705.418 373.957C704.57 376.409 704.023 378.104 703.777 379.043H705.924L705.705 379.945H703.49C702.652 382.534 702.232 384.111 702.232 384.676C702.232 385.232 702.287 385.51 702.396 385.51C702.515 385.51 702.62 385.487 702.711 385.441C702.957 385.305 703.486 384.639 704.297 383.445L704.857 383.951C704.247 385.063 703.618 385.888 702.971 386.426C702.324 386.954 701.79 387.219 701.371 387.219C700.952 387.219 700.633 387.073 700.414 386.781C700.204 386.49 700.1 386.116 700.1 385.66C700.1 384.503 700.505 382.598 701.316 379.945H699.881L700.1 379.043H701.59Z" fill="#FAE1DF"/>
<path d="M716.684 379.043C715.462 382.297 714.852 384.27 714.852 384.963C714.852 385.255 714.924 385.4 715.07 385.4C715.471 385.4 716.055 384.817 716.82 383.65L717.408 384.211C716.925 385.077 716.351 385.797 715.686 386.371C715.029 386.936 714.496 387.219 714.086 387.219C713.238 387.219 712.814 386.79 712.814 385.934C712.814 385.268 712.969 384.457 713.279 383.5C713.589 382.543 713.744 382.06 713.744 382.051C713.699 382.133 713.589 382.324 713.416 382.625C713.243 382.917 713.115 383.135 713.033 383.281C712.951 383.427 712.814 383.65 712.623 383.951C712.441 384.243 712.286 384.475 712.158 384.648C712.04 384.812 711.876 385.027 711.666 385.291C711.465 385.555 711.283 385.765 711.119 385.92C710.964 386.075 710.777 386.248 710.559 386.439C710.34 386.622 710.13 386.763 709.93 386.863C709.474 387.1 709.027 387.219 708.59 387.219C707.505 387.219 706.963 386.622 706.963 385.428C706.963 384.881 707.159 384.033 707.551 382.885C707.943 381.727 708.139 381.048 708.139 380.848C708.139 380.638 708.075 380.533 707.947 380.533C707.583 380.533 707.077 381.112 706.43 382.27L705.541 381.736C706.79 379.74 707.993 378.742 709.15 378.742C709.533 378.742 709.839 378.852 710.066 379.07C710.294 379.28 710.399 379.608 710.381 380.055C710.372 380.492 710.148 381.281 709.711 382.42C709.283 383.55 709.068 384.416 709.068 385.018C709.068 385.346 709.219 385.51 709.52 385.51C709.866 385.51 710.276 385.291 710.75 384.854C711.233 384.407 711.698 383.865 712.145 383.227C712.855 382.224 713.594 381.048 714.359 379.699L714.729 379.043H716.684Z" fill="#FAE1DF"/>
<path d="M724.764 385.318C723.807 386.585 722.663 387.219 721.332 387.219C720.439 387.219 719.682 386.895 719.062 386.248C718.443 385.592 718.133 384.758 718.133 383.746C718.133 382.388 718.643 381.217 719.664 380.232C720.685 379.239 721.829 378.742 723.096 378.742C723.752 378.742 724.312 378.874 724.777 379.139C725.251 379.394 725.557 379.745 725.693 380.191C726.113 378.469 726.714 376.473 727.498 374.203C728.291 371.924 729.02 370.133 729.686 368.83H731.873C731.025 370.507 729.982 373.351 728.742 377.361C727.503 381.363 726.883 383.865 726.883 384.867C726.883 385.223 726.956 385.4 727.102 385.4C727.466 385.4 728.049 384.822 728.852 383.664L729.439 384.211C728.865 385.232 728.25 385.988 727.594 386.48C726.938 386.973 726.409 387.219 726.008 387.219C725.616 387.219 725.306 387.077 725.078 386.795C724.859 386.503 724.75 386.084 724.75 385.537C724.75 385.519 724.75 385.487 724.75 385.441C724.759 385.387 724.764 385.346 724.764 385.318ZM720.607 383.664C720.607 385.132 721.173 385.865 722.303 385.865C723.36 385.865 724.23 385.159 724.914 383.746C725.233 383.081 725.393 382.543 725.393 382.133C725.393 380.656 724.832 379.918 723.711 379.918C722.964 379.918 722.257 380.264 721.592 380.957C720.936 381.641 720.607 382.543 720.607 383.664Z" fill="#FAE1DF"/>
<path d="M732.598 387.219C732.215 387.219 731.914 387.1 731.695 386.863C731.477 386.626 731.367 386.303 731.367 385.893C731.367 385.473 731.472 384.908 731.682 384.197C731.9 383.477 732.115 382.826 732.324 382.242C732.543 381.659 732.652 381.271 732.652 381.08C732.652 380.88 732.589 380.779 732.461 380.779C732.142 380.779 731.627 381.408 730.916 382.666L730 382.133C731.34 379.872 732.57 378.742 733.691 378.742C734.457 378.742 734.84 379.225 734.84 380.191C734.84 380.474 734.749 380.925 734.566 381.545L733.582 384.361C733.482 384.626 733.432 384.867 733.432 385.086C733.432 385.296 733.514 385.4 733.678 385.4C733.988 385.4 734.557 384.826 735.387 383.678L735.961 384.211C735.469 385.122 734.881 385.852 734.197 386.398C733.523 386.945 732.99 387.219 732.598 387.219ZM736.494 374.709C736.494 375.074 736.371 375.406 736.125 375.707C735.879 376.008 735.546 376.158 735.127 376.158C734.708 376.158 734.393 376.035 734.184 375.789C733.974 375.534 733.869 375.215 733.869 374.832C733.869 374.449 733.997 374.112 734.252 373.82C734.516 373.52 734.854 373.369 735.264 373.369C735.674 373.369 735.979 373.501 736.18 373.766C736.389 374.021 736.494 374.335 736.494 374.709Z" fill="#FAE1DF"/>
<path d="M744.342 379.043H746.475L745.395 383.131C745.221 383.705 745.135 384.229 745.135 384.703C745.135 385.168 745.217 385.4 745.381 385.4C745.545 385.4 745.768 385.259 746.051 384.977C746.342 384.685 746.589 384.393 746.789 384.102L747.104 383.664L747.691 384.211C747.391 384.794 747.008 385.327 746.543 385.811C745.641 386.749 744.857 387.219 744.191 387.219C743.408 387.219 743.016 386.613 743.016 385.4C743.016 385.2 743.025 385.049 743.043 384.949C742.906 385.414 742.646 385.824 742.264 386.18C741.535 386.872 740.71 387.219 739.789 387.219C738.878 387.219 738.144 386.909 737.588 386.289C737.041 385.66 736.768 384.876 736.768 383.938C736.768 382.479 737.242 381.249 738.189 380.246C739.137 379.243 740.249 378.742 741.525 378.742C742.163 378.742 742.692 378.92 743.111 379.275C743.531 379.622 743.804 380.077 743.932 380.643L744.342 379.043ZM742.059 379.918C741.53 379.918 741.033 380.141 740.568 380.588C740.113 381.025 739.762 381.559 739.516 382.188C739.27 382.807 739.146 383.413 739.146 384.006C739.146 384.598 739.274 385.077 739.529 385.441C739.794 385.806 740.195 385.988 740.732 385.988C741.279 385.988 741.771 385.742 742.209 385.25C743.038 384.302 743.453 383.176 743.453 381.873C743.453 380.57 742.988 379.918 742.059 379.918Z" fill="#FAE1DF"/>
<path d="M752.148 383.158C754.053 380.214 755.762 378.742 757.275 378.742C757.786 378.742 758.169 378.897 758.424 379.207C758.679 379.517 758.807 379.909 758.807 380.383C758.807 380.857 758.592 381.677 758.164 382.844C757.745 384.01 757.535 384.735 757.535 385.018C757.535 385.291 757.604 385.428 757.74 385.428C757.923 385.428 758.191 385.241 758.547 384.867C758.902 384.484 759.217 384.083 759.49 383.664L760.064 384.211C759.518 385.204 758.916 385.956 758.26 386.467C757.613 386.968 757.084 387.219 756.674 387.219C756.273 387.219 755.958 387.087 755.73 386.822C755.503 386.549 755.389 386.18 755.389 385.715C755.389 385.25 755.571 384.493 755.936 383.445C756.309 382.388 756.496 381.641 756.496 381.203C756.496 380.757 756.346 380.533 756.045 380.533C755.699 380.533 755.288 380.757 754.814 381.203C754.34 381.641 753.88 382.178 753.434 382.816C752.723 383.837 751.998 385.013 751.26 386.344L750.891 387H748.963L749.387 385.715C750.18 383.345 750.576 381.941 750.576 381.504C750.576 381.057 750.503 380.834 750.357 380.834C750.093 380.834 749.779 381.148 749.414 381.777C749.332 381.923 749.264 382.042 749.209 382.133C749.154 382.215 749.09 382.32 749.018 382.447C748.954 382.566 748.913 382.639 748.895 382.666L747.979 382.133C748.689 380.975 749.341 380.123 749.934 379.576C750.526 379.02 751.132 378.742 751.752 378.742C752.035 378.742 752.276 378.861 752.477 379.098C752.686 379.335 752.791 379.622 752.791 379.959C752.791 380.296 752.764 380.629 752.709 380.957C752.654 381.276 752.595 381.545 752.531 381.764C752.477 381.973 752.399 382.247 752.299 382.584C752.208 382.921 752.158 383.113 752.148 383.158Z" fill="#FAE1DF"/>
<path d="M762.648 379.043C763.587 376.126 764.544 373.684 765.52 371.715L767.215 371.852C767.115 372.143 766.868 372.845 766.477 373.957C765.629 376.409 765.082 378.104 764.836 379.043H766.982L766.764 379.945H764.549C763.71 382.534 763.291 384.111 763.291 384.676C763.291 385.232 763.346 385.51 763.455 385.51C763.574 385.51 763.678 385.487 763.77 385.441C764.016 385.305 764.544 384.639 765.355 383.445L765.916 383.951C765.305 385.063 764.676 385.888 764.029 386.426C763.382 386.954 762.849 387.219 762.43 387.219C762.01 387.219 761.691 387.073 761.473 386.781C761.263 386.49 761.158 386.116 761.158 385.66C761.158 384.503 761.564 382.598 762.375 379.945H760.939L761.158 379.043H762.648Z" fill="#FAE1DF"/>
<path d="M771.631 390.008L771.221 390.391C769.516 388.823 768.664 386.617 768.664 383.773C768.664 382.115 768.956 380.36 769.539 378.51C770.132 376.65 770.883 374.964 771.795 373.451C772.706 371.929 773.741 370.612 774.898 369.5C776.065 368.388 777.191 367.686 778.275 367.395L778.631 368.133C777.437 368.534 776.316 369.336 775.268 370.539C774.229 371.733 773.367 373.118 772.684 374.695C771.234 378.068 770.51 381.422 770.51 384.758C770.51 386.9 770.883 388.65 771.631 390.008Z" fill="#FAE1DF"/>
<path d="M777.277 384.307C777.332 385.355 778.038 385.879 779.396 385.879C779.898 385.879 780.417 385.738 780.955 385.455C781.502 385.163 781.944 384.822 782.281 384.43L782.869 384.812C782.113 386.079 780.905 386.854 779.246 387.137C778.882 387.191 778.531 387.219 778.193 387.219C777.209 387.219 776.389 386.895 775.732 386.248C775.076 385.592 774.748 384.794 774.748 383.855C774.748 382.917 775.035 382.051 775.609 381.258C776.184 380.456 776.899 379.836 777.756 379.398C778.622 378.961 779.474 378.742 780.312 378.742C781.151 378.742 781.876 378.934 782.486 379.316C783.106 379.699 783.421 380.214 783.43 380.861C783.448 381.508 783.261 382.069 782.869 382.543C782.477 383.008 781.98 383.363 781.379 383.609C780.185 384.092 779.014 384.334 777.865 384.334L777.277 384.307ZM777.195 383.555C778.207 383.518 779.018 383.359 779.629 383.076C780.249 382.785 780.677 382.456 780.914 382.092C781.16 381.718 781.283 381.331 781.283 380.93C781.283 380.52 781.178 380.219 780.969 380.027C780.759 379.827 780.536 379.727 780.299 379.727C779.715 379.727 779.178 379.932 778.686 380.342C778.202 380.743 777.833 381.235 777.578 381.818C777.323 382.393 777.195 382.971 777.195 383.555Z" fill="#FAE1DF"/>
<path d="M784.264 390.691L783.84 389.994C784.779 389.356 785.672 388.331 786.52 386.918C787.367 385.505 788.064 384.001 788.611 382.406C789.805 378.906 790.402 375.949 790.402 373.533C790.402 371.109 790.102 369.309 789.5 368.133L790.225 367.723C790.753 368.315 791.173 369.167 791.482 370.279C791.801 371.391 791.961 372.772 791.961 374.422C791.961 376.062 791.742 377.79 791.305 379.604C790.867 381.408 790.284 383.026 789.555 384.457C788.835 385.879 788.014 387.132 787.094 388.217C786.182 389.301 785.239 390.126 784.264 390.691Z" fill="#FAE1DF"/>
<path d="M741.87 208.984H736.942V206.784H735.138V208.984H730.232V210.436H741.87V208.984ZM733.048 215.012C733.048 213.714 734.236 212.856 736.04 212.856C737.844 212.856 739.054 213.714 739.054 215.012C739.054 216.332 737.844 217.19 736.04 217.19C734.236 217.19 733.048 216.332 733.048 215.012ZM740.77 215.012C740.77 212.856 738.856 211.448 736.04 211.448C733.246 211.448 731.332 212.856 731.332 215.012C731.332 217.19 733.246 218.576 736.04 218.576C738.856 218.576 740.77 217.19 740.77 215.012ZM732.674 221.788H743.674V226.65H745.478V220.314H732.674V221.788ZM748.404 212.35H745.478V206.916H743.674V219.236H745.478V213.846H748.404V212.35Z" fill="#FAE1DF"/>
<path d="M763.032 213.67H765.54V219.082H767.278V206.916H765.54V212.196H763.032V207.29H761.316V218.444H763.032V213.67ZM760.502 216.156C757.972 215.188 756.498 212.966 756.498 210.788V208.126H754.76V210.788C754.76 212.988 753.22 215.54 750.646 216.684L751.614 218.092C753.528 217.234 754.936 215.562 755.64 213.714C756.344 215.386 757.686 216.794 759.534 217.542L760.502 216.156ZM760.766 225.22C757.818 225.22 755.97 224.428 755.97 223.064C755.97 221.7 757.818 220.93 760.766 220.93C763.758 220.93 765.584 221.7 765.584 223.064C765.584 224.428 763.758 225.22 760.766 225.22ZM760.766 219.522C756.718 219.522 754.188 220.82 754.188 223.064C754.188 225.308 756.718 226.606 760.766 226.606C764.836 226.606 767.366 225.308 767.366 223.064C767.366 220.82 764.836 219.522 760.766 219.522Z" fill="#FAE1DF"/>
</svg>
